<svg xmlns="http://www.w3.org/2000/svg" xmlns:xlink="http://www.w3.org/1999/xlink" viewBox="0 0 48 48" id="cart">
  <defs>
    <linearGradient id="a" x1="5.081" x2="43.184" y1="23" y2="23" gradientUnits="userSpaceOnUse">
      <stop offset="0" stop-color="#36f"></stop>
      <stop offset="1" stop-color="#42008e"></stop>
    </linearGradient>
    <linearGradient xlink:href="#a" id="b" x2="43.184" y1="20" y2="20"></linearGradient>
    <linearGradient xlink:href="#a" id="c" y1="39" y2="39"></linearGradient>
    <linearGradient xlink:href="#a" id="d" y1="39" y2="39"></linearGradient>
  </defs>
  <circle cx="25" cy="23" r="2" fill="url(#a)"></circle>
  <path fill="url(#b)" d="M42.8499756,15.1199951c-.5799561-.710022-1.4299927-1.1199951-2.3399658-1.1199951H11.0900269l-.8400269-5.460022c-.2299805-1.4699707-1.4699707-2.539978-2.9699707-2.539978h-3.2800293v2h3.2800293c.5,0,.9199829,.3599854,.9899902,.8499756l3.4799805,22.6099854c.2299805,1.4700317,1.4699707,2.5400391,2.9699707,2.5400391h22.6800537c1.4099731,0,2.6199951-.9700317,2.9199829-2.3500366l3.1199951-14c.1900024-.8899536-.0200195-1.8099976-.5900269-2.5299683Zm-12.5570068,14.5870361l-3.2736816-3.2736816c-.5949097,.3512573-1.2796021,.5666504-2.0192871,.5666504-2.2055664,0-4-1.7939453-4-4s1.7944336-4,4-4c2.2060547,0,4,1.7939453,4,4,0,.7396851-.2153931,1.4243774-.5666504,2.0192871l3.2736816,3.2736816-1.4140625,1.4140625Z"></path>
  <circle cx="16" cy="39" r="3" fill="url(#c)"></circle>
  <circle cx="36" cy="39" r="3" fill="url(#d)"></circle>
</svg>
