<svg xmlns="http://www.w3.org/2000/svg" xml:space="preserve" id="cat-play" x="0" y="0" style="enable-background:new 0 0 512 512" version="1.1" viewBox="0 0 512 512">
  <g>
    <g id="color_00000151527053272782212950000016279785514000721339_">
      <g>
        <path d="M369.03,338.69l5.91,1.89c-0.06,0.26-0.08,0.54-0.03,0.82c0.14,0.82,3.27,20.18-14.49,27.14
				c-13.59,5.32-36.11,7.52-47.98,8.34c5.69-3.72,11.67-9.11,16.25-16.82c0.38,0.01,0.76,0.02,1.13,0.02
				c17.43,0,30.56-6.21,37.12-17.62c0.71-1.24,1.32-2.54,1.86-3.86C368.87,338.63,368.94,338.67,369.03,338.69z" style="fill:#5de6f4"></path>
      </g>
      <g>
        <path d="M341.71,288.55c6.57,0.34,13.15,5.48,19.02,14.88c7.73,12.36,8.79,26.56,2.76,37.04
				c-5.69,9.9-17.22,15.38-32.64,15.62c2.2-4.33,3.79-8.44,4.91-12.21c0,0,0,0,0,0c0.33-0.02,8.02-0.66,9.49-11.92
				c0.61-4.65,0.04-7.86-1.77-10.12c-2.4-2.99-6.5-3.89-12.77-4.44c-2.33-0.2-4.07-1.59-5.18-4.13c-2.24-5.12-1.17-13.25,2.33-17.75
				C330.63,291.95,335.74,288.25,341.71,288.55z" style="fill:#ffd9a1"></path>
      </g>
      <g>
        <path d="M304.53,235.29c2.06,1.61,19.36,21.39,25.76,51.78c0.05,0.25,0.15,0.48,0.29,0.68
				c-3.02,1.95-5.02,4.26-5.86,5.34c-4.36,5.6-5.63,15.37-2.83,21.77c1.68,3.86,4.69,6.17,8.48,6.5c1.37,0.12,2.61,0.26,3.74,0.43
				c0,0.03,0,0.05,0.01,0.08c0.03,0.15,2.72,15.67-8.28,35.22c-10.87,19.32-32.01,23.63-32.22,23.67c-1.01,0.19-1.7,1.13-1.6,2.15
				c0.03,0.27,2.51,27.06-24.22,37.03c-14.07,5.25-35.96,5.34-50.78-6.87c-7.53-6.21-12.03-14.78-13.4-25.22
				c0.07-0.2,0.13-0.41,0.13-0.63c0.01-0.44-0.12-0.86-0.36-1.19c-0.48-5.12-0.24-10.67,0.75-16.6c0.17-1.02-0.47-2-1.47-2.25
				l-6.8-1.7c-0.58-0.14-1.19-0.02-1.66,0.33c-0.48,0.35-0.77,0.9-0.8,1.5l-0.81,16.7c-0.35-0.12-0.61-0.24-0.79-0.34
				c-5.54-3.08-5.95-28.78-6.24-47.55l-0.06-3.92c-0.39-23.41-9.93-38.55-10.37-39.24l-1.63-2.38c7.37,4.37,16.76,6.99,26.99,6.99
				c23.59,0,42.78-13.95,42.78-31.1c0-9.38-5.76-17.8-14.83-23.51c5,0.26,9.92,0.4,14.74,0.4c22.71,0,43.28-2.91,60.75-8.57
				C304.09,234.99,304.29,235.16,304.53,235.29z" style="fill:#ffd9a1"></path>
      </g>
      <g>
        <path d="M161.67,266.47c0-14.96,17.41-27.13,38.82-27.13s38.82,12.17,38.82,27.13c0,14.96-17.41,27.13-38.82,27.13
				S161.67,281.43,161.67,266.47z" style="fill:#ffd9a1"></path>
      </g>
      <g>
        <path d="M144.46,212.58c0-11.44,9.48-20.75,21.14-20.75s21.14,9.31,21.14,20.75c0,11.44-9.48,20.75-21.14,20.75
				S144.46,224.02,144.46,212.58z" style="fill:#a4f2ff"></path>
      </g>
      <g>
        <path d="M165.6,237.3c1.85,0,3.65-0.2,5.39-0.58c0.24,0.7,0.86,1.25,1.65,1.34l7.94,0.91
				c-5.75,2.21-10.73,5.34-14.56,9.12l-6.01-0.45l5.33-10.34C165.42,237.29,165.51,237.3,165.6,237.3z" style="fill:#ffd9a1"></path>
      </g>
      <g>
        <path d="M104.55,186.39c-17.65-39,8.6-89.12,8.87-89.62c0.29-0.55,0.31-1.2,0.05-1.76
				c-0.18-0.4-17.71-39.83,6.65-76.49c4.59-1.06,32.87-5.81,61.86,28.45c0.54,0.64,1.43,0.87,2.22,0.57
				c0.43-0.16,43.71-16.08,92.53,2.13c0.96,0.36,2.03-0.08,2.48-1c0.04-0.08,4.14-8.37,13.94-15.48
				c12.97-9.4,29.33-12.44,48.65-9.06c3.15,3.96,22.6,30.98,5.19,72.63c-0.23,0.54-0.2,1.16,0.07,1.68
				c0.19,0.37,19.12,37.27,10.44,80.29c-4.17,20.67-18.97,37.17-42.79,47.72c-23.43,10.37-54.5,14.63-89.86,12.32
				c-0.87-0.05-1.63,0.46-1.95,1.21c-6.52-2.93-14.19-4.62-22.4-4.62c-3.9,0-7.67,0.39-11.27,1.1c-0.31-0.36-0.75-0.61-1.26-0.66
				l-10.91-1.25c8.1-4.11,13.65-12.42,13.65-21.99c0-13.63-11.26-24.72-25.1-24.72s-25.1,11.09-25.1,24.72
				c0,5.58,1.89,10.73,5.07,14.87C137.92,225.32,118.43,217.05,104.55,186.39z" style="fill:#ffd9a1"></path>
      </g>
      <g>
        <path d="M152.69,233.77c2.54,1.51,5.37,2.58,8.39,3.12l-5.37,10.42l-8.78-0.66L152.69,233.77z" style="fill:#a4f2ff"></path>
      </g>
      <g>
        <path d="M155.54,251.27c0.09,0.06,0.17,0.13,0.27,0.18c0.29,0.15,0.6,0.22,0.91,0.22c0.32,0,0.64-0.09,0.92-0.24
				l5.14,0.39c-3.23,4.37-5.06,9.36-5.06,14.65c0,2.84,0.54,5.59,1.52,8.21l-16.15-1.35c1.75-4.51,2.73-9.48,2.73-14.7
				c0-2.8-0.29-5.53-0.82-8.15L155.54,251.27z" style="fill:#a4f2ff"></path>
      </g>
      <g>
        <path d="M112.62,225.54c16.12,0,29.23,14.84,29.23,33.08s-13.11,33.08-29.23,33.08s-29.23-14.84-29.23-33.08
				S96.5,225.54,112.62,225.54z" style="fill:#a4f2ff"></path>
      </g>
      <g>
        <path d="M45.63,212.39c0-11.44,9.48-20.75,21.14-20.75s21.14,9.31,21.14,20.75c0,11.44-9.48,20.75-21.14,20.75
				S45.63,223.83,45.63,212.39z" style="fill:#a4f2ff"></path>
      </g>
      <g>
        <path d="M68.51,244.41l-2.33-7.32c0.19,0,0.39,0.01,0.58,0.01c2.53,0,4.96-0.37,7.26-1.06l3.35,9.43l-8.8-0.18
				C68.62,245.01,68.6,244.7,68.51,244.41z" style="fill:#a4f2ff"></path>
      </g>
      <g>
        <path d="M35.59,283.82c-14.61,0-26.49-10.55-26.49-23.52c0-12.97,11.88-23.52,26.49-23.52s26.49,10.55,26.49,23.52
				C62.08,273.27,50.2,283.82,35.59,283.82z" style="fill:#ffd9a1"></path>
      </g>
      <g>
        <path d="M63.88,270.48c1.4-3.15,2.17-6.58,2.17-10.17c0-3.97-0.94-7.74-2.63-11.14l16.48,0.33
				c0.11,0.02,0.21,0.05,0.32,0.05c0.07,0,0.15-0.01,0.22-0.02c-0.66,2.91-1.02,5.96-1.02,9.1c0,4.78,0.82,9.34,2.3,13.54
				L63.88,270.48z" style="fill:#a4f2ff"></path>
      </g>
      <g>
        <path d="M139.53,449.75c0,24.62-20.54,44.64-45.8,44.64s-45.8-20.03-45.8-44.64c0-0.88,0.04-1.76,0.09-2.64h20.43
				c-0.13,1.07-0.21,2.14-0.21,3.22c0,14.59,11.61,26.45,25.87,26.45S120,464.91,120,450.33c0-1.08-0.09-2.15-0.21-3.22h19.66
				C139.5,447.99,139.53,448.87,139.53,449.75z" style="fill:#474747"></path>
      </g>
      <g>
        <path d="M115.79,447.11c0.15,1.06,0.24,2.14,0.24,3.22c0,12.4-9.83,22.49-21.91,22.49s-21.91-10.09-21.91-22.49
				c0-1.08,0.09-2.16,0.24-3.22H115.79z" style="fill:#fff"></path>
      </g>
      <g>
        <path d="M42.67,443.14c-0.6-3.42-0.9-6.9-0.9-10.35c0-30.99,23.48-56.2,52.35-56.2s52.35,25.21,52.35,56.2
				c0,3.45-0.3,6.92-0.9,10.35H42.67z" style="fill:#a4f2ff"></path>
      </g>
      <g>
        <path d="M93.59,313.54c2.22-3.33,7.01-5.31,11.66-4.81c3.04,0.33,8.59,2,11.56,9.57
				c5.42,13.81,2.47,59.82,2.44,60.28c-0.01,0.13,0,0.26,0.01,0.39c-7.57-4.05-16.11-6.35-25.14-6.35c-0.97,0-1.93,0.03-2.88,0.08
				c0.08-0.24,0.13-0.49,0.11-0.76C90.37,352.13,90.11,318.76,93.59,313.54z" style="fill:#5de6f4"></path>
      </g>
      <g>
        <path d="M395.65,449.75c0,24.62-20.54,44.64-45.8,44.64c-25.25,0-45.8-20.03-45.8-44.64c0-0.88,0.04-1.76,0.09-2.64
				h20.43c-0.13,1.07-0.21,2.14-0.21,3.22c0,14.59,11.61,26.45,25.87,26.45s25.87-11.87,25.87-26.45c0-1.08-0.09-2.15-0.21-3.22
				h19.66C395.61,447.99,395.65,448.87,395.65,449.75z" style="fill:#474747"></path>
      </g>
      <g>
        <path d="M371.9,447.11c0.15,1.06,0.24,2.14,0.24,3.22c0,12.4-9.83,22.49-21.91,22.49
				c-12.08,0-21.91-10.09-21.91-22.49c0-1.08,0.09-2.16,0.24-3.22H371.9z" style="fill:#fff"></path>
      </g>
      <g>
        <path d="M406.69,443.14H149.58c0.56-3.43,0.86-6.9,0.86-10.35c0-22.35-11.47-41.87-28.44-52.25
				c0.67-0.28,1.16-0.92,1.21-1.69c0.13-1.93,3.05-47.36-2.7-61.99c-2.73-6.95-8.14-11.35-14.83-12.07
				c-6.15-0.66-12.33,1.98-15.38,6.55c-5.35,8.02-3.17,55.42-2.9,60.79c0.02,0.33,0.12,0.63,0.27,0.9
				c-10.7,1.31-20.5,5.84-28.53,12.66c-1.33-5.91-6.53-32.67-1.2-70.41c2.26-16,7.45-26.96,15.01-31.69
				c6.69-4.19,12.97-2.23,13.23-2.15c0.12,0.04,0.25,0.07,0.37,0.08c6.08,8.61,15.5,14.15,26.06,14.15
				c12.25,0,22.97-7.45,28.72-18.51l19.9,1.66c0.83,1.39,1.8,2.73,2.89,4.01c-0.11,0.52-0.03,1.08,0.3,1.55l7.4,10.76
				c0.09,0.15,9.34,14.88,9.71,37.11l0.06,3.92c0.44,28.25,1.26,47.06,8.28,50.96c1.85,1.03,5.09,1.66,9.86,1.92
				c1.93,13.48,8.54,21.96,14.76,27.08c8.84,7.29,21.31,11.17,34,11.17c7.02,0,14.11-1.19,20.69-3.64
				c25.39-9.47,26.94-32.81,26.86-39.4c1.76-0.46,4.77-1.38,8.36-2.99c0.07,0.01,0.14,0.02,0.21,0.02c0.02,0,0.05,0,0.07,0
				c1.52-0.05,37.54-1.38,57.18-9.06c18.47-7.23,17.55-26.24,17.07-30.6c6.14,2.26,19.38,10.27,26.54,38.11
				C413.97,412.75,408.32,437.28,406.69,443.14z" style="fill:#a4f2ff"></path>
      </g>
      <g>
        <path d="M427.37,416.45l-12.94-0.66c-0.12-0.01-0.25,0-0.37,0.02c0.01-3.12-0.08-6.43-0.32-9.95
				c0.07-0.01,0.14-0.01,0.21-0.02c0.99-0.19,7.28-0.16,13.43-0.01V416.45z" style="fill:#d6d6d6"></path>
      </g>
      <g>
        <path d="M506.02,399.12c-0.76-2.71-2.49-5.65-6.39-6.55c1.07-1.4,1.69-3.05,1.8-4.84
				c0.23-3.73-1.76-7.63-5.35-10.45c-4.5-3.54-8.55-1.07-11.23,0.57c-0.85,0.52-1.79,1.09-2.45,1.27c0.04-0.56,0.19-1.41,0.31-2.08
				c0.46-2.59,1.08-6.13-0.25-9.69c-1.1-2.94-4.38-4.16-8.77-3.27c-6.37,1.29-15.03,7.16-14.72,14.84c0.17,4.2,1.78,7.3,3.08,9.78
				c1.92,3.68,2.88,5.52-0.61,9.19c-6.52,6.86-19.36,5.2-19.49,5.18c-0.75-0.1-1.48,0.23-1.91,0.85c-0.43,0.62-0.46,1.43-0.09,2.09
				c4.27,7.62,11.9,7.17,17.48,6.85c2.35-0.14,4.57-0.27,5.93,0.22c1.56,0.56,1.6,0.97,1.79,3.23c0.2,2.41,0.48,5.71,3.42,9.91
				c1.75,2.49,4.3,3.77,7.18,3.77c2.17,0,4.53-0.72,6.88-2.18c3.89-2.41,6.89-6.57,5.11-9.85c-0.55-1.01-0.57-1.62-0.45-1.77
				c0.27-0.34,2.08-0.98,6.62,0.38c3.66,1.1,7.04,0.37,9.5-2.04C506.76,411.25,507.76,405.34,506.02,399.12z" style="fill:#633535"></path>
      </g>
      <g>
        <path d="M500.63,411.71c-1.4,1.38-3.33,1.75-5.58,1.07c-6.71-2.01-9.6-0.61-10.84,0.92
				c-0.74,0.91-1.72,2.93,0.05,6.17c0.28,0.52-0.83,2.79-3.71,4.57c-0.98,0.6-5.98,3.42-8.72-0.5c-2.33-3.32-2.53-5.79-2.72-7.97
				c-0.21-2.45-0.44-5.22-4.41-6.64c-1.24-0.44-2.65-0.57-4.17-0.57c-1.07,0-2.19,0.06-3.33,0.13c-3.92,0.23-7.93,0.46-10.99-1.66
				c5.05-0.08,12.93-1.18,18.1-6.61c5.44-5.73,3.31-9.81,1.25-13.76c-1.23-2.36-2.5-4.8-2.63-8.11c-0.21-5.2,6.58-9.79,11.54-10.79
				c1.71-0.35,3.85-0.35,4.27,0.78c0.95,2.54,0.46,5.35,0.06,7.6c-0.39,2.18-0.72,4.07,0.34,5.48c0.38,0.51,1.11,1.15,2.39,1.29
				c1.94,0.22,3.69-0.85,5.39-1.89c2.79-1.71,4.47-2.59,6.71-0.83c2.52,1.98,3.99,4.69,3.84,7.08c-0.11,1.76-1.1,3.25-2.86,4.3
				c-1.89,1.13-3.03,1.82-2.44,3.43c0.58,1.59,2.26,1.31,2.81,1.22c3.06-0.5,6.06-0.4,7.22,3.74
				C503.53,404.94,502.91,409.47,500.63,411.71z" style="fill:#fff"></path>
      </g>
      <g>
        <path d="M208.42,188.33l0.72,7.57c0.1,1.03,0.96,1.8,1.97,1.8c0.06,0,0.13,0,0.19-0.01
				c1.09-0.1,1.89-1.07,1.79-2.16l-0.66-6.95c5.92-0.77,13.8-3.49,13.42-9.97c-0.17-2.84-1.9-5.2-4.88-6.64
				c-5.8-2.81-15.11-1.67-21.19,2.58c-3,2.1-3.33,4.24-3.07,5.67C197.48,184.53,204.72,187.22,208.42,188.33z" style="fill:#633535"></path>
      </g>
      <g>
        <path d="M202.05,177.78c3.39-2.38,7.61-3.41,11.28-3.41c2.3,0,4.38,0.41,5.91,1.15c1.68,0.81,2.57,1.92,2.65,3.31
				c0.24,4.13-8.06,5.69-11.43,5.96c-4.49-1.23-9.55-3.65-9.85-5.28C200.54,179.12,201.09,178.46,202.05,177.78z" style="fill:#ffa4af"></path>
      </g>
      <g>
        <path d="M282.44,188.42c-0.2-0.51,0.05-1.09,0.56-1.28l19.55-7.65c0.51-0.2,1.08,0.05,1.29,0.56
				c0.2,0.51-0.05,1.09-0.56,1.28l-19.55,7.65c-0.12,0.05-0.24,0.07-0.36,0.07C282.97,189.05,282.59,188.81,282.44,188.42z" style="fill:#633535"></path>
      </g>
      <g>
        <path d="M305.17,196.06c0.04,0.55-0.37,1.02-0.91,1.06l-17,1.27c-0.03,0-0.05,0-0.08,0c-0.51,0-0.95-0.4-0.99-0.92
				c-0.04-0.55,0.37-1.02,0.91-1.06l17-1.27C304.65,195.11,305.13,195.51,305.17,196.06z" style="fill:#633535"></path>
      </g>
      <g>
        <path d="M302.56,210.1c-0.15,0.39-0.53,0.62-0.92,0.62c-0.12,0-0.25-0.02-0.37-0.07l-12.75-5.1
				c-0.51-0.2-0.76-0.78-0.55-1.29c0.2-0.51,0.78-0.75,1.29-0.55l12.75,5.1C302.51,209.02,302.76,209.59,302.56,210.1z" style="fill:#633535"></path>
      </g>
      <g>
        <path d="M140.14,188.63c-0.18,0-0.35-0.05-0.52-0.14l-17.42-10.62c-0.47-0.29-0.62-0.9-0.33-1.36
				c0.29-0.47,0.89-0.62,1.36-0.33l17.42,10.62c0.47,0.29,0.62,0.9,0.33,1.36C140.8,188.46,140.47,188.63,140.14,188.63z" style="fill:#633535"></path>
      </g>
      <g>
        <path d="M137.72,193.75c-0.08,0.48-0.5,0.82-0.98,0.82c-0.06,0-0.11,0-0.17-0.01l-14.87-2.55
				c-0.54-0.09-0.9-0.61-0.81-1.15c0.09-0.54,0.61-0.9,1.15-0.81l14.87,2.55C137.45,192.7,137.81,193.21,137.72,193.75z" style="fill:#633535"></path>
      </g>
      <g>
        <path d="M136.85,201.39c0.15,0.53-0.16,1.07-0.69,1.22l-10.62,2.97c-0.09,0.03-0.18,0.04-0.27,0.04
				c-0.43,0-0.83-0.29-0.95-0.72c-0.15-0.53,0.16-1.07,0.69-1.22l10.62-2.97C136.15,200.56,136.7,200.86,136.85,201.39z" style="fill:#633535"></path>
      </g>
      <g>
        <path d="M129.94,81.1c0.02,0,0.03,0,0.05,0c0.28-0.01,0.55-0.15,0.73-0.37c11.59-14.49,31.69-22.57,31.89-22.65
				c0.27-0.11,0.48-0.33,0.57-0.61c0.09-0.28,0.06-0.58-0.09-0.83c-14.62-24.08-35.21-21.32-35.42-21.29
				c-0.3,0.05-0.57,0.23-0.72,0.49c-15.07,26.69,2.1,44.77,2.28,44.95C129.42,81,129.67,81.1,129.94,81.1z" style="fill:#633535"></path>
      </g>
      <g>
        <path d="M128.43,37.27c3-0.23,19.72-0.5,32.35,19.42c-4.34,1.87-20.36,9.33-30.87,21.89
				C126.84,74.89,116.13,59.51,128.43,37.27z" style="fill:#ffa4af"></path>
      </g>
      <g>
        <path d="M297.89,58.94c0.23,0.08,22.7,8.56,31.35,24.61c0.14,0.27,0.4,0.45,0.7,0.51c0.06,0.01,0.11,0.02,0.17,0.02
				c0.24,0,0.48-0.09,0.66-0.25c0.5-0.45,12.26-11.4,3.27-43.08c-0.1-0.35-0.39-0.62-0.74-0.7c-0.22-0.05-22.52-4.57-35.91,17.45
				c-0.15,0.25-0.19,0.56-0.09,0.84C297.4,58.62,297.61,58.84,297.89,58.94z" style="fill:#633535"></path>
      </g>
      <g>
        <path d="M332.3,41.88c6.91,24.89,0.42,36.31-2.01,39.5c-8.3-14.02-25.9-21.94-30.57-23.85
				C311.33,39.49,328.83,41.31,332.3,41.88z" style="fill:#ffa4af"></path>
      </g>
      <g>
        <ellipse cx="108.76" cy="257.66" rx="19.71" ry="22.6" style="fill:#ffff39"></ellipse>
      </g>
      <g>
        <ellipse cx="108.76" cy="257.66" rx="15.74" ry="18.63" style="fill:#ffff39"></ellipse>
      </g>
    </g>
    <g id="tummy_00000060017928887792224520000002749233810046176926_">
      <path d="M240.16,273.27c0,0,24.64,3.54,25.32,49.05s-40.55,53.16-63.28,46.78l-13.47-3.81l-2.42-5.14
			c0,0-3.27-28.38-5.72-42.34c-2.45-13.96-16.15-33.43-16.15-33.43s16.3,7.85,36.06,9.31c19.76,1.47,29.59-8.45,32.32-9.87" style="fill:#fff5e9"></path>
    </g>
    <g id="corak_00000152976638198058679780000003755605466179814318_">
      <path d="M235.33,39.12l22.34,2.95c0,0,3.6,11.27,2.75,30.39s-18.7,38.25-43.77,25.92s-14.32-57.37-14.32-57.37
			 M269.6,45.17c0,0-8.41,35.37,4.37,34.95s14.49-19.74,7.26-34.95l-5.05,2.2 M184.99,45.17l-4.69-3.1
			c-4.46,2.76-9.56,37.19,4.46,34.64c14.02-2.55,3.96-29.32,3.96-29.32 M105.72,107.74l-4.67,16.03
			c16.57,17.31,38.25,9.47,35.7-6.26c-2.55-15.72-25.07-21.67-25.07-21.67 M98.31,135.77l-1.49,11.07l-0.39,9.36
			c0,0,17.36,6.37,16.19-5.53c-1.17-11.9-11.58-14.89-11.58-14.89 M348.81,97.54c0,0-23.8,9.35-27.2,22.95
			c-3.4,13.6,13.18,26.71,37.4,8.04l-2.64-10.86 M360.57,137.8c0,0-16.86,3.09-16.86,15.41s11.89,6.4,18.06,4.68v-8.58" style="fill:#dd9637"></path>
    </g>
    <g id="exp_00000183243144613721586210000004561755557273367968_">
      <path d="M164.72,171.17c-3.47,7.42-11.47,11-17.87,8.01s-8.77-11.43-5.3-18.85c3.47-7.42,11.47-11,17.87-8.01
			S168.19,163.75,164.72,171.17z M154.77,130.25c-0.3-0.58-0.8-1.14-1.45-1.34c-1.15-0.35-2.25-0.46-3.45-0.32
			c-0.56,0.06-1.1,0.24-1.63,0.42c-0.36,0.12-0.71,0.28-1.04,0.47c-0.32,0.14-0.58,0.34-0.79,0.6c-0.25,0.23-0.44,0.51-0.55,0.84
			c-0.14,0.34-0.19,0.68-0.14,1.04c-0.02,0.35,0.06,0.68,0.22,1c0.31,0.59,0.8,1.13,1.45,1.34c0.63,0.21,1.44,0.28,2.03-0.08
			c0.23-0.14,0.47-0.25,0.72-0.35c0.23-0.06,0.45-0.1,0.68-0.12c0.25,0.01,0.5,0.03,0.75,0.08c0.65,0.18,1.31,0.19,1.94-0.1
			c0.57-0.27,1.14-0.84,1.34-1.45C155.06,131.63,155.1,130.88,154.77,130.25z M257.22,169.25c2.06,7.93,9.27,12.91,16.11,11.14
			s10.71-9.64,8.65-17.57c-2.06-7.93-9.27-12.91-16.11-11.14C259.04,153.45,255.17,161.32,257.22,169.25z M269.43,132.39
			c0.08,0.63,0.54,1.3,1.05,1.67c0.56,0.4,1.22,0.51,1.89,0.45c0.25,0,0.5,0.02,0.75,0.06c0.22,0.07,0.44,0.15,0.65,0.24
			c0.22,0.14,0.44,0.3,0.64,0.47c0.52,0.46,1.33,0.54,1.98,0.45c0.68-0.09,1.26-0.53,1.67-1.05c0.22-0.28,0.35-0.6,0.4-0.94
			c0.11-0.34,0.13-0.69,0.05-1.04c-0.05-0.35-0.18-0.66-0.38-0.93c-0.16-0.3-0.38-0.55-0.67-0.74c-0.29-0.25-0.6-0.47-0.93-0.65
			c-0.5-0.27-0.99-0.54-1.53-0.71c-1.15-0.35-2.25-0.45-3.45-0.32c-0.68,0.08-1.26,0.54-1.67,1.05
			C269.44,130.96,269.33,131.71,269.43,132.39z" style="fill:#6b3419"></path>
    </g>
    <g id="_x30_5">
      <g>
        <g>
          <g>
            <path d="M165.6,237.3c-13.84,0-25.1-11.09-25.1-24.72s11.26-24.72,25.1-24.72s25.1,11.09,25.1,24.72
						S179.44,237.3,165.6,237.3z M165.6,191.83c-11.65,0-21.14,9.31-21.14,20.75s9.48,20.75,21.14,20.75s21.14-9.31,21.14-20.75
						S177.25,191.83,165.6,191.83z M66.76,237.1c-13.84,0-25.1-11.09-25.1-24.72s11.26-24.72,25.1-24.72s25.1,11.09,25.1,24.72
						S80.61,237.1,66.76,237.1z M66.76,191.63c-11.65,0-21.14,9.31-21.14,20.75c0,11.44,9.48,20.75,21.14,20.75
						s21.14-9.31,21.14-20.75C87.9,200.94,78.42,191.63,66.76,191.63z" style="fill:#6b3419"></path>
          </g>
          <g>
            <g>
              <path d="M112.62,295.67c-18.3,0-33.19-16.62-33.19-37.05s14.89-37.05,33.19-37.05s33.2,16.62,33.2,37.05
							S130.92,295.67,112.62,295.67z M112.62,225.54c-16.12,0-29.23,14.84-29.23,33.08s13.11,33.08,29.23,33.08
							s29.23-14.84,29.23-33.08S128.73,225.54,112.62,225.54z" style="fill:#6b3419"></path>
            </g>
            <g>
              <path d="M108.76,280.26c-10.87,0-19.71-10.14-19.71-22.6c0-12.46,8.84-22.6,19.71-22.6s19.71,10.14,19.71,22.6
							C128.47,270.12,119.63,280.26,108.76,280.26z M108.76,239.03c-8.68,0-15.74,8.36-15.74,18.63c0,10.27,7.06,18.63,15.74,18.63
							s15.74-8.36,15.74-18.63C124.51,247.39,117.44,239.03,108.76,239.03z" style="fill:#6b3419"></path>
            </g>
          </g>
          <g>
            <g>
              <path d="M201.77,389.14c-0.02,0-0.04,0-0.06,0c-5.87-0.19-9.74-0.85-11.83-2.01c-7.02-3.9-7.84-22.71-8.28-50.96
							l-0.06-3.92c-0.37-22.23-9.61-36.97-9.71-37.11l-7.4-10.76c-0.62-0.9-0.39-2.14,0.51-2.76c0.9-0.62,2.14-0.39,2.76,0.51
							l7.43,10.82c0.44,0.69,9.98,15.82,10.37,39.24l0.06,3.92c0.29,18.77,0.69,44.47,6.24,47.55c0.85,0.47,3.28,1.3,10.03,1.51
							c1.09,0.04,1.95,0.95,1.92,2.05C203.72,388.3,202.84,389.14,201.77,389.14z" style="fill:#6b3419"></path>
            </g>
            <g>
              <path d="M147.22,447.11H41.02c-0.94,0-1.76-0.67-1.94-1.59c-0.84-4.19-1.27-8.47-1.27-12.72
							c0-33.18,25.26-60.17,56.32-60.17c31.05,0,56.31,26.99,56.31,60.17c0,4.25-0.43,8.53-1.27,12.72
							C148.98,446.44,148.16,447.11,147.22,447.11z M42.67,443.14h102.9c0.59-3.42,0.9-6.89,0.9-10.35
							c0-30.99-23.48-56.2-52.35-56.2c-28.86,0-52.35,25.21-52.35,56.2C41.77,436.25,42.07,439.72,42.67,443.14z" style="fill:#6b3419"></path>
            </g>
            <g>
              <path d="M408.17,447.11H41.02c-1.1,0-1.98-0.89-1.98-1.98s0.89-1.98,1.98-1.98h365.66
							c1.63-5.86,7.29-30.39-1.21-63.41c-9.49-36.85-29.63-38.96-29.83-38.98c-0.15-0.01-0.31-0.04-0.45-0.09l-6.16-1.97
							c-1.04-0.33-1.62-1.45-1.29-2.49c0.33-1.04,1.45-1.62,2.49-1.29l5.97,1.91c2.7,0.31,23.33,3.92,33.11,41.92
							c10.05,39.04,1.11,65.9,0.73,67.03C409.77,446.57,409.01,447.11,408.17,447.11z" style="fill:#6b3419"></path>
            </g>
            <g>
              <path d="M429.36,420.52c-0.03,0-0.07,0-0.1,0l-15.03-0.77c-1.09-0.06-1.93-0.99-1.88-2.08
							c0.06-1.09,1-1.92,2.08-1.88l12.94,0.66v-10.62c-6.14-0.15-12.44-0.18-13.43,0.01c-1.07,0.21-2.12-0.49-2.33-1.56
							c-0.21-1.07,0.48-2.11,1.55-2.33c1.99-0.4,12.94-0.13,16.24-0.04c1.07,0.03,1.93,0.91,1.93,1.98v14.64
							c0,0.54-0.22,1.06-0.62,1.44C430.35,420.33,429.86,420.52,429.36,420.52z" style="fill:#6b3419"></path>
            </g>
            <g>
              <path d="M475.76,429.99c-2.89,0-5.44-1.27-7.18-3.77c-2.94-4.2-3.22-7.5-3.42-9.91
							c-0.19-2.27-0.23-2.68-1.79-3.24c-1.36-0.48-3.58-0.35-5.93-0.22c-5.58,0.32-13.22,0.77-17.48-6.85
							c-0.37-0.66-0.33-1.47,0.09-2.09c0.42-0.62,1.16-0.95,1.91-0.85l0,0c0.13,0.02,12.97,1.68,19.49-5.18
							c3.49-3.67,2.53-5.52,0.61-9.19c-1.3-2.49-2.91-5.58-3.08-9.78c-0.31-7.68,8.35-13.55,14.72-14.84
							c4.39-0.89,7.67,0.34,8.77,3.27c1.33,3.56,0.71,7.1,0.25,9.69c-0.12,0.67-0.27,1.52-0.31,2.08c0.66-0.18,1.6-0.75,2.45-1.27
							c2.68-1.64,6.73-4.11,11.23-0.57c3.58,2.81,5.58,6.72,5.35,10.45c-0.11,1.79-0.73,3.43-1.8,4.84c3.9,0.9,5.63,3.84,6.39,6.55
							c1.74,6.22,0.74,12.13-2.61,15.42c-2.46,2.42-5.83,3.14-9.5,2.04c-4.55-1.36-6.34-0.72-6.62-0.38
							c-0.12,0.15-0.1,0.76,0.45,1.77c1.79,3.28-1.21,7.43-5.1,9.84C480.29,429.28,477.93,429.99,475.76,429.99z M460.54,408.77
							c1.51,0,2.93,0.13,4.17,0.57c3.96,1.42,4.2,4.19,4.41,6.64c0.18,2.18,0.39,4.64,2.72,7.97c2.74,3.92,7.75,1.1,8.72,0.5
							c2.88-1.79,3.99-4.06,3.71-4.57c-1.77-3.24-0.79-5.26-0.05-6.17c1.24-1.53,4.13-2.93,10.84-0.92c2.25,0.67,4.18,0.3,5.58-1.07
							c2.29-2.25,2.91-6.77,1.57-11.52c-1.16-4.14-4.16-4.24-7.22-3.74c-0.55,0.09-2.23,0.37-2.81-1.22
							c-0.59-1.61,0.55-2.3,2.44-3.43c1.76-1.06,2.75-2.55,2.86-4.3c0.15-2.39-1.32-5.1-3.84-7.08c-2.23-1.75-3.92-0.87-6.71,0.83
							c-1.69,1.03-3.44,2.11-5.39,1.89c-1.29-0.14-2.01-0.78-2.39-1.29c-1.06-1.41-0.73-3.3-0.34-5.48c0.4-2.25,0.89-5.06-0.06-7.6
							c-0.42-1.12-2.56-1.12-4.27-0.78c-4.96,1-11.75,5.59-11.54,10.79c0.13,3.31,1.4,5.75,2.63,8.11
							c2.06,3.95,4.19,8.03-1.25,13.76c-5.16,5.44-13.05,6.53-18.1,6.61c3.06,2.12,7.07,1.88,10.99,1.66
							C458.35,408.84,459.47,408.77,460.54,408.77z" style="fill:#6b3419"></path>
            </g>
          </g>
          <g>
            <g>
              <g>
                <path d="M93.74,498.36c-27.44,0-49.76-21.81-49.76-48.61c0-1.26,0.05-2.54,0.15-3.81
								c0.09-1.09,1.04-1.91,2.13-1.82c1.09,0.09,1.91,1.04,1.82,2.13c-0.09,1.16-0.14,2.33-0.14,3.49
								c0,24.62,20.54,44.64,45.8,44.64s45.8-20.03,45.8-44.64c0-1.23-0.05-2.47-0.15-3.69c-0.09-1.09,0.72-2.05,1.81-2.14
								c1.07-0.09,2.05,0.72,2.14,1.81c0.11,1.33,0.17,2.68,0.17,4.02C143.5,476.55,121.18,498.36,93.74,498.36z" style="fill:#6b3419"></path>
              </g>
              <g>
                <path d="M94.12,476.78c-14.27,0-25.87-11.87-25.87-26.45c0-1.47,0.12-2.94,0.35-4.37
								c0.18-1.08,1.19-1.81,2.28-1.64c1.08,0.18,1.81,1.2,1.64,2.28c-0.2,1.23-0.3,2.48-0.3,3.74c0,12.4,9.83,22.49,21.91,22.49
								s21.91-10.09,21.91-22.49c0-1.31-0.11-2.63-0.33-3.91c-0.18-1.08,0.54-2.1,1.62-2.29c1.07-0.18,2.1,0.54,2.29,1.62
								c0.26,1.5,0.39,3.04,0.39,4.58C120,464.91,108.39,476.78,94.12,476.78z" style="fill:#6b3419"></path>
              </g>
            </g>
            <g>
              <g>
                <path d="M349.85,498.36c-27.44,0-49.76-21.81-49.76-48.61c0-1.27,0.05-2.55,0.15-3.81
								c0.09-1.09,1.02-1.9,2.14-1.82c1.09,0.09,1.91,1.04,1.82,2.13c-0.09,1.15-0.14,2.33-0.14,3.49
								c0,24.62,20.54,44.64,45.8,44.64s45.8-20.03,45.8-44.64c0-1.23-0.05-2.47-0.15-3.69c-0.09-1.09,0.72-2.05,1.81-2.14
								c1.1-0.09,2.05,0.72,2.14,1.81c0.11,1.33,0.17,2.68,0.17,4.02C399.62,476.55,377.29,498.36,349.85,498.36z" style="fill:#6b3419"></path>
              </g>
              <g>
                <path d="M350.24,476.78c-14.27,0-25.87-11.87-25.87-26.45c0-1.46,0.12-2.93,0.35-4.37
								c0.18-1.08,1.2-1.82,2.28-1.64c1.08,0.18,1.82,1.19,1.64,2.28c-0.2,1.23-0.3,2.49-0.3,3.74c0,12.4,9.83,22.49,21.91,22.49
								c12.08,0,21.91-10.09,21.91-22.49c0-1.32-0.11-2.63-0.33-3.91c-0.18-1.08,0.54-2.1,1.62-2.29c1.09-0.18,2.1,0.54,2.29,1.62
								c0.26,1.5,0.39,3.04,0.39,4.58C376.11,464.91,364.5,476.78,350.24,476.78z" style="fill:#6b3419"></path>
              </g>
            </g>
          </g>
          <g>
            <g>
              <path d="M57.51,389.44c-0.88,0-1.68-0.58-1.91-1.47c-0.32-1.19-7.74-29.66-1.59-73.23
							c2.47-17.51,8.17-29.13,16.92-34.56c8.3-5.14,16.16-2.61,16.49-2.5c1.04,0.35,1.6,1.47,1.25,2.51
							c-0.35,1.04-1.47,1.6-2.5,1.26l0,0c-0.26-0.08-6.54-2.04-13.23,2.15c-7.56,4.73-12.75,15.69-15.01,31.69
							c-6.03,42.71,1.42,71.37,1.49,71.65c0.28,1.06-0.35,2.15-1.4,2.43C57.86,389.42,57.68,389.44,57.51,389.44z" style="fill:#6b3419"></path>
            </g>
            <g>
              <path d="M121.22,380.7c-0.04,0-0.09,0-0.13,0c-1.09-0.07-1.92-1.02-1.85-2.11c0.03-0.46,2.99-46.47-2.44-60.28
							c-2.97-7.57-8.52-9.25-11.56-9.57c-4.64-0.5-9.44,1.48-11.66,4.81c-3.48,5.22-3.22,38.59-2.24,58.4
							c0.05,1.09-0.79,2.02-1.88,2.08c-1.1,0.03-2.03-0.79-2.08-1.88c-0.27-5.38-2.45-52.78,2.9-60.8
							c3.05-4.58,9.23-7.22,15.38-6.55c6.7,0.72,12.1,5.12,14.83,12.07c5.75,14.63,2.83,60.07,2.7,61.99
							C123.13,379.9,122.26,380.7,121.22,380.7z" style="fill:#6b3419"></path>
            </g>
          </g>
        </g>
        <g>
          <g>
            <path d="M200.49,297.56c-23.59,0-42.78-13.95-42.78-31.1c0-17.15,19.19-31.09,42.78-31.09s42.78,13.95,42.78,31.09
						C243.27,283.61,224.08,297.56,200.49,297.56z M200.49,239.34c-21.4,0-38.82,12.17-38.82,27.13c0,14.96,17.41,27.13,38.82,27.13
						c21.4,0,38.82-12.17,38.82-27.13C239.3,251.51,221.89,239.34,200.49,239.34z" style="fill:#6b3419"></path>
          </g>
          <g>
            <path d="M35.59,287.79c-16.79,0-30.46-12.33-30.46-27.48c0-15.15,13.66-27.48,30.46-27.48
						c16.79,0,30.46,12.33,30.46,27.48C66.05,275.46,52.39,287.79,35.59,287.79z M35.59,236.79c-14.61,0-26.49,10.55-26.49,23.52
						c0,12.97,11.88,23.52,26.49,23.52c14.61,0,26.49-10.55,26.49-23.52C62.08,247.34,50.2,236.79,35.59,236.79z" style="fill:#6b3419"></path>
          </g>
        </g>
        <g>
          <g>
            <path d="M161.82,278.86c-0.06,0-0.11,0-0.17-0.01l-20.4-1.7c-1.09-0.09-1.9-1.05-1.81-2.14
						c0.09-1.09,1.04-1.89,2.14-1.81l20.4,1.7c1.09,0.09,1.9,1.05,1.81,2.14C163.71,278.08,162.84,278.86,161.82,278.86z" style="fill:#6b3419"></path>
          </g>
          <g>
            <path d="M82.34,249.54c-0.01,0-0.03,0-0.04,0l-21.25-0.43c-1.1-0.02-1.96-0.93-1.94-2.02
						c0.02-1.1,0.92-1.98,2.02-1.94l21.25,0.43c1.1,0.02,1.96,0.93,1.94,2.02C84.3,248.68,83.42,249.54,82.34,249.54z" style="fill:#6b3419"></path>
          </g>
          <g>
            <path d="M83.62,276.31c-0.06,0-0.13,0-0.19-0.01l-22.52-2.13c-1.09-0.1-1.89-1.07-1.79-2.16
						c0.1-1.09,1.07-1.89,2.16-1.79l22.52,2.13c1.09,0.1,1.89,1.07,1.79,2.16C85.5,275.54,84.63,276.31,83.62,276.31z" style="fill:#6b3419"></path>
          </g>
          <g>
            <path d="M66.62,246.99c-0.84,0-1.62-0.54-1.89-1.38l-2.97-9.35c-0.33-1.04,0.24-2.16,1.29-2.49
						c1.05-0.33,2.16,0.24,2.49,1.29l2.97,9.35c0.33,1.04-0.24,2.16-1.29,2.49C67.02,246.96,66.82,246.99,66.62,246.99z" style="fill:#6b3419"></path>
          </g>
          <g>
            <path d="M80.22,249.54c-0.82,0-1.58-0.51-1.87-1.32l-4.67-13.17c-0.37-1.03,0.17-2.17,1.21-2.53
						c1.03-0.37,2.17,0.17,2.53,1.21l4.67,13.17c0.37,1.03-0.17,2.17-1.21,2.53C80.66,249.5,80.44,249.54,80.22,249.54z" style="fill:#6b3419"></path>
          </g>
          <g>
            <path d="M166.49,252.09c-0.05,0-0.1,0-0.15-0.01l-22.52-1.7c-0.64-0.05-1.22-0.41-1.55-0.96
						c-0.33-0.55-0.37-1.24-0.11-1.83l7.22-16.15c0.45-1,1.62-1.45,2.62-1c1,0.45,1.45,1.62,1,2.62l-6.07,13.57l19.71,1.49
						c1.09,0.08,1.91,1.03,1.83,2.13C168.39,251.3,167.52,252.09,166.49,252.09z" style="fill:#6b3419"></path>
          </g>
          <g>
            <path d="M156.71,251.67c-0.31,0-0.62-0.07-0.91-0.22c-0.97-0.5-1.36-1.7-0.85-2.67l7.22-14.02
						c0.5-0.97,1.7-1.36,2.67-0.85c0.97,0.5,1.36,1.7,0.85,2.67l-7.22,14.02C158.13,251.27,157.43,251.67,156.71,251.67z" style="fill:#6b3419"></path>
          </g>
        </g>
        <g>
          <path d="M210.26,188.77c-0.17,0-0.34-0.02-0.5-0.06c-2.84-0.74-12.17-3.55-13.06-8.5
					c-0.26-1.43,0.07-3.57,3.07-5.67c6.08-4.26,15.39-5.39,21.19-2.59c2.98,1.44,4.71,3.8,4.88,6.64
					c0.43,7.26-9.52,9.81-15.46,10.17C210.34,188.77,210.3,188.77,210.26,188.77z M213.33,174.37c-3.67,0-7.88,1.04-11.28,3.41
					c-0.96,0.67-1.51,1.33-1.44,1.72c0.29,1.63,5.35,4.05,9.85,5.28c3.36-0.27,11.67-1.82,11.43-5.96c-0.08-1.38-0.97-2.5-2.65-3.31
					C217.71,174.78,215.62,174.37,213.33,174.37z" style="fill:#6b3419"></path>
        </g>
        <g>
          <path d="M211.11,197.69c-1.01,0-1.87-0.77-1.97-1.8l-0.85-8.92c-0.1-1.09,0.7-2.06,1.79-2.16
					c1.11-0.1,2.06,0.7,2.16,1.79l0.85,8.92c0.1,1.09-0.7,2.06-1.79,2.16C211.24,197.69,211.17,197.69,211.11,197.69z" style="fill:#6b3419"></path>
        </g>
        <g>
          <path d="M187.74,239.77c-0.08,0-0.15,0-0.23-0.01l-14.87-1.7c-1.09-0.12-1.87-1.11-1.75-2.2
					c0.12-1.09,1.11-1.87,2.2-1.75l14.87,1.7c1.09,0.12,1.87,1.11,1.75,2.2C189.59,239.02,188.74,239.77,187.74,239.77z" style="fill:#6b3419"></path>
        </g>
        <g>
          <path d="M243.18,243.36c-6.06,0-12.26-0.21-18.6-0.62c-1.09-0.07-1.92-1.02-1.85-2.11
					c0.07-1.09,1.01-1.92,2.11-1.85c35.35,2.31,66.42-1.95,89.85-12.32c23.82-10.55,38.62-27.05,42.79-47.72
					c8.69-43.01-10.24-79.92-10.44-80.29c-0.27-0.52-0.3-1.14-0.07-1.68c17.46-41.76-2.03-68.69-5.18-72.63
					c-19.32-3.39-35.69-0.34-48.66,9.06c-9.8,7.1-13.9,15.39-13.94,15.48c-0.45,0.92-1.52,1.35-2.48,1
					c-48.81-18.2-92.1-2.29-92.53-2.13c-0.78,0.3-1.67,0.07-2.22-0.57c-28.99-34.26-57.27-29.5-61.86-28.45
					c-24.35,36.66-6.83,76.09-6.65,76.49c0.26,0.56,0.24,1.21-0.05,1.76c-0.27,0.5-26.52,50.62-8.87,89.62
					c17.52,38.71,44.01,41.74,44.28,41.77c1.09,0.11,1.89,1.07,1.78,2.16c-0.1,1.09-1.07,1.88-2.15,1.79
					c-1.17-0.11-28.99-3.13-47.52-44.08c-17.39-38.42,4.95-85.2,8.54-92.28c-2.57-6.35-16.32-44.52,7.77-80.07
					c0.25-0.37,0.63-0.65,1.06-0.78c1.34-0.41,32.94-9.55,65.81,28.48c7.7-2.53,47.61-14.07,92.37,1.99
					c1.73-2.93,6.14-9.4,14.14-15.25c9.67-7.06,26.64-14.49,52.58-9.75c0.43,0.08,0.83,0.3,1.12,0.63c0.27,0.3,6.71,7.6,10.73,20.83
					c3.64,12,5.85,31.35-4.08,55.65c2.82,5.87,18.61,41.35,10.39,82.06c-4.44,21.99-20.03,39.47-45.07,50.56
					C296.52,238.85,271.51,243.36,243.18,243.36z" style="fill:#6b3419"></path>
        </g>
        <g>
          <path d="M332.23,288.64c-0.92,0-1.74-0.64-1.94-1.58c-6.4-30.39-23.71-50.17-25.76-51.78
					c-0.84-0.45-1.26-1.45-0.95-2.38c0.35-1.04,1.47-1.6,2.51-1.25c2.07,0.69,21.13,21.54,28.09,54.6c0.23,1.07-0.46,2.12-1.53,2.35
					C332.51,288.63,332.37,288.64,332.23,288.64z M304.83,235.41L304.83,235.41L304.83,235.41z" style="fill:#6b3419"></path>
        </g>
        <g>
          <path d="M248.49,427.3c-12.69,0-25.16-3.88-34-11.16c-8.68-7.15-18.12-20.82-14.54-45.55l-2.7-0.67l-0.73,15.01
					c-0.05,1.09-0.98,1.94-2.08,1.88c-1.09-0.05-1.94-0.98-1.88-2.08l0.85-17.42c0.03-0.59,0.32-1.14,0.8-1.5
					c0.48-0.35,1.09-0.48,1.66-0.33l6.8,1.7c1,0.25,1.65,1.23,1.48,2.25c-3.17,19,1.29,34.09,12.87,43.65
					c14.81,12.21,36.7,12.12,50.77,6.87c26.73-9.97,24.25-36.77,24.22-37.03c-0.11-1.02,0.59-1.96,1.6-2.15
					c0.21-0.04,21.36-4.36,32.22-23.67c11-19.55,8.31-35.06,8.28-35.22c-0.2-1.08,0.51-2.11,1.59-2.31c1.07-0.2,2.11,0.51,2.31,1.59
					c0.13,0.69,2.97,17.09-8.72,37.88c-10.07,17.9-27.72,23.78-33.25,25.23c0.09,6.6-1.47,29.93-26.86,39.4
					C262.6,426.11,255.51,427.3,248.49,427.3z" style="fill:#6b3419"></path>
        </g>
        <g>
          <path d="M329.81,360.07c-0.76,0-1.53-0.01-2.31-0.04c-1.09-0.03-1.96-0.95-1.92-2.04c0.03-1.07,0.91-1.92,1.98-1.92
					c0.02,0,0.04,0,0.06,0c17.05,0.53,29.79-5.02,35.87-15.6c6.02-10.49,4.97-24.68-2.76-37.04c-5.87-9.4-12.45-14.54-19.02-14.88
					c-5.98-0.31-11.08,3.4-13.86,6.97c-3.5,4.5-4.56,12.62-2.33,17.75c1.11,2.54,2.85,3.93,5.18,4.13
					c6.27,0.55,10.37,1.45,12.77,4.44c1.82,2.26,2.38,5.47,1.77,10.12c-1.47,11.26-9.16,11.9-9.49,11.92
					c-1.08,0.06-2.04-0.75-2.11-1.85c-0.07-1.08,0.74-2.02,1.82-2.11c0.26-0.03,4.82-0.63,5.84-8.48c0.46-3.5,0.16-5.76-0.93-7.12
					c-1.51-1.88-4.96-2.53-10.02-2.97c-3.78-0.33-6.79-2.64-8.47-6.5c-2.79-6.4-1.53-16.17,2.83-21.77
					c1.65-2.12,7.76-8.96,17.19-8.5c8.03,0.41,15.5,6.04,22.18,16.74c8.5,13.61,9.59,29.36,2.84,41.12
					C360.37,353.86,347.24,360.07,329.81,360.07z" style="fill:#6b3419"></path>
        </g>
        <g>
          <path d="M304.61,381.29c-1.06,0-1.94-0.84-1.98-1.91c-0.04-1.09,0.82-2.01,1.91-2.05
					c0.37-0.01,36.86-1.35,55.87-8.79c17.83-6.98,14.53-26.93,14.49-27.13c-0.19-1.08,0.53-2.11,1.61-2.3
					c1.08-0.19,2.11,0.53,2.3,1.61c0.04,0.23,3.87,23.37-16.96,31.52c-19.64,7.69-55.65,9.01-57.18,9.06
					C304.66,381.29,304.63,381.29,304.61,381.29z" style="fill:#6b3419"></path>
        </g>
      </g>
      <g>
        <g>
          <path d="M283.36,189.05c-0.4,0-0.77-0.24-0.92-0.63c-0.2-0.51,0.05-1.09,0.56-1.28l19.55-7.65
					c0.51-0.2,1.08,0.05,1.29,0.56c0.2,0.51-0.05,1.09-0.56,1.28l-19.55,7.65C283.6,189.03,283.48,189.05,283.36,189.05z" style="fill:#6b3419"></path>
        </g>
        <g>
          <path d="M287.19,198.4c-0.51,0-0.95-0.4-0.99-0.92c-0.04-0.55,0.37-1.02,0.91-1.06l17-1.28
					c0.54-0.04,1.02,0.37,1.06,0.91c0.04,0.55-0.37,1.02-0.91,1.06l-17,1.28C287.24,198.4,287.21,198.4,287.19,198.4z" style="fill:#6b3419"></path>
        </g>
        <g>
          <path d="M301.64,210.73c-0.12,0-0.25-0.02-0.37-0.07l-12.75-5.1c-0.51-0.2-0.76-0.78-0.55-1.29
					c0.2-0.51,0.79-0.75,1.29-0.55l12.75,5.1c0.51,0.2,0.76,0.78,0.55,1.29C302.4,210.49,302.03,210.73,301.64,210.73z" style="fill:#6b3419"></path>
        </g>
        <g>
          <path d="M140.14,188.63c-0.18,0-0.35-0.05-0.52-0.14l-17.42-10.62c-0.47-0.29-0.62-0.9-0.33-1.36
					c0.28-0.47,0.89-0.62,1.36-0.33l17.42,10.62c0.47,0.29,0.62,0.9,0.33,1.36C140.8,188.46,140.47,188.63,140.14,188.63z" style="fill:#6b3419"></path>
        </g>
        <g>
          <path d="M136.74,194.58c-0.06,0-0.11,0-0.17-0.01l-14.87-2.55c-0.54-0.09-0.9-0.61-0.81-1.15
					c0.09-0.54,0.6-0.9,1.15-0.81l14.87,2.55c0.54,0.09,0.9,0.61,0.81,1.15C137.64,194.23,137.22,194.58,136.74,194.58z" style="fill:#6b3419"></path>
        </g>
        <g>
          <path d="M125.27,205.63c-0.43,0-0.83-0.29-0.95-0.72c-0.15-0.53,0.16-1.07,0.69-1.22l10.62-2.97
					c0.52-0.15,1.07,0.16,1.22,0.69c0.15,0.53-0.16,1.07-0.69,1.22l-10.62,2.97C125.44,205.61,125.35,205.63,125.27,205.63z" style="fill:#6b3419"></path>
        </g>
        <g>
          <path d="M129.94,81.1c-0.27,0-0.52-0.11-0.71-0.3c-0.18-0.18-17.34-18.27-2.28-44.95c0.15-0.27,0.41-0.45,0.72-0.49
					c0.2-0.03,20.8-2.79,35.42,21.29c0.15,0.25,0.18,0.55,0.09,0.83c-0.09,0.28-0.3,0.5-0.57,0.61c-0.2,0.08-20.3,8.16-31.89,22.65
					c-0.18,0.22-0.44,0.36-0.73,0.37C129.97,81.1,129.96,81.1,129.94,81.1z M128.43,37.27c-12.3,22.24-1.59,37.61,1.48,41.31
					c10.52-12.56,26.53-20.02,30.87-21.89C148.15,36.77,131.43,37.05,128.43,37.27z" style="fill:#6b3419"></path>
        </g>
        <g>
          <path d="M330.11,84.08c-0.06,0-0.11,0-0.17-0.02c-0.3-0.05-0.56-0.24-0.7-0.51c-8.65-16.06-31.12-24.53-31.35-24.61
					c-0.28-0.1-0.49-0.32-0.59-0.6c-0.1-0.28-0.06-0.59,0.09-0.84c13.39-22.02,35.68-17.5,35.91-17.45c0.36,0.08,0.64,0.35,0.74,0.7
					c8.99,31.68-2.76,42.63-3.27,43.08C330.59,83.99,330.35,84.08,330.11,84.08z M299.71,57.53c4.67,1.91,22.28,9.83,30.57,23.85
					c2.43-3.19,8.92-14.62,2.01-39.5C328.83,41.31,311.33,39.49,299.71,57.53z" style="fill:#6b3419"></path>
        </g>
      </g>
    </g>
  </g>
</svg>
