<svg xmlns="http://www.w3.org/2000/svg" viewBox="0 0 48 48" id="doctor">
  <g>
    <path fill="#62355c" d="M34.2,14a.68.68,0,0,0-.2,0H14a.68.68,0,0,0-.2,0,1,1,0,0,0-.8,1v7a8.51,8.51,0,0,0,0,.88,11,11,0,0,0,4.74,8.19h0a7.8,7.8,0,0,0,.71.46,11,11,0,0,0,11,0,7.8,7.8,0,0,0,.71-.46h0A11,11,0,0,0,35,22.88,8.51,8.51,0,0,0,35,22V15A1,1,0,0,0,34.2,14ZM33,22a9,9,0,0,1-4.5,7.79,9.14,9.14,0,0,1-9,0A9,9,0,0,1,15,22V16H33Z"></path>
    <path fill="#fad9ba" d="M33,16v6a9,9,0,0,1-4.5,7.79,9.14,9.14,0,0,1-9,0A9,9,0,0,1,15,22V16Z"></path>
    <path fill="#62355c" d="M30.21,31.07A9.71,9.71,0,0,0,29,31H19a9.71,9.71,0,0,0-1.21.07A11,11,0,0,0,8,42v1a1,1,0,0,0,1,1H39a1,1,0,0,0,1-1V42A11,11,0,0,0,30.21,31.07ZM10,42a9,9,0,0,1,9-9H29a9,9,0,0,1,9,9Z"></path>
    <path fill="#65c5b4" d="M38,42H10a9,9,0,0,1,9-9H29A9,9,0,0,1,38,42Z"></path>
    <path fill="#62355c" d="M24 41a1 1 0 0 1-.89-.55l-4-8A1 1 0 0 1 20 31h8a1 1 0 0 1 .89 1.45l-4 8A1 1 0 0 1 24 41zm-2.38-8L24 37.76 26.38 33zM26.66 4H21.34A9.35 9.35 0 0 0 12 13.34V15a1 1 0 0 0 1 1H35a1 1 0 0 0 1-1V13.34A9.35 9.35 0 0 0 26.66 4zM14 14v-.66A7.34 7.34 0 0 1 21.34 6h5.32A7.34 7.34 0 0 1 34 13.34V14z"></path>
    <path fill="#65c5b4" d="M34,13.34V14H14v-.66A7.34,7.34,0,0,1,21.34,6h5.32A7.34,7.34,0,0,1,34,13.34Z"></path>
    <path fill="#ec7bb0" d="M26,11H22a1,1,0,0,1,0-2h4a1,1,0,0,1,0,2Z"></path>
    <path fill="#ec7bb0" d="M24,13a1,1,0,0,1-1-1V8a1,1,0,0,1,2,0v4A1,1,0,0,1,24,13Z"></path>
    <path fill="#62355c" d="M14,14a.68.68,0,0,0-.2,0,3.81,3.81,0,0,0-1.8.52A4,4,0,0,0,10,18v1a4,4,0,0,0,3,3.88A3.83,3.83,0,0,0,14,23a1,1,0,0,0,1-1V15A1,1,0,0,0,14,14Zm-2,5V18a2,2,0,0,1,1-1.73v4.46A2,2,0,0,1,12,19Z"></path>
    <path fill="#fad9ba" d="M13,16.27v4.46A2,2,0,0,1,12,19V18A2,2,0,0,1,13,16.27Z"></path>
    <path fill="#62355c" d="M36,14.54A3.81,3.81,0,0,0,34.2,14a.68.68,0,0,0-.2,0,1,1,0,0,0-1,1v7a1,1,0,0,0,1,1,3.83,3.83,0,0,0,1-.12A4,4,0,0,0,38,19V18A4,4,0,0,0,36,14.54ZM36,19a2,2,0,0,1-1,1.73V16.27A2,2,0,0,1,36,18Z"></path>
    <path fill="#fad9ba" d="M36,18v1a2,2,0,0,1-1,1.73V16.27A2,2,0,0,1,36,18Z"></path>
    <path fill="#938993" d="M20 41H19a1 1 0 0 1 0-2V35.5a2.5 2.5 0 0 0-5 0V39a1 1 0 0 1 0 2H13a1 1 0 0 1-1-1V35.5a4.5 4.5 0 0 1 9 0V40A1 1 0 0 1 20 41zM32 41a3 3 0 1 1 3-3A3 3 0 0 1 32 41zm0-4a1 1 0 1 0 1 1A1 1 0 0 0 32 37z"></path>
    <path fill="#938993" d="M32,37a1,1,0,0,1-1-1V32a1,1,0,0,1,2,0v4A1,1,0,0,1,32,37Z"></path>
  </g>
</svg>
