<svg xmlns="http://www.w3.org/2000/svg" viewBox="0 0 96 96" id="female-doctor">
  <g>
    <path fill="#f48251" d="M72.5,23.89V52.7a16,16,0,0,1-15.94,16H39.66a16,16,0,0,1-15.94-16V23.89a5.76,5.76,0,0,1,5.76-5.76H66.74A5.76,5.76,0,0,1,72.5,23.89Z"></path>
    <path fill="#f4c86f" d="M72.5,23.89V34.57a16,16,0,0,1-15.94,16H39.66a16,16,0,0,1-15.94-16V23.89a5.76,5.76,0,0,1,5.76-5.76H66.74A5.76,5.76,0,0,1,72.5,23.89Z"></path>
    <path fill="#a5afff" d="M81,95,75.46,77.79C73.71,72.13,69.49,68,64.4,67c-8-1.65-15.45-3.59-26.89-1.21L31.7,67c-5.09,1-9.32,5.18-11.07,10.84L15,95Z"></path>
    <path fill="#cdd7ff" d="M74.76,95H21.24l4.55-14c1.42-4.59,4.85-7.94,9-8.8L35.86,72a4.58,4.58,0,0,1,4.89,2.18l4.09,7a3.85,3.85,0,0,0,6.67,0l3.9-6.89A4.57,4.57,0,0,1,60.33,72l1,.2c4.13.86,7.55,4.21,9,8.8Z"></path>
    <polygon fill="#f4aa88" points="54.9 65.02 54.9 54.57 41.2 54.57 41.2 65.02 48.15 76.93 54.9 65.02"></polygon>
    <rect width="13.69" height="9.43" x="41.2" y="54.57" fill="#f4826a"></rect>
    <path fill="#f4826a" d="M70.58,39.93H25.52a4.34,4.34,0,0,1,0-8.68H70.58a4.34,4.34,0,1,1,0,8.68Z"></path>
    <path fill="#f4cda6" d="M48.05,59.86A20.16,20.16,0,0,1,27.9,39.7V30.56a20.15,20.15,0,1,1,40.3,0V39.7A20.16,20.16,0,0,1,48.05,59.86Z"></path>
    <path fill="#f4826a" d="M67.81,26.31H28.41a20.15,20.15,0,0,1,39.4,0Z"></path>
    <path fill="#70c2ef" d="M28,42a20.14,20.14,0,0,0,40,0l-17-3.39a16,16,0,0,0-6.2,0Z"></path>
    <path fill="#4d81ef" d="M68.12,42a20.14,20.14,0,0,1-40,0l.72-.14a20.14,20.14,0,0,0,38.58,0Z"></path>
    <path fill="#8ee0ff" d="M38.15,49.9a4.41,4.41,0,0,1,2-7.66c9-1.82,6.83-1.81,15.9,0a4.41,4.41,0,0,1,2,7.66A15.21,15.21,0,0,1,38.15,49.9Z"></path>
    <path fill="#fff" d="M54.9,44.87c-7.42-1.48-6.86-1.39-13.58,0"></path>
    <path fill="#302d3d" d="M54.9 45.87c-.14 0 .16.05-4-.78-3.44-.69-5.56 0-9.38.72a1 1 0 01-.4-2c7.42-1.49 7-1.36 14 0a1 1 0 01.79 1.17A1 1 0 0154.9 45.87zM56 36.59a1 1 0 01-1-1V34.7a1 1 0 012 0v.89A1 1 0 0156 36.59zM58.06 30.88H54a1 1 0 010-2h4.06a1 1 0 010 2zM40.07 36.59a1 1 0 01-1-1V34.7a1 1 0 012 0v.89A1 1 0 0140.07 36.59zM42.1 30.88H38a1 1 0 010-2H42.1a1 1 0 010 2zM31.29 83.38a1 1 0 01-1-1V75.23a17.84 17.84 0 0110.6-16.29 1 1 0 11.81 1.83 15.82 15.82 0 00-9.41 14.46v7.15A1 1 0 0131.29 83.38zM64.92 76.23a1 1 0 01-1-1 15.83 15.83 0 00-9.4-14.46A1 1 0 0154 59.45a1 1 0 011.32-.51A17.85 17.85 0 0165.92 75.23 1 1 0 0164.92 76.23z"></path>
    <path fill="#302d3d" d="M31.29 88.38a6 6 0 116-6A6 6 0 0131.29 88.38zm0-10a4 4 0 104 4A4 4 0 0031.29 78.38zM68 90.53a1 1 0 010-2 1.51 1.51 0 001.46-1.89l-2.28-8.71a2.29 2.29 0 00-4.42 0l-2.28 8.71a1.51 1.51 0 001.46 1.89 1 1 0 110 2 3.51 3.51 0 01-3.39-4.39l2.28-8.71a4.28 4.28 0 018.28 0l2.28 8.71A3.5 3.5 0 0168 90.53z"></path>
    <path fill="#cdd7ff" d="M69.14,23.31H27.07A3.35,3.35,0,0,1,23.72,20V12.31A9.63,9.63,0,0,1,31.2,3,73.58,73.58,0,0,1,65.33,3,9.48,9.48,0,0,1,72.5,12.3V20A3.35,3.35,0,0,1,69.14,23.31Z"></path>
    <path fill="#8c78ff" d="M72.39,12.3V20A3.35,3.35,0,0,1,69,23.31H27A3.35,3.35,0,0,1,23.61,20V12.31A9.63,9.63,0,0,1,31.09,3,73.58,73.58,0,0,1,65.22,3,9.48,9.48,0,0,1,72.39,12.3Z"></path>
    <path fill="#a5afff" d="M72.39,12.3v3.92A3.35,3.35,0,0,1,69,19.58H27a3.35,3.35,0,0,1-3.35-3.36V12.31A9.63,9.63,0,0,1,31.09,3,73.58,73.58,0,0,1,65.22,3,9.48,9.48,0,0,1,72.39,12.3Z"></path>
    <path fill="#cdd7ff" d="M62.78,23.31H33.22c-1.31,0-2.36-1.5-2.36-3.36V12.31C30.86,7.83,33.05,4,36.11,3A36.86,36.86,0,0,1,60.1,3c3,1,5,4.9,5,9.26V20C65.14,21.81,64.08,23.31,62.78,23.31Z"></path>
    <path fill="#aaafff" d="M30.86,19.92c0,1.66.9,3.39,2.36,3.39H62.78c1.3,0,2.36-1.5,2.36-3.36C65.14,19.85,66.77,19.92,30.86,19.92Z"></path>
    <path fill="#ebfaff" d="M65.14,12.3v5.2c0-4.36-2.06-8.24-5-9.26a36.86,36.86,0,0,0-24-.07c-3.06,1-5.25,4.86-5.25,9.34v-5.2C30.86,7.83,33.05,4,36.11,3A36.86,36.86,0,0,1,60.1,3C63.08,4.06,65.14,7.94,65.14,12.3Z"></path>
    <path fill="#302d3d" d="M48.11,16.88a1,1,0,0,1-1-1V8.43a1,1,0,0,1,2,0v7.45A1,1,0,0,1,48.11,16.88Z"></path>
    <path fill="#302d3d" d="M51.84 13.16H44.38a1 1 0 010-2h7.46a1 1 0 010 2zM58.38 66.72c-3.75-.79-4.05-.42-4.42-1.16a1 1 0 01-.06-.76V59a1 1 0 01.68-1.25 19.25 19.25 0 0012.61-17.8 1 1 0 011-1c2.56 0 3 .09 3.86-.35a1 1 0 011.45.9V52.7a16.91 16.91 0 01-9.13 15C63.91 68 63.93 67.88 58.38 66.72zM55.9 64.25c1.89.27 2.8.49 7.86 1.55A14.92 14.92 0 0071.5 52.7V40.85a12.87 12.87 0 01-2.35.08c0 .53-.15 1.74-.23 2.16a20.22 20.22 0 01-3.24 8.25 20.9 20.9 0 01-9.78 8zM32.28 67.83a1 1 0 01-.46-.11 16.91 16.91 0 01-9.1-15V39.54a1 1 0 01.46-.84c.74-.48 1 .23 2.34.23h2.39a1 1 0 011 1A19.27 19.27 0 0041.1 57.55l.55.21a1 1 0 01.68 1.3c-.18.53-.13-.86-.13 5.74a1 1 0 01-.82 1.3C37.58 66.58 32.85 67.83 32.28 67.83zm-7.56-27V52.7a14.91 14.91 0 007.71 13.08c4.84-1 5.89-1.26 7.77-1.53v-4.9A21.07 21.07 0 0127.06 42.13h0c0-.4-.09-.8-.11-1.2A14.91 14.91 0 0124.72 40.87zM72.5 32.71c-.53 0-.79-.46-1.92-.46H68.2a1 1 0 01-1-1 19.42 19.42 0 00-1.28-7.58 1 1 0 01.93-1.36h2.29a2.31 2.31 0 002-1.17 1 1 0 011.79.09c.75 1.72.54 2.57.54 10.48A1 1 0 0172.5 32.71zm-3.3-2.46a13.22 13.22 0 012.3.08c0-6.74 0-6.48 0-6.71a5.19 5.19 0 01-3.23.69A21.25 21.25 0 0169.2 30.25zm-46.48 1.4c0-8.24-.18-8.77.54-10.42a1 1 0 011.79-.09 2.32 2.32 0 002 1.17h2.18a1 1 0 01.93 1.36 19.48 19.48 0 00-1.28 7.58 1 1 0 01-1 1c-2.3 0-2.91-.1-3.75.3A1 1 0 0122.72 31.65zm2-8c0 .23 0 0 0 6.69a14.6 14.6 0 012.18-.06 21.25 21.25 0 01.94-5.94A4.94 4.94 0 0124.73 23.62z"></path>
    <path fill="#302d3d" d="M69.14 24.31H27.07A4.36 4.36 0 0122.72 20V12.31A10.59 10.59 0 0131 2a74.87 74.87 0 0134.59.07A10.42 10.42 0 0173.5 12.3V20A4.36 4.36 0 0169.14 24.31zM31.43 3.94a8.62 8.62 0 00-6.71 8.37c0 8.43-.1 8.12.31 8.8a2.35 2.35 0 002 1.2H69.14A2.36 2.36 0 0071.5 20V12.3A8.44 8.44 0 0065.1 4 73.08 73.08 0 0031.43 3.94zM15 96a1 1 0 01-.95-1.31l5.6-17.21c1.85-6 6.38-10.39 11.82-11.51 5.81-1.21 7.22-1.55 9.62-1.85a1 1 0 11.26 2c-2.44.31-3.76.64-9.48 1.83-4.73 1-8.68 4.87-10.32 10.15L16 95.31A1 1 0 0115 96zM81 96a1 1 0 01-1-.7L74.51 78.09c-1.64-5.3-5.59-9.19-10.31-10.16-5.84-1.21-7.19-1.54-9.48-1.83a1 1 0 11.26-2c2.45.31 3.89.66 9.62 1.85 5.44 1.12 10 5.54 11.82 11.53l5.5 17.2A1 1 0 0181 96z"></path>
    <path fill="#302d3d" d="M47.29,77.43l-7-11.93c-.18-.33-.12,0-.12-6.83a1,1,0,0,1,1.33-1,18.77,18.77,0,0,0,8.77,1,15.1,15.1,0,0,0,4.34-1,1,1,0,0,1,1.26,1c0,6.87.05,6.52-.13,6.84-2.75,4.84-1.15,2-6.75,11.91A1,1,0,0,1,47.29,77.43ZM42.2,64.75l5.94,10.17L53.9,64.76V60.07a21.72,21.72,0,0,1-11.7,0Z"></path>
    <path fill="#302d3d" d="M41.08 59.68h0a1.07 1.07 0 01-.86-1 1 1 0 011.44-.91l.07 0A1 1 0 0141.08 59.68zM54.86 59.68a1 1 0 01-.45-1.89 1 1 0 01.89 0A1 1 0 0154.86 59.68zM27.91 40.93c-2.2 0-3.25.14-4.6-.48a5.34 5.34 0 01-1.56-8.64 5.4 5.4 0 013.77-1.56H27.9a1 1 0 011 1c0 5.73 0 8.46 0 8.56A1 1 0 0127.91 40.93zm-4.76-7.69a3.34 3.34 0 001 5.39 6 6 0 002.77.3V32.25C25.44 32.25 24.32 32.1 23.15 33.24zM68.19 40.93a1 1 0 01-.75-.34c-.34-.39-.24.11-.24-9.34a1 1 0 011-1c2.31 0 3.38-.14 4.76.57a5.33 5.33 0 011.39 8.55C72.46 41.2 70.71 40.93 68.19 40.93zm1-2a5.64 5.64 0 002.85-.35 3.27 3.27 0 001.87-3 3.34 3.34 0 00-3.34-3.34H69.2z"></path>
    <path fill="#302d3d" d="M41.1 59.69h-.05c.43-1.24.45-1.29 0 0l-.07 0h0a1 1 0 01-.77-1 1 1 0 11.9 1zM54.86 59.68a1 1 0 01-.45-1.89 1 1 0 01.89 0A1 1 0 0154.86 59.68zM28.16 43.91a1 1 0 01-1-.84h0c0-.1-.09-.56-.13-1A1 1 0 0127.87 41a1 1 0 011.17.88 8.05 8.05 0 00.11.84h0A1 1 0 0128.16 43.91zm.07-.91h0zM67.94 43.91a1 1 0 01-1-1.16c0-.25.07-.49.11-.85A1 1 0 0168.25 41a1 1 0 01.8 1.08c0 .32-.07.63-.12 1A1 1 0 0167.94 43.91z"></path>
    <path fill="#302d3d" d="M28.05,43a1,1,0,0,1-1-.89c-.2-1.71-.16-1.72-.16-11.57A21,21,0,0,1,28.32,23a1,1,0,0,1,.93-.64h37.6a1,1,0,0,1,.93.64,21,21,0,0,1,1.42,7.61c0,8.5.07,9.61-.16,11.57a1,1,0,0,1-1.19.87L50.9,39.61a14.9,14.9,0,0,0-5.8,0C27.1,43.23,28.2,43,28.05,43Zm20-5.69c2.23,0,1.76,0,19.13,3.49.07-1.09,0-1.51,0-10.26a18.94,18.94,0,0,0-1-6.25H30c-1.32,3.81-1.05,5.63-1.05,15.39,0,.07,0,.8.05,1.12C46.11,37.38,45.79,37.33,48,37.33Z"></path>
    <path fill="#302d3d" d="M48.05,60.86a21.16,21.16,0,0,1-21-18.67,1.08,1.08,0,0,1,.8-1.15h0L44.7,37.66a16.8,16.8,0,0,1,6.59,0L68.23,41a1,1,0,0,1,.82,1.12C67.56,53.08,58.77,60.86,48.05,60.86Zm-18.89-18A19.19,19.19,0,0,0,50.3,58.72a17.63,17.63,0,0,0,4.14-.95,18.33,18.33,0,0,0,2.69-1.17,19.51,19.51,0,0,0,9.81-13.78l-16-3.21a14.9,14.9,0,0,0-5.8,0Z"></path>
  </g>
</svg>
