<svg xmlns="http://www.w3.org/2000/svg" enable-background="new 0 0 128 128" viewBox="0 0 128 128" id="map-alert">
  <path fill="#be90be" d="M121.7,115.8c1.7,0,3.2-0.8,4.2-2.1c1-1.3,1.3-3,0.8-4.6L111.1,56c-0.7-2.2-2.7-3.8-5-3.8H21.9c-2.3,0-4.4,1.6-5,3.8L1.2,109.1c-0.5,1.6-0.2,3.3,0.8,4.6c1,1.3,2.5,2.1,4.2,2.1H121.7z"></path>
  <path fill="#a76ba7" d="M125.9,113.7c-1,1.3-2.5,2.1-4.2,2.1H6.3c-1.7,0-3.2-0.8-4.2-2.1c-1-1.3-1.3-3-0.8-4.7l1.4-4.8c-0.1,1.3,0.2,2.5,1,3.6c1,1.3,2.5,2.1,4.1,2.1h112.5c1.6,0,3.1-0.7,4.1-2.1c0.8-1,1.1-2.3,1-3.6l1.4,4.8C127.3,110.7,126.9,112.4,125.9,113.7z"></path>
  <path fill="#d3b4d3" d="M112.9,62c-0.8-2-2.8-3.4-5-3.4H20.1c-2.2,0-4.1,1.3-5,3.2l1.7-5.8c0.6-2.2,2.7-3.8,5-3.8h84.2c2.3,0,4.4,1.5,5,3.8L112.9,62z"></path>
  <polygon fill="#d3d9d9" points="7.1 109.9 120.9 109.9 105.6 58.2 22.4 58.2"></polygon>
  <polygon fill="#e8eaea" points="107.1 63.4 20.9 63.4 22.4 58.2 105.6 58.2"></polygon>
  <polygon fill="#a8b2b4" points="120.9 109.9 7.1 109.9 8.7 104.7 119.3 104.7"></polygon>
  <path fill="#7bde9e" d="M76.4,79c0.6,3.6,5,4,7.8,4.2c4,0.3,8.1,0.9,11.7,2.8c1.4,0.7,2.7,1.6,4.1,2.3c4.6,2.3,9.9,2.5,15,1.7l-9.4-31.8H77.4c0.7,2.4,2.1,4.6,2.7,7c0.5,2,0.8,4.1,0,6c-0.5,1.4-1.5,2.5-2.4,3.7S76.1,77.5,76.4,79z"></path>
  <path fill="#fedd8e" d="M73,109.9h47.9l-4-13.4l-0.8,0.1c-2.2,0.3-4.4,0.5-6.4,0.5c-4.7,0-9-1-12.7-2.9c-0.9-0.5-1.7-0.9-2.4-1.3c-0.6-0.4-1.2-0.7-1.8-1c-2.6-1.3-5.9-1.8-9.1-2c-1.1-0.1-3.1-0.3-5.3-0.9c-1.3-0.4-2.8,0.6-2.7,2v0c0.2,2.1,2.6,3.4,3,5.4c0.4,1.9-1,3.6-2.4,4.8c-1.5,1.2-3.1,2.4-3.8,4.2C72,106.9,72.4,108.4,73,109.9z"></path>
  <path fill="#7bde9e" d="M7.1,109.9h53.1c1.6-2.3,2.7-5,3.7-7.7c1.4-3.6,2.9-7.2,3.4-11c0.4-3.3,0.1-6.9-1.6-9.9c-1.4-2.4-5.1-2.6-6.9-4.9c-0.7-0.8-1.1-1.9-1.6-2.8c-0.5-0.9-1.2-1.8-2.2-2.2c0,0,0,0,0,0c-0.9-0.3-1.9,0.3-2.2,1.2c-0.4,0.9-0.8,1.8-1.3,2.6c-1.4,2.6-3.3,4.9-5.5,6.9c-2.3,2.1-5,3.8-8,5c-1.4,0.6-2.8,1-4,1.4c-1.6,0.5-3,0.9-4,1.6c-1.1,0.7-2.4,2-3.6,3.3c0,0-0.1,0.1-0.1,0.1c-0.6,0.7-1.3,1.4-2.1,2.1c-3.1,3-6.4,4.9-9.7,5.5c-1.4,0.3-3.7,0.7-5,1.1l-0.1,0L7.1,109.9z"></path>
  <path fill="#fedd8e" d="M11.6,94.8c3,0.1,5.7-1.8,7.9-3.9c2.3-2.2,4.3-4.9,7-6.5c2.7-1.7,6-2.2,8.9-3.4c4.3-1.8,7.9-5,10.1-9c1.3-2.3,2.1-4.9,2.4-7.5c0.2-1.9,0.4-4.4-0.2-6.2c0,0,0-0.1,0-0.1H22.4L11.6,94.8z"></path>
  <g>
    <path fill="#a6ebbf" d="M107.1,63.4H79.5c-0.7-1.7-1.6-3.4-2.1-5.2h28.2L107.1,63.4z"></path>
    <path fill="#fdd367" d="M120.9,109.9H73c-0.6-1.5-0.9-3-0.4-4.4c0.1-0.3,0.2-0.5,0.4-0.8h46.4L120.9,109.9z"></path>
    <path fill="#51d27f" d="M62.9,104.7c-0.8,1.8-1.6,3.6-2.7,5.2H7.1l1.5-5.2H62.9z"></path>
    <path fill="#fee9b4" d="M48.1,63.4H20.9l1.5-5.2h25.3c0,0,0,0.1,0,0.1C48.3,59.8,48.3,61.7,48.1,63.4z"></path>
  </g>
  <g>
    <path fill="#fc898c" d="M86.7,33.5c0,5.2-1.9,10-5,13.7C75.3,54.9,70,63.5,66.4,73l-1,2.7l-1.6-4.3c-3.3-8.8-8.4-16.8-14.5-24c-3.4-4-5.4-9.2-5.2-14.9c0.5-11,9.4-19.9,20.4-20.3C76.7,11.7,86.7,21.4,86.7,33.5z"></path>
    <path fill="#fcb0b0" d="M75.2,14.6c-0.7,15.6-12.6,28.3-27.9,30.3c-2.3-3.6-3.5-7.8-3.3-12.4c0.5-11,9.4-19.9,20.4-20.3C68.4,12,72,12.9,75.2,14.6z"></path>
    <path fill="#f96364" d="M86.7,33.5c0,5.2-1.9,10-5,13.7C75.3,54.9,70,63.5,66.4,73l-1,2.7l-1.6-4.3c-2.5-6.6-6-12.8-10.2-18.5c15.9-2,28.2-15.7,28.2-32.1c0-0.3,0-0.5,0-0.8C84.9,23.6,86.7,28.3,86.7,33.5z"></path>
  </g>
  <g>
    <path fill="#fff" d="M70.1 23.7c0 .1 0 .3 0 .4l-1.6 17.3c-.1 1.6-1.5 2.8-3.1 2.8-.8 0-1.5-.3-2.1-.8-.5-.5-.9-1.2-1-2l-1.6-17.3c-.3-2.7 1.9-5.1 4.6-5.1C68 19 70.1 21.1 70.1 23.7zM68.2 50.7c0 1.6-1.3 2.8-2.8 2.8-1.6 0-2.8-1.3-2.8-2.8 0-1.6 1.3-2.8 2.8-2.8C66.9 47.9 68.2 49.1 68.2 50.7z"></path>
  </g>
  <g>
    <path fill="#e8eaea" d="M70.1 23.7c0 .1 0 .3 0 .4l-1.6 17.2c-.1 1.6-1.5 2.8-3.1 2.8-.8 0-1.5-.3-2.1-.8-.3-.3-.6-.6-.7-1 1.4-.1 2.6-1.3 2.7-2.8 0 0 1.6-17.5 1.6-17.7 0-1.1-.4-2-1-2.8C68.3 19.3 70.1 21.3 70.1 23.7zM68.2 50.7c0 1.6-1.3 2.8-2.8 2.8-1.1 0-2.1-.7-2.5-1.6.2.1.5.1.7.1 1.5 0 2.8-1.2 2.8-2.8 0-.4-.1-.8-.3-1.2C67.3 48.2 68.2 49.3 68.2 50.7z"></path>
  </g>
  <g>
    <path fill="#333" d="M127.7,108.8l-15.7-53.1c-0.8-2.6-3.3-4.5-6-4.5H79.8c3-4,7.9-8.6,7.9-17.7c0-12.6-10.5-22.8-23.2-22.3C53,11.7,43.6,21,43.1,32.5c-0.4,9.7,4.9,14.8,8,18.8H21.9c-2.7,0-5.2,1.8-6,4.5L0.3,108.8c-1.2,4,1.8,8,6,8h115.5C125.9,116.8,128.9,112.8,127.7,108.8z M45.1,32.6c0.5-10.4,9-19,19.5-19.4c11.6-0.5,21.2,8.7,21.2,20.3c0,4.8-1.7,9.4-4.7,13C69.6,60.1,66.2,71.1,65.4,72.8c-0.6-1.2-3.8-12.6-15.4-26.1C46.6,42.8,44.8,37.8,45.1,32.6z M76.6,59.2c0.8,2.5,4,7.8,2.5,11.6c-0.9,2.4-4.3,4.9-3.7,8.3c0.7,4.4,5.7,4.8,8.7,5c10.2,0.9,11.6,3.1,15.4,5c4.6,2.3,9.6,2.6,14.7,1.9l1.4,4.6c-7.1,1.1-13.2,0.3-18.3-2.3c-4.3-2.2-4.8-3.8-13.7-4.5c-1.1-0.1-3-0.3-5-0.8c-2.1-0.6-4.1,1-3.9,3.1c0.2,2.5,2.7,3.8,3,5.5c0.6,3.1-4.9,4.9-6.2,8.4c-0.4,1.1-0.4,2.4,0,3.8H62c2-3.5,5.7-12.5,6.4-17.5c0.4-2.8,0.4-6.9-1.7-10.6c-1.6-2.8-5.4-3-7-5c-1.1-1.3-1.8-4.5-4.3-5.3c-1.4-0.4-2.9,0.3-3.4,1.7c-1.4,3.3-3.6,6.5-6.5,9.2c-6.6,6-12.2,5.7-15.8,7.9c-3.9,2.4-7.3,9.4-15.2,11c-1.4,0.3-2.6,0.5-3.5,0.7l1.6-5.3c6.8-0.5,9.8-7.5,14.7-10.5c4.8-2.9,13.6-2.4,19.4-12.7c2.5-4.5,3.2-10.2,2.6-13.3h7.6c5.1,8.3,6.7,14.1,7.8,16.9c0.1,0.4,0.5,0.6,0.9,0.6c0.4,0,0.8-0.3,0.9-0.6c0.7-1.5,2.6-8.1,8-16.9H76.6z M79.7,96.3c-0.5-2.3-2.9-3.7-3-5.2c0-0.9,0.8-1.2,1.4-1.1c2.2,0.6,4.2,0.8,5.4,0.9c8.2,0.7,8.7,2.1,12.9,4.3c5.5,2.8,12.1,3.6,19.7,2.4l3.4,11.2H73.7c-0.4-1.2-0.5-2.2-0.2-3.1C74.6,102.6,80.7,101.2,79.7,96.3z M104.8,59.2l2.5,8.4l6.4,21.6c-5.3,0.7-9.6,0.1-13.2-1.7c-3.7-1.9-5.6-4.3-16.2-5.2c-3.3-0.3-6.5-0.8-6.9-3.4c0,0,0,0,0,0c-0.4-2.4,2.6-4.6,3.6-7.3c1.9-4.6-1.5-10.6-2.2-12.4H104.8z M8.5,108.9l1.7-5.7c1.5-0.4,3.7-0.8,4.5-1c8.7-1.7,12.5-9.2,15.9-11.2c3.1-1.9,9.3-1.9,16.1-8.1c3.1-2.9,5.5-6.3,7-9.9c0.2-0.4,0.6-0.7,1-0.6c0,0,0,0,0,0c1.6,0.5,2.1,3,3.4,4.6c1.9,2.4,5.6,2.7,6.8,4.7c1.8,3.2,1.8,6.8,1.5,9.3c-0.7,5-4.7,14.6-6.7,17.8H8.5z M23.2,59.2H47c0.6,2.5,0.1,8-2.3,12.4c-5.3,9.5-13.7,9-18.7,12c-4.8,2.9-7.7,9-13.1,10.1L19,73.1L23.2,59.2z M121.7,114.8H6.3c-2.8,0-4.9-2.7-4.1-5.5l15.6-53.1c0.5-1.8,2.2-3.1,4.1-3.1h30.7c1,1.3,1.9,2.6,2.7,3.9c-6,0-32.6,0-32.9,0c-0.3,0-0.6,0.2-0.8,0.5c-0.1,0.2-4.4,14.7-15.4,52c-0.2,0.6,0.3,1.3,1,1.3h113.7c0.6,0,1.1-0.5,1-1.2c-0.1-0.6,1.6,5.6-15.3-51.9c-0.1-0.4-0.5-0.7-1-0.7c-0.1,0-2.8,0-30,0c0.9-1.3,1.8-2.6,2.7-3.9h27.8c1.9,0,3.6,1.2,4.1,3l15.7,53.1C126.6,112.1,124.6,114.8,121.7,114.8z"></path>
    <path fill="#333" d="M65.4 45.2c2.1 0 3.9-1.6 4.1-3.7 1.7-18.4 1.6-17.3 1.6-17.8 0-3.1-2.5-5.7-5.7-5.7-3.3 0-5.9 2.9-5.6 6.2l1.6 17.3C61.5 43.5 63.3 45.2 65.4 45.2zM65.4 20c2 0 3.7 1.6 3.7 3.7 0 .2-.5 5.6-1.6 17.6-.1 1.1-1 1.9-2.1 1.9-1.1 0-2-.8-2.1-1.9L61.7 24C61.5 21.9 63.2 20 65.4 20zM69.2 50.7c0-2.1-1.7-3.8-3.8-3.8-2.1 0-3.8 1.7-3.8 3.8 0 2.1 1.7 3.8 3.8 3.8C67.5 54.5 69.2 52.8 69.2 50.7zM63.6 50.7c0-1 .8-1.8 1.8-1.8 1 0 1.8.8 1.8 1.8 0 1-.8 1.8-1.8 1.8C64.4 52.5 63.6 51.7 63.6 50.7z"></path>
  </g>
</svg>
