<svg xmlns="http://www.w3.org/2000/svg" xml:space="preserve" id="electric-guitar" x="0" y="0" style="enable-background:new 0 0 512 512" version="1.1" viewBox="0 0 512 512">
  <g id="_x31_2">
    <g id="outline_copy_00000052073301738573849160000008098950619053477781_">
      <g id="outline_00000007395842712799560230000016618186583718185909_">
        <g>
          <g>
            <path d="M203.59,340.5c-1.58,0-3.27-0.12-5.08-0.38c-22.35-3.19-36.23-13.6-42.44-31.81
						c-4.68-13.73-0.71-27.49,4.56-35.79c4.24-6.67,9.89-10.85,15.5-11.48c12.95-1.44,19.13,3.6,19.79,4.18
						c1.66,1.45,1.83,3.98,0.38,5.64c-1.45,1.66-3.98,1.83-5.64,0.38c-0.11-0.08-4.23-3.29-13.64-2.25
						c-3.15,0.35-6.75,3.27-9.63,7.81c-4.08,6.43-7.51,17.86-3.74,28.92c5.21,15.3,16.65,23.71,35.99,26.47
						c6.09,0.87,10.92-0.15,14.34-3.03c3.62-3.05,5-7.63,5.1-10.9c0.02-0.6,0.03-1.14,0.04-1.64c0.15-7.14,0.79-8.03,7.63-15.46
						l0.46-0.5c2.67-2.89,2.29-6.17,1.04-8.28c-1.29-2.18-4.14-4.14-8.29-3.13c-6.85,1.68-7.2,11.64-7.04,15.84
						c0.01,0.2,0.01,0.34,0.01,0.42c0,2.21-1.79,4-4,4c-2.19,0-3.97-1.76-4-3.95l0-0.15c-0.51-12.84,4.39-21.79,13.12-23.93
						c6.93-1.7,13.63,0.98,17.08,6.83c3.4,5.75,2.6,12.73-2.05,17.77l-0.46,0.5c-2.79,3.02-4.47,4.85-5.04,5.97
						c-0.38,0.75-0.42,1.61-0.47,4.24c-0.01,0.52-0.02,1.08-0.04,1.7c-0.07,2.43-0.84,10.81-7.93,16.8
						C216.16,337.8,211.19,340.5,203.59,340.5z" style="fill:#894e0e"></path>
          </g>
          <g>
            <path d="M182.14,299.44c-1.75,0-3.36-1.16-3.85-2.93c-0.14-0.5-3.26-12.25,3.5-22.73
						c7.13-11.06,18.82-11.18,24.85-7.73c5.9,3.37,6.79,7.65,6.9,8.48l-7.92,1.13c0,0,0,0.09,0.05,0.25c-0.02-0.06-0.45-1.45-3-2.91
						c-2.59-1.48-9.45-2.17-14.15,5.12c-4.78,7.41-2.52,16.2-2.5,16.29c0.56,2.13-0.7,4.32-2.82,4.9
						C182.84,299.39,182.49,299.44,182.14,299.44z" style="fill:#894e0e"></path>
          </g>
          <g>
            <path d="M196.49,302.64c-1.92,0-3.61-1.37-3.93-3.32c-0.08-0.45-1.73-11.1,7.29-20.38
						c6.18-6.35,11.69-7.49,15.25-7.34c3.35,0.15,6.37,1.59,8.3,3.97c3.47,4.27,2.62,9.05,1.58,11.2l-7.19-3.5l-0.05,0.1
						c0.13-0.33,0.49-1.49-0.54-2.76c-0.49-0.6-1.38-0.97-2.45-1.02c-2.67-0.08-5.99,1.68-9.15,4.93
						c-6.11,6.28-5.17,13.23-5.13,13.52c0.32,2.17-1.17,4.21-3.33,4.55C196.91,302.63,196.7,302.64,196.49,302.64z" style="fill:#894e0e"></path>
          </g>
        </g>
        <g>
          <g>
            <path d="M361.46,384.16c-3.67,0-6.38-1.33-7.78-2.6l5.37-5.93c0,0-0.04-0.04-0.12-0.11
						c0.11,0.08,2.81,2.03,8.52-1.25c6.11-3.51,5.31-14.7,5.3-14.81c-0.11-1.28,0.39-2.55,1.37-3.39c2.33-2.01,3.6-6.54,3.24-11.53
						c-0.63-8.7-5.59-16.82-13.27-21.71c-14.26-9.09-27.37,2.7-27.92,3.21c-1.62,1.49-4.15,1.39-5.65-0.23
						c-1.5-1.62-1.41-4.14,0.21-5.64c6.2-5.77,22.04-14.05,37.66-4.09c9.79,6.24,16.13,16.67,16.95,27.87
						c0.49,6.74-1.18,12.81-4.53,16.71c0.04,4.51-0.78,15.61-9.36,20.54C367.64,383.38,364.27,384.16,361.46,384.16z" style="fill:#894e0e"></path>
          </g>
          <g>
            <path d="M350.33,383.07c-8.03,0-10.86-5.16-11.22-8.06l7.94-0.99c0,0,0-0.08-0.04-0.21
						c0.19,0.71,1.44,1.46,4.31,1.22c4.14-0.33,4.68-8.52,4.68-8.6c0.09-2.2,1.91-3.9,4.16-3.83c2.2,0.09,3.92,1.93,3.84,4.14
						c-0.21,5.7-2.97,15.54-12.03,16.27C351.41,383.05,350.86,383.07,350.33,383.07z" style="fill:#894e0e"></path>
          </g>
          <g>
            <path d="M338,379.82c-9.08,0-12.91-7.66-13.26-12.96c-0.15-2.2,1.52-4.11,3.73-4.26c2.2-0.14,4.11,1.52,4.26,3.73
						c0.14,1.7,1.02,5.71,5.68,5.48c5.34-0.25,5.61-9.7,5.61-9.8c0.05-2.18,1.83-3.92,4-3.92c0.03,0,0.05,0,0.08,0
						c2.2,0.04,3.96,1.85,3.92,4.06c-0.09,5.89-2.98,17.17-13.24,17.65C338.51,379.81,338.25,379.82,338,379.82z" style="fill:#894e0e"></path>
          </g>
          <g>
            <path d="M325.71,371.03c-1.25,0-2.57-0.19-3.95-0.62c-4.03-1.25-7.03-3.81-8.67-7.41
						c-2.54-5.55-1.12-11.78-0.02-14.3c2.07-4.74,6.13-6.59,6.59-6.79c2.03-0.87,4.38,0.07,5.25,2.1s-0.07,4.38-2.1,5.25
						c0,0-1.6,0.78-2.41,2.64c-0.55,1.25-1.32,4.95-0.03,7.76c0.7,1.53,1.9,2.52,3.76,3.1c5.42,1.67,9.04-6.46,9.07-6.55
						c0.88-2.02,3.23-2.96,5.25-2.08c2.02,0.87,2.96,3.21,2.1,5.23C338.66,363.8,333.4,371.03,325.71,371.03z" style="fill:#894e0e"></path>
          </g>
          <g>
            <path d="M328.72,350.66c-3.17,0-13.83-0.93-17.93-12.86c-1.69-4.92-1.02-9.64,1.88-13.3
						c3.83-4.81,10.44-6.5,14.96-6.03c7,0.72,14.29,5.47,15.09,6.01c1.84,1.23,2.33,3.71,1.11,5.55c-1.22,1.84-3.71,2.34-5.55,1.11
						c-1.75-1.16-7.22-4.27-11.48-4.71c-2.47-0.25-6.09,0.82-7.87,3.05c-1.2,1.5-1.38,3.38-0.58,5.72
						c2.23,6.49,7.45,7.46,10.36,7.46c2.21,0,4,1.79,4,4S330.93,350.66,328.72,350.66z" style="fill:#894e0e"></path>
          </g>
        </g>
        <g>
          <path d="M379.51,445.16c-1.38,0-2.67-0.72-3.4-1.9c-0.76-1.24-0.79-2.79-0.08-4.06l40.07-71.14
					c0.7-1.24,2-2.01,3.42-2.04c0.02,0,0.05,0,0.07,0c1.39,0,2.69,0.73,3.42,1.92l16.07,26.36c0.75,1.22,0.78,2.75,0.09,4.01
					l-23.79,43.29c-0.67,1.22-1.93,2-3.32,2.07l-32.36,1.5C379.63,445.16,379.57,445.16,379.51,445.16z M419.72,377.92l-33.18,58.91
					l22.9-1.06l21.59-39.29L419.72,377.92z" style="fill:#894e0e"></path>
        </g>
        <g>
          <path d="M330.33,410.45c-19.63,0-35.61-16.41-35.61-36.57c0-14.71,8.52-27.93,21.71-33.68
					c2.03-0.88,4.38,0.04,5.27,2.07c0.88,2.03-0.04,4.38-2.07,5.27c-10.27,4.47-16.9,14.82-16.9,26.34
					c0,15.75,12.38,28.57,27.61,28.57c13.21,0,24.61-9.73,27.11-23.13c0.4-2.17,2.5-3.6,4.67-3.2c2.17,0.41,3.6,2.49,3.2,4.67
					C362.1,397.97,347.39,410.45,330.33,410.45z" style="fill:#894e0e"></path>
        </g>
        <g>
          <g>
            <path d="M312.95,350.66c-0.63,0-1.28-0.15-1.88-0.47l-82.29-43.89c-1.95-1.04-2.69-3.46-1.65-5.41
						c1.04-1.95,3.46-2.69,5.41-1.65l82.29,43.89c1.95,1.04,2.69,3.46,1.65,5.41C315.77,349.89,314.38,350.66,312.95,350.66z" style="fill:#894e0e"></path>
          </g>
          <g>
            <path d="M297.86,376.83c-0.67,0-1.35-0.17-1.97-0.52l-78.02-44.32c-1.92-1.09-2.59-3.53-1.5-5.45
						c1.09-1.92,3.53-2.59,5.45-1.5l78.02,44.32c1.92,1.09,2.59,3.53,1.5,5.45C300.61,376.1,299.25,376.83,297.86,376.83z" style="fill:#894e0e"></path>
          </g>
          <g>
            <path d="M147.65,335.02c-0.69,0-1.38-0.18-2.02-0.55c-1.91-1.12-2.55-3.57-1.43-5.47
						c0.94-1.6,9.36-15.75,16.21-19.54c1.93-1.07,4.37-0.37,5.44,1.57c1.07,1.93,0.37,4.37-1.57,5.44
						c-3.73,2.06-10.06,11.27-13.18,16.58C150.36,334.31,149.02,335.02,147.65,335.02z" style="fill:#894e0e"></path>
          </g>
          <g>
            <path d="M158.02,296.88c-0.71,0-1.43-0.19-2.08-0.58c-20.21-12.3-20.8-13.27-21.37-14.21
						c-1.01-1.68-0.49-3.44-0.3-4.11c0.58-1.98,7.83-18.51,11.58-20.39c1.77-0.88,3.61-1.8,21.95,8.44
						c1.93,1.08,2.62,3.51,1.54,5.44s-3.51,2.62-5.44,1.54c-5.24-2.92-11.59-6.16-14.7-7.41c-1.88,3-5.19,9.43-6.63,12.87
						c3.39,2.27,10.78,6.89,17.51,10.99c1.89,1.15,2.49,3.61,1.34,5.5C160.69,296.19,159.37,296.88,158.02,296.88z" style="fill:#894e0e"></path>
          </g>
        </g>
        <g>
          <g>
            <path d="M99.44,276.09c-7.05,0-12.79-5.4-12.79-12.04c0-6.64,5.74-12.04,12.79-12.04c7.05,0,12.79,5.4,12.79,12.04
						C112.22,270.69,106.49,276.09,99.44,276.09z M99.44,260.02c-2.64,0-4.79,1.81-4.79,4.04c0,2.22,2.15,4.04,4.79,4.04
						s4.79-1.81,4.79-4.04C104.22,261.83,102.08,260.02,99.44,260.02z" style="fill:#894e0e"></path>
          </g>
          <g>
            <path d="M79.69,258.64c-7.05,0-12.79-5.4-12.79-12.04c0-6.64,5.74-12.04,12.79-12.04c7.05,0,12.79,5.4,12.79,12.04
						C92.48,253.24,86.75,258.64,79.69,258.64z M79.69,242.57c-2.64,0-4.79,1.81-4.79,4.04c0,2.23,2.15,4.04,4.79,4.04
						s4.79-1.81,4.79-4.04C84.48,244.38,82.33,242.57,79.69,242.57z" style="fill:#894e0e"></path>
          </g>
          <g>
            <path d="M62.12,242.57c-7.05,0-12.79-5.4-12.79-12.04c0-6.64,5.74-12.04,12.79-12.04c7.05,0,12.79,5.4,12.79,12.04
						C74.91,237.17,69.17,242.57,62.12,242.57z M62.12,226.5c-2.64,0-4.79,1.81-4.79,4.04c0,2.23,2.15,4.04,4.79,4.04
						c2.64,0,4.79-1.81,4.79-4.04C66.91,228.31,64.76,226.5,62.12,226.5z" style="fill:#894e0e"></path>
          </g>
          <g>
            <path d="M90.65,265.1c-2.09,0-3.81-1.6-3.98-3.65c-0.48-0.96-2.79-3.13-4.9-4.6c-1.81-1.26-2.26-3.75-1-5.57
						c1.26-1.81,3.75-2.26,5.57-1c3.11,2.16,8.32,6.43,8.32,10.82C94.65,263.31,92.86,265.1,90.65,265.1z M86.72,261.56
						L86.72,261.56L86.72,261.56z M86.65,261.1C86.65,261.11,86.65,261.11,86.65,261.1C86.65,261.11,86.65,261.11,86.65,261.1z" style="fill:#894e0e"></path>
          </g>
          <g>
            <path d="M71.31,248.21c-1.04,0-2.08-0.4-2.86-1.21l-5.51-5.64c-1.54-1.58-1.51-4.11,0.07-5.66
						c1.58-1.54,4.11-1.51,5.66,0.07l5.51,5.64c1.54,1.58,1.51,4.11-0.07,5.66C73.32,247.83,72.31,248.21,71.31,248.21z" style="fill:#894e0e"></path>
          </g>
          <g>
            <path d="M149.37,265.1c-0.02,0-0.04,0-0.06,0c-2.21-0.03-3.97-1.85-3.94-4.06c0-0.11,0.05-12.46-7.08-18.2
						c-4.92-3.96-7.8-3.65-12.57-3.12c-2.15,0.24-4.57,0.5-7.4,0.36c-7.51-0.38-8.76-4.46-9.35-8.25c-0.28-1.84-0.51-3.3-2.12-4.97
						c-3.53-3.66-9.82-3.57-14.88-3.49c-1.29,0.02-2.51,0.04-3.63,0c-7.53-0.29-12.96-8.05-19.28-18.16
						c-5.31-8.5-8.56-12.75-15.36-15.04c-1.43-0.48-3.5-0.73-5.24,0.84c-1.97,1.78-3.5,6.16-1.9,13.11
						c2.86,12.38,10.76,18.52,10.84,18.58c1.76,1.34,2.1,3.85,0.76,5.61c-1.34,1.76-3.85,2.1-5.61,0.76
						c-0.42-0.32-10.29-7.99-13.78-23.15c-2.05-8.89-0.48-16.49,4.32-20.84c3.55-3.21,8.34-4.12,13.17-2.5
						c9.55,3.22,13.95,9.37,19.59,18.38c3.11,4.98,8.91,14.26,12.8,14.41c0.91,0.04,2.03,0.02,3.21,0
						c5.9-0.09,14.82-0.23,20.76,5.93c3.37,3.5,3.91,6.99,4.27,9.3c0.06,0.41,0.14,0.94,0.22,1.26c0.25,0.07,0.74,0.17,1.62,0.22
						c2.18,0.11,4.19-0.11,6.13-0.32c5.38-0.59,10.95-1.2,18.46,4.84c10.19,8.2,10.07,23.89,10.06,24.55
						C153.33,263.35,151.55,265.1,149.37,265.1z" style="fill:#894e0e"></path>
          </g>
          <g>
            <path d="M119.09,286.44c-3.24,0-6.7-0.21-10.2-0.75c-6.6-1.03-11.13-3.4-13.46-7.05c-1.8-2.82-1.85-5.88-1.34-7.65
						l7.69,2.2c0,0,0.02-0.06,0.04-0.17c-0.02,0.11-0.09,0.72,0.44,1.45c0.63,0.88,2.49,2.48,7.86,3.32
						c12.68,1.99,25.26-1.17,25.39-1.21c2.14-0.55,4.32,0.74,4.87,2.88c0.55,2.14-0.74,4.32-2.87,4.87
						C137.07,284.43,129.14,286.44,119.09,286.44z" style="fill:#894e0e"></path>
          </g>
          <g>
            <path d="M278.92,332.51c-1.92,0-3.62-1.39-3.94-3.34c-0.36-2.17,1.1-4.23,3.27-4.6
						c0.45-0.08,9.31-1.79,11.22-10.08c1.34-5.82-2.1-9.54-8.82-16.15c-2.26-2.22-4.81-4.73-7.24-7.57
						c-5.46-6.37-6.7-14.5-3.24-21.22c3.1-6.02,9.37-9.36,16.34-8.74c15.88,1.42,26.3,19.47,32.76,32.91
						c6.84,14.25,16.13,23.31,17.85,24.66c1.61,0.98,2.35,2.99,1.67,4.82c-0.77,2.07-3.08,3.12-5.15,2.34
						c-2.49-0.93-13.79-12.13-21.58-28.36c-8.8-18.32-17.39-27.61-26.26-28.41c-3.72-0.33-6.91,1.33-8.51,4.44
						c-1.52,2.95-1.74,7.75,2.2,12.35c2.21,2.58,4.53,4.86,6.78,7.07c6.9,6.79,13.42,13.2,11.01,23.65
						c-3.14,13.6-17.09,16.08-17.68,16.17C279.36,332.49,279.14,332.51,278.92,332.51z M336.44,318.05
						C336.44,318.05,336.44,318.05,336.44,318.05C336.44,318.05,336.44,318.05,336.44,318.05z M336.43,318.04
						C336.43,318.04,336.44,318.05,336.43,318.04C336.44,318.05,336.43,318.04,336.43,318.04z" style="fill:#894e0e"></path>
          </g>
          <g>
            <path d="M395.7,494.69c-28.17,0-48.08-22.27-62.74-42.85c-19.21-26.98-29.86-36.81-43.82-40.45
						c-7.21-1.88-17.07-1.54-27.51-1.18c-9.72,0.33-20.73,0.71-31.47-0.65c-13.54-1.71-24-8.46-27.27-17.61
						c-2.34-6.53-0.73-13.41,4.43-18.87c8.68-9.2,19.75-8.67,30.47-8.16c4.2,0.2,8.55,0.41,12.82,0.05
						c10.72-0.89,10.75-8.79,10.65-10.37c-0.14-2.19,1.51-4.1,3.69-4.27c2.18-0.14,4.1,1.45,4.28,3.64
						c0.04,0.45,0.31,4.54-1.74,8.88c-1.95,4.15-6.35,9.27-16.23,10.09c-4.79,0.4-9.4,0.18-13.86-0.04
						c-10.12-0.48-18.12-0.86-24.27,5.66c-3.1,3.29-4.04,6.98-2.71,10.68c1.77,4.94,8.15,10.78,20.75,12.37
						c10.1,1.28,20.31,0.93,30.19,0.59c11.04-0.38,21.46-0.74,29.81,1.44c16.09,4.2,27.83,14.78,48.32,43.55
						c23.6,33.15,44.36,44.41,69.42,37.67c34.73-9.34,50.57-60.21,54.6-75.58c9.2-35.13-7.16-52.94-17.73-60.44
						c-15.79-11.2-47.98-13.39-48.3-13.41c-2.2-0.14-3.88-2.04-3.73-4.25c0.14-2.2,2.05-3.86,4.25-3.74
						c1.41,0.09,34.76,2.36,52.42,14.87c20.86,14.79,28.46,39.93,20.84,68.99c-5.52,21.05-22.43,71.1-60.26,81.28
						C405.63,494.03,400.54,494.69,395.7,494.69z" style="fill:#894e0e"></path>
          </g>
          <g>
            <path d="M379.73,358.91c-1.3,0-2.58-0.63-3.35-1.8c-1.21-1.84-0.7-4.32,1.14-5.54c0.24-0.16,14.63-9.97,17.1-27.42
						c1.21-8.55-2.4-24.16-13.2-39.75c-8.79-12.7-25.26-29.49-53.76-37.39c-2.13-0.59-3.38-2.79-2.79-4.92
						c0.59-2.13,2.79-3.38,4.92-2.79c54.42,15.08,75.97,63.25,72.75,85.97c-3,21.17-19.9,32.5-20.62,32.98
						C381.24,358.7,380.48,358.91,379.73,358.91z" style="fill:#894e0e"></path>
          </g>
          <g>
            <path d="M260.06,212.58c-10.05,0-12.59-7.25-12.7-7.59l7.59-2.53c0,0-0.01-0.05-0.05-0.14
						c0.12,0.29,1.38,2.79,6.94,2.15c5.66-0.66,6.37-6.98,6.43-7.7c0.17-2.01,1.81-3.59,3.83-3.67c2.06-0.09,3.77,1.33,4.11,3.32
						c0.13,0.62,1.04,4.03,5.5,4.39c3.74,0.33,4.38-3.09,4.48-4.14c0.23-2.2,2.2-3.78,4.39-3.57c2.2,0.23,3.8,2.19,3.57,4.39
						c-0.51,4.92-4.42,11.99-13.09,11.29c-3.29-0.27-5.82-1.4-7.74-2.9c-2.08,3.17-5.42,5.93-10.55,6.53
						C261.8,212.53,260.9,212.58,260.06,212.58z" style="fill:#894e0e"></path>
          </g>
          <g>
            <path d="M274.94,226.16c-9.64,0-13.23-10.81-13.84-17.21c-0.21-2.2,1.41-4.15,3.61-4.36c2.2-0.2,4.15,1.4,4.36,3.6
						c0.02,0.17,1.22,9.97,5.88,9.97c0.93,0,1.53-0.28,2.07-0.95c1.96-2.46,1.91-8.4,1.54-10c-0.5-2.15,0.84-4.3,3-4.8
						c2.14-0.5,4.3,0.84,4.8,3c0.46,1.99,1.36,11.22-3.07,16.79C281.2,224.79,278.32,226.16,274.94,226.16z" style="fill:#894e0e"></path>
          </g>
          <g>
            <path d="M228.91,266.39c-25.98,0-48.86-4.27-64.89-12.61c-25.54-13.29-32.31-53.11-34.07-75.67
						c-0.55-6.99-0.85-9.69-0.99-10.71c-1.84-3.23-13.13-23.68-18.22-47.48c-3.32-15.53-0.38-33.55,1.67-42.91
						c0.86-3.92,5.43-23.66,11.45-27.51c7.12-4.56,46.37-8.66,77.27,8.15c7.95-4.68,36.89-19.21,78.02-11.06
						c49.96,9.9,69.72,57.67,74.58,72.07c4.41,13.06,5.46,28.2,5.71,34.09c3.78,2.76,15.03,13.52,12.49,42.32
						c-2.77,31.29-32.39,53.78-85.66,65.06C266.5,264.33,246.96,266.39,228.91,266.39z M135.75,163.16c0.91,1.2,1.11,2.91,1.25,4.03
						c0.24,2.06,0.56,5.52,0.93,10.3c1.63,20.9,7.67,57.69,29.79,69.19c25.6,13.32,70.39,15.48,116.9,5.64
						c34.5-7.31,76.28-23.29,79.34-57.94c2.25-25.4-7.33-33.76-9.22-35.15c-1.82-0.36-3.2-1.95-3.22-3.88
						c0-0.19-0.28-19.07-5.36-34.12c-4.52-13.38-22.81-57.72-68.56-66.79c-44.16-8.75-73.82,10.97-74.11,11.17
						c-1.28,0.87-2.94,0.93-4.27,0.15c-29.34-17.12-66.16-12.33-70.97-9.56c-3.72,3.51-14.82,37.95-9.67,62.05
						C123.23,140.09,133.69,159.47,135.75,163.16z" style="fill:#894e0e"></path>
          </g>
          <g>
            <path d="M344.22,110.09c-0.78,0-1.56-0.22-2.25-0.69c-1.83-1.25-2.3-3.73-1.05-5.56
						c0.09-0.14,10.02-15.15,8.04-36.89c-2.06-22.71-19.74-47.19-24-49.21c-3.68-1.64-7.31-0.11-25.97,8.28L295,27.81
						c-20.97,9.41-26.62,21.83-26.68,21.95c-0.88,2.01-3.23,2.95-5.25,2.08c-2.02-0.87-2.96-3.19-2.11-5.21
						c0.26-0.62,6.67-15.31,30.76-26.12l3.98-1.79c20.55-9.24,25.43-11.43,32.5-8.29c7.9,3.51,26.57,32.17,28.72,55.79
						c2.25,24.72-8.92,41.42-9.39,42.12C346.75,109.48,345.5,110.09,344.22,110.09z" style="fill:#894e0e"></path>
          </g>
          <g>
            <path d="M155.47,268.05c-0.11,0-0.23,0-0.35-0.01c-2.2-0.19-3.83-2.12-3.64-4.33c0.3-3.47,7.5-12.05,13.53-16.11
						c1.83-1.23,4.32-0.75,5.55,1.09c1.23,1.83,0.75,4.32-1.09,5.55c-4.9,3.29-9.34,9.15-10.12,10.75
						C158.92,266.78,157.32,268.05,155.47,268.05z M159.45,264.39C159.45,264.4,159.45,264.4,159.45,264.39
						C159.45,264.4,159.45,264.4,159.45,264.39z" style="fill:#894e0e"></path>
          </g>
          <g>
            <path d="M171.61,377.59c-8,0-16.16-1.43-23.35-4.81c-11.98-5.63-19.62-15.82-22.11-29.48
						c-6.95-38.1,15.44-60.26,16.39-61.18c1.59-1.53,4.12-1.49,5.66,0.09c1.53,1.58,1.49,4.11-0.09,5.65l0,0
						c-0.83,0.81-20.25,20.26-14.09,54.01c2.04,11.16,7.97,19.13,17.64,23.67c14.43,6.78,34.66,4.3,45.89-2.01
						c16.22-9.11,12.65-27.92,12.49-28.71c-0.43-2.16,0.96-4.27,3.12-4.71c2.16-0.44,4.27,0.94,4.71,3.1
						c1.8,8.7,0.7,27.69-16.41,37.3C193.96,374.73,182.94,377.59,171.61,377.59z" style="fill:#894e0e"></path>
          </g>
          <g>
            <path d="M134.56,391.48c-17.54,0-20.65-9.17-20.97-10.32l7.71-2.15c0,0-0.01-0.07-0.06-0.18
						c0.02,0.06,2.57,6.05,18.71,4.35c6.38-0.67,10.84-2.47,12.91-5.21c1.61-2.13,1.26-4.26,1.25-4.35
						c-0.48-2.16,0.89-4.25,3.05-4.73c2.16-0.48,4.3,0.92,4.78,3.08c0.12,0.55,1.1,5.57-2.49,10.55c-3.44,4.78-9.72,7.68-18.66,8.62
						C138.53,391.38,136.46,391.48,134.56,391.48z" style="fill:#894e0e"></path>
          </g>
          <g>
            <path d="M148.87,453.73c-2.37,0-11.24-1.48-16.67-22.5c-5.26-20.39-2.99-43.2-2.89-44.16
						c0.23-2.2,2.19-3.79,4.39-3.57c2.2,0.23,3.79,2.19,3.57,4.39c-0.02,0.22-2.21,22.37,2.68,41.34c3.28,12.72,7.62,16.2,9.09,16.5
						c2.06,0.05,3.77,1.68,3.89,3.78c0.12,2.21-1.57,4.09-3.77,4.22C149.08,453.73,148.98,453.73,148.87,453.73z M149.09,445.74
						C149.09,445.74,149.09,445.74,149.09,445.74C149.09,445.74,149.09,445.74,149.09,445.74z M148.72,445.74
						C148.72,445.74,148.72,445.74,148.72,445.74C148.72,445.74,148.72,445.74,148.72,445.74z M148.73,445.74
						C148.73,445.74,148.72,445.74,148.73,445.74C148.72,445.74,148.73,445.74,148.73,445.74z M148.73,445.74
						C148.73,445.74,148.73,445.74,148.73,445.74C148.73,445.74,148.73,445.74,148.73,445.74z" style="fill:#894e0e"></path>
          </g>
          <g>
            <path d="M245.07,486.17c-47.77,0-67.12-12.85-67.96-13.43c-1.82-1.25-2.29-3.74-1.04-5.56
						c1.24-1.82,3.72-2.29,5.54-1.05c0.34,0.22,20.49,13.19,70.09,11.95c49.51-1.22,66.14-14.57,66.3-14.7
						c1.69-1.4,4.21-1.19,5.62,0.49s1.23,4.17-0.44,5.6c-0.73,0.62-18.41,15.3-71.29,16.61
						C249.56,486.15,247.28,486.17,245.07,486.17z" style="fill:#894e0e"></path>
          </g>
          <g>
            <path d="M357.62,486.83c-2.19,0-4.63-0.2-7.22-0.75c-4.23-0.89-6.28-0.73-10.37-0.41
						c-3.54,0.28-8.38,0.65-16.74,0.49c-19.48-0.37-25.13-7.7-25.71-8.54l6.57-4.57c0,0-0.03-0.04-0.09-0.12
						c0.04,0.05,4.23,4.94,19.39,5.23c7.98,0.15,12.6-0.21,15.97-0.47c4.38-0.34,7.28-0.57,12.63,0.56
						c7.42,1.56,13.19-0.54,13.25-0.56c2.07-0.79,4.38,0.24,5.17,2.3c0.79,2.06-0.24,4.38-2.3,5.17
						C367.93,485.26,363.74,486.83,357.62,486.83z" style="fill:#894e0e"></path>
          </g>
          <g>
            <path d="M147.16,502.91c-3.41,0-6.51-0.37-9.31-1.1c-6.33-1.65-9.96-9.19-8.45-17.54
						c1.6-8.86,9.4-18.58,26.15-16.88c2.2,0.23,3.8,2.19,3.57,4.39c-0.23,2.2-2.2,3.78-4.39,3.57
						c-14.21-1.47-16.96,7.54-17.46,10.34c-0.76,4.21,0.74,7.9,2.6,8.38c7.92,2.06,19.88,0.29,35.58-5.29
						c11.08-3.93,12.6-4.11,20.28-2.39c2.24,0.5,5.03,1.13,9.14,1.81c13.01,2.16,17.29-6.61,17.74-7.62
						c0.89-2.01,3.24-2.94,5.25-2.08c2.02,0.87,2.96,3.18,2.11,5.2c-2.28,5.43-10.73,15-26.42,12.39c-4.34-0.72-7.37-1.4-9.58-1.9
						c-6.05-1.36-6.05-1.36-15.85,2.12C165.74,500.73,155.5,502.91,147.16,502.91z" style="fill:#894e0e"></path>
          </g>
          <g>
            <path d="M128.97,498.97c-1.92,0-4.09-0.31-6.32-1.21c-4.52-1.84-7.95-5.61-10.21-11.2
						c-1.78-4.41-1.72-8.84,0.18-12.83c4.27-8.96,16.22-12.84,17.57-13.25c2.12-0.65,4.35,0.54,5,2.65c0.65,2.11-0.54,4.35-2.65,5
						c-2.73,0.85-10.36,4.13-12.7,9.06c-0.94,1.98-0.93,4.01,0.02,6.37c1.4,3.48,3.34,5.75,5.75,6.76c3.48,1.46,7.15-0.04,7.19-0.05
						c2.03-0.84,4.37,0.1,5.23,2.11c0.86,2.02-0.05,4.35-2.06,5.23C135.52,497.8,132.71,498.97,128.97,498.97z" style="fill:#894e0e"></path>
          </g>
          <g>
            <path d="M115.12,483.09c-1.01,0-2.02-0.38-2.79-1.15c-0.42-0.42-10.21-10.41-3.75-26.81
						c6.41-16.27,29.82-18.41,30.82-18.49c2.19-0.17,4.13,1.45,4.32,3.65c0.18,2.2-1.45,4.13-3.65,4.32
						c-0.19,0.02-19.46,1.82-24.04,13.45c-4.47,11.36,1.71,17.96,1.97,18.23c1.52,1.58,1.51,4.1-0.06,5.64
						C117.15,482.7,116.14,483.09,115.12,483.09z" style="fill:#894e0e"></path>
          </g>
          <g>
            <path d="M118.83,452.21c-0.31,0-0.62-0.04-0.93-0.11c-1.19-0.28-29.26-7.36-40.3-44.07
						c-6.01-20.01-2.28-42.37,9.75-58.35c10.08-13.39,24.57-20.73,40.88-20.73c0.21,0,0.42,0,0.64,0c2.21,0.03,3.98,1.84,3.95,4.05
						c-0.03,2.19-1.81,3.95-4,3.95c-0.02,0-0.03,0-0.05,0c-13.99-0.17-26.39,6.07-35.03,17.54c-10.53,13.99-13.78,33.62-8.48,51.24
						c9.66,32.12,33.49,38.35,34.5,38.6c2.14,0.53,3.46,2.69,2.94,4.83C122.26,450.98,120.63,452.21,118.83,452.21z" style="fill:#894e0e"></path>
          </g>
        </g>
      </g>
    </g>
    <g id="color_00000070827661894082164530000003670442524771148725_">
      <g>
        <path d="M293.98,25.53l3.97-1.78c19.2-8.63,23.2-10.43,28.02-8.29c5.31,2.36,23.39,28.37,25.47,51.26
				c1.6,17.64-4.32,31.02-7.1,36.19c-9.89-19.48-29.79-46.76-65.68-53.87c-4.07-0.81-8.01-1.38-11.84-1.75
				C269.02,43.56,276.28,33.47,293.98,25.53z" style="fill:#f8920d"></path>
      </g>
      <g>
        <path d="M135.43,177.69c-0.37-4.75-0.68-8.18-0.92-10.2c-0.17-1.42-0.29-2.43-0.84-2.92
				c-1.87-3.33-12.75-23.29-17.55-45.79c-5.34-24.99,6.14-61.72,10.7-64.64c4.63-2.96,42.92-8.47,73.65,9.46
				c0.5,0.29,1.13,0.27,1.6-0.06c0.3-0.21,30.72-20.53,76-11.55c36.11,7.15,55.54,35.55,64.73,54.57c0.04,0.14,0.1,0.26,0.19,0.38
				c2.68,5.6,4.48,10.37,5.53,13.49c5.22,15.44,5.49,34.7,5.49,34.89c0.01,0.82,0.68,1.48,1.5,1.48c0.02,0,0.05,0,0.08,0
				c0.02,0.01,0.04,0.03,0.07,0.04c0.13,0.07,13.46,7.59,10.79,37.76c-3.2,36.17-45.99,52.68-81.32,60.16
				c-47.04,9.96-92.48,7.71-118.57-5.86C143.38,236.84,137.11,199.11,135.43,177.69z" style="fill:#f8920d"></path>
      </g>
      <g>
        <path d="M167.39,252.65c15.56,7.44,37.09,11.25,61.45,11.25c17.87,0,37.26-2.05,56.9-6.2
				c16.29-3.45,30.32-7.95,41.99-13.42c0.17,0.15,0.36,0.26,0.59,0.32c50.61,14.02,71.67,59.47,68.77,79.9
				c-1.84,12.97-9.81,21.92-14.57,26.22c0.36-2.05,0.47-4.28,0.3-6.6c-0.76-10.43-6.67-20.13-15.8-25.95
				c-13.69-8.72-26.56-1.98-31.95,1.75c-2.61-2.27-11.34-11.12-18.07-25.14c-9.84-20.5-19.61-30.51-30.73-31.5
				c-5.94-0.53-11.27,2.3-13.89,7.4c-2.99,5.8-1.87,12.87,2.91,18.45c2.36,2.76,4.77,5.12,7.1,7.41c6.52,6.41,11.23,11.04,9.51,18.5
				c-2.06,8.93-10.61,11.4-12.75,11.89l-46.29-24.69c2.39-3.91,2.49-8.64,0.12-12.66c-2.09-3.55-5.65-5.68-9.67-6.04
				c0.23-1.65,0.06-4.04-1.86-6.41c-1.5-1.85-3.79-2.93-6.47-3.05c-1.29-0.06-2.63,0.12-3.98,0.51c-0.22-0.94-1.23-3.89-5.62-6.39
				c-2.75-1.57-6.88-2.23-11.08-1.08c-0.01-0.01-0.02-0.02-0.03-0.03c-0.23-0.2-5.77-4.92-17.87-3.58
				c-3.21,0.36-6.47,2.13-9.42,5.02c-0.11-0.13-0.24-0.25-0.4-0.34c-3.74-2.09-6.74-3.68-9.16-4.89
				C158.78,261.09,162.73,256.01,167.39,252.65z" style="fill:#f8920d"></path>
      </g>
      <g>
        <path d="M368.69,376.43c-2.75,1.58-5,2.15-6.75,2.23c-0.09-0.04-0.19-0.07-0.3-0.09c-0.27-0.05-0.54-0.02-0.79,0.07
				c-1.72-0.12-2.81-0.71-3.25-1c3.6-3.96,3.89-10.61,3.91-11c0.03-0.83-0.62-1.52-1.44-1.55c-0.79-0.02-1.52,0.61-1.56,1.44
				c0,0.1-0.48,10.46-6.98,10.99c-5.06,0.41-6.46-1.75-6.83-2.74c3.57-3.31,4.76-9.12,4.81-12.67c0.01-0.83-0.65-1.51-1.47-1.52
				c-0.01,0-0.02,0-0.03,0c-0.82,0-1.48,0.65-1.5,1.47c0,0.12-0.31,11.88-8,12.24c-6.29,0.29-7.81-4.8-8.18-6.95
				c3.95-1.99,6.71-6.14,7.91-8.97c0.32-0.76-0.03-1.64-0.79-1.97c-0.76-0.32-1.64,0.03-1.97,0.79c-0.18,0.42-4.52,10.29-12.11,7.94
				c-2.52-0.78-4.31-2.28-5.3-4.45c-1.59-3.48-0.83-7.86,0.02-9.81c1.23-2.81,3.7-3.93,3.72-3.94c0.09-0.04,0.18-0.09,0.26-0.15
				c2.8,1.16,5.4,1.34,6.65,1.34c0.83,0,1.5-0.67,1.5-1.5s-0.67-1.5-1.5-1.5c-2.88,0-9.89-0.89-12.72-9.15
				c-1.09-3.17-0.76-5.89,0.99-8.09c2.42-3.05,6.91-4.32,10.08-3.99c5.76,0.6,12.54,5.07,12.61,5.11c0.69,0.46,1.62,0.27,2.08-0.42
				c0.46-0.69,0.27-1.62-0.42-2.08c-0.17-0.12-2.62-1.73-5.9-3.2c0.12-0.09,0.25-0.19,0.38-0.3c0.07-0.04,0.14-0.09,0.2-0.15
				c4.22-3.19,16.29-10.54,29.39-2.19c8.34,5.32,13.73,14.15,14.42,23.64c0.43,5.84-1.14,11.06-4.09,13.61
				c-0.37,0.32-0.56,0.79-0.51,1.27C375.24,359.36,376.34,372.03,368.69,376.43z" style="fill:#fdeac0"></path>
      </g>
      <g>
        <path d="M297.37,370.82l-75.44-42.86c1.8-3.26,2.57-6.76,2.65-9.55c0.02-0.61,0.03-1.17,0.04-1.68
				c0.11-5.26,0.11-5.26,6.18-11.85l0.22-0.23l79.15,42.21C302.89,352.61,298.2,361.25,297.37,370.82z" style="fill:#ffc0c0"></path>
      </g>
      <g>
        <path d="M199.29,334.68c-17.78-2.54-29.23-9.67-35.56-22.27c-0.02-0.06-0.04-0.12-0.08-0.18
				c-0.01-0.02-0.03-0.04-0.04-0.06c-0.88-1.77-1.65-3.65-2.33-5.64c-4.06-11.9-0.38-24.17,3.99-31.07
				c3.34-5.25,7.52-8.52,11.47-8.96c7.43-0.83,12.04,0.87,14.16,1.98c-2.55,1.36-4.99,3.49-7.02,6.64
				c-6.15,9.55-3.31,20.26-3.19,20.71c0.18,0.67,0.79,1.1,1.45,1.1c0.13,0,0.27-0.02,0.4-0.05c0.8-0.22,1.27-1.04,1.05-1.84
				c-0.03-0.1-2.62-9.86,2.81-18.29c5.18-8.03,13.35-8.31,17.5-5.94c3.71,2.12,4.17,4.41,4.19,4.48c0.02,0.15,0.07,0.28,0.13,0.41
				c-2.22,1.12-4.45,2.79-6.58,4.97c-8.15,8.38-6.68,17.82-6.62,18.22c0.12,0.73,0.76,1.25,1.48,1.25c0.08,0,0.16-0.01,0.24-0.02
				c0.82-0.13,1.37-0.9,1.24-1.72c-0.05-0.34-1.25-8.39,5.81-15.64c3.71-3.82,7.64-5.85,11.06-5.68c1.8,0.08,3.32,0.77,4.27,1.94
				c1.47,1.8,1.36,3.61,1.13,4.59c-0.53,0.07-1.07,0.16-1.61,0.29c-10.79,2.65-11.44,15.85-11.22,21.41l0.01,0.2
				c0,0.83,0.67,1.5,1.5,1.5c0.83,0,1.5-0.67,1.5-1.5c0-0.05,0-0.16-0.01-0.31c-0.19-4.82,0.29-16.25,8.94-18.37
				c0.67-0.16,1.31-0.27,1.93-0.32c0.1,0.01,0.2,0,0.3-0.01c4.29-0.24,7.31,2.08,8.81,4.62c2.01,3.41,1.65,7.53-0.87,10.68
				c-0.01,0.01-0.02,0.03-0.03,0.04c-0.14,0.18-0.29,0.35-0.45,0.53l-0.46,0.5c-6.58,7.14-6.83,7.42-6.97,13.82
				c-0.01,0.5-0.02,1.05-0.04,1.66c-0.11,3.81-1.73,9.16-5.98,12.75C211.61,334.44,206.12,335.65,199.29,334.68z" style="fill:#fdeac0"></path>
      </g>
      <g>
        <path d="M284.5,294.41c-2.28-2.25-4.64-4.57-6.92-7.23c-4.75-5.54-4.42-11.45-2.53-15.12
				c2.09-4.05,6.18-6.21,10.96-5.78c9.96,0.89,18.95,10.37,28.29,29.81c6.38,13.28,14.67,22.32,18.37,25.67
				c-0.16,0.13-0.25,0.22-0.26,0.23c-0.04,0.03-0.05,0.08-0.08,0.12c-1.61-0.55-3.3-0.98-4.95-1.16c-3.86-0.4-9.5,1.03-12.74,5.1
				c-1.67,2.1-3.27,5.69-1.48,10.93c0.86,2.49,2.04,4.42,3.39,5.93c-1.27,0.6-2.5,1.26-3.67,2.01l-30.02-16.01
				c4.03-1.57,10.13-5.2,11.97-13.19C296.92,306.63,291.17,300.97,284.5,294.41z" style="fill:#bbfffd"></path>
      </g>
      <g>
        <path d="M318.63,345.24c0.1-0.05,0.2-0.1,0.29-0.17c0.04,0.03,0.09,0.06,0.13,0.09c-1.17,0.84-2.71,2.29-3.69,4.55
				c-1.1,2.52-2.01,7.86,0,12.26c1.36,2.98,3.76,5.02,7.14,6.06c1.1,0.34,2.16,0.49,3.16,0.49c0.62,0,1.22-0.07,1.8-0.18
				c0.8,3.81,3.65,8.98,10.53,8.98c0.22,0,0.44,0,0.66-0.02c1.34-0.06,2.51-0.38,3.55-0.86c0.89,1.73,3.04,4.13,8.13,4.13
				c0.46,0,0.94-0.02,1.44-0.06c1.32-0.11,2.46-0.47,3.45-1c0.05,0.06,0.08,0.13,0.14,0.19c0.11,0.1,1.55,1.32,4.16,1.79
				c-3.34,13.69-15.35,23.46-29.19,23.46c-16.6,0-30.11-13.94-30.11-31.07C300.22,361.35,307.45,350.11,318.63,345.24z" style="fill:#545454"></path>
      </g>
      <g>
        <path d="M54.84,230.53c0-1.39,0.49-2.68,1.32-3.74c0,0,0,0,0,0c0,0,0,0,0,0c1.32-1.69,3.5-2.8,5.97-2.8
				c4.02,0,7.29,2.93,7.29,6.54c0,3.6-3.27,6.54-7.29,6.54C58.11,237.07,54.84,234.13,54.84,230.53z" style="fill:#ffc0c0"></path>
      </g>
      <g>
        <path d="M72.41,246.6c0-3.6,3.27-6.54,7.29-6.54c4.02,0,7.29,2.93,7.29,6.54c0,3.6-3.27,6.54-7.29,6.54
				C75.68,253.14,72.41,250.21,72.41,246.6z" style="fill:#ffc0c0"></path>
      </g>
      <g>
        <path d="M92.15,264.05c0-3.6,3.27-6.54,7.29-6.54c4.02,0,7.29,2.93,7.29,6.54c0,3.6-3.27,6.54-7.29,6.54
				C95.42,270.59,92.15,267.66,92.15,264.05z" style="fill:#ffc0c0"></path>
      </g>
      <g>
        <path d="M136.14,278.99c-0.13,0.03-13.17,3.32-26.39,1.25c-4.86-0.76-8.19-2.32-9.63-4.51
				c-0.53-0.8-0.72-1.57-0.77-2.16c0.03,0,0.07,0,0.1,0c5.67,0,10.29-4.28,10.29-9.54s-4.61-9.54-10.29-9.54
				c-3.37,0-6.35,1.52-8.23,3.84c-1.13-1.81-3.06-3.54-4.57-4.74c2.05-1.74,3.35-4.24,3.35-7.02c0-5.26-4.61-9.54-10.29-9.54
				c-3.72,0-6.97,1.85-8.78,4.59l-3.11-3.19c2.77-1.71,4.61-4.63,4.61-7.94c0-5.26-4.61-9.54-10.29-9.54c-2.84,0-5.41,1.07-7.27,2.8
				c-2.38-2.23-8.32-8.63-10.74-19.11c-1.57-6.79-0.58-12.6,2.65-15.52c2.06-1.86,4.8-2.34,7.72-1.36
				c7.83,2.64,11.53,7.84,16.68,16.09c5.72,9.15,10.97,16.75,17.26,16.99c1.06,0.04,2.25,0.02,3.5,0
				c5.54-0.08,12.44-0.19,16.72,4.25c2.16,2.24,2.48,4.32,2.79,6.32c0.42,2.73,0.9,5.83,7,6.13c2.63,0.13,4.95-0.12,7.01-0.35
				c4.85-0.53,8.68-0.95,14.41,3.66c6.52,5.25,7.74,15.04,7.96,18.72c-0.45,0-0.67,0.11-0.83,0.19c-2.34,1.17-9.35,15.59-10.3,18.85
				c-0.03,0.09-0.05,0.19-0.07,0.29C136.45,278.95,136.29,278.95,136.14,278.99z" style="fill:#bbfffd"></path>
      </g>
      <g>
        <path d="M148.24,262.64c1,0.19,3.38,1.22,6.32,2.65c0.16,0.13,0.35,0.22,0.56,0.27c3.04,1.49,6.61,3.37,9.87,5.19
				c-0.78,0.96-1.53,1.99-2.24,3.11c-2.71,4.27-5.04,10.06-5.89,16.55c-7.53-4.6-15.29-9.49-17.28-10.99
				C140.45,276.34,146.45,264.69,148.24,262.64z" style="fill:#ffc0c0"></path>
      </g>
      <g>
        <path d="M145.56,286.94c2.72,1.72,6.3,3.94,10.99,6.8c-0.21,4.43,0.3,9.1,1.89,13.77c0.58,1.71,1.26,3.33,1.99,4.9
				c-6.2,4.47-13.74,17.28-14.08,17.86c-0.42,0.71-0.18,1.63,0.54,2.05c0.24,0.14,0.5,0.21,0.76,0.21c0.51,0,1.02-0.27,1.29-0.74
				c2.14-3.65,8.25-13.08,12.87-16.65c6.92,12.55,19.11,19.96,37.05,22.52c1.68,0.24,3.28,0.36,4.82,0.36c3.37,0,6.4-0.58,9.09-1.72
				c0.61,5.49,0.87,21.08-14.01,29.43c-11.62,6.53-32.45,9.48-48.18,2.09c-10.45-4.91-16.85-13.48-19.04-25.49
				C125.87,311.12,141.75,291.18,145.56,286.94z" style="fill:#f8920d"></path>
      </g>
      <g>
        <path d="M82.87,406.44c-5.52-18.37-2.12-38.85,8.88-53.46c8.87-11.78,21.54-18.32,35.8-18.52
				c0.2,2.71,0.53,5.5,1.05,8.4c2.34,12.83,9.5,22.4,20.72,27.66c2.32,1.09,4.75,1.95,7.24,2.64c0.04,0.2,0.59,3.18-1.62,6.2
				c-2.47,3.37-7.56,5.55-14.73,6.31c-18.61,1.96-21.31-5.93-21.33-5.98c-0.22-0.8-1.05-1.27-1.85-1.04
				c-0.8,0.22-1.26,1.05-1.04,1.85c0.1,0.36,2.27,7.48,15.67,8.39c-0.43,5.51-1.48,24.51,2.96,41.72c0.9,3.48,1.88,6.36,2.89,8.77
				c-3.88,0.58-12.38,2.33-19.01,7.18C114.38,445.28,92.07,437.05,82.87,406.44z" style="fill:#f8920d"></path>
      </g>
      <g>
        <path d="M351.53,480.71c-5.01-1.05-7.61-0.85-11.93-0.51c-3.42,0.27-8.11,0.63-16.21,0.48
				c-11.23-0.22-16.95-2.89-19.52-4.65c12.35-3.99,17.32-8.12,17.69-8.44c0.63-0.54,0.7-1.48,0.16-2.11
				c-0.54-0.63-1.48-0.7-2.11-0.17c-0.17,0.14-17.12,14.03-67.85,15.28c-50.75,1.26-71.27-12.2-71.55-12.38
				c-0.68-0.47-1.62-0.29-2.08,0.39c-0.47,0.68-0.29,1.62,0.39,2.08c0.68,0.46,13.93,9.25,45.76,12.1
				c-1.75,2.92-7.35,9.97-19.81,7.9c-4.18-0.7-7.01-1.33-9.28-1.84c-6.96-1.56-7.92-1.6-18.9,2.3c-16.4,5.83-28.53,7.57-37.05,5.35
				c-3.4-0.89-5.38-5.93-4.42-11.25c1.24-6.86,7.19-13.72,20.18-12.38c0.83,0.07,1.56-0.51,1.65-1.34c0.08-0.82-0.51-1.56-1.34-1.65
				c-15.03-1.54-22.03,7.03-23.44,14.83c-0.54,3.01-0.33,5.89,0.48,8.3c-1.7,0.43-4.68,0.85-7.65-0.37
				c-3.07-1.26-5.48-4.01-7.16-8.15c-1.22-3.02-1.21-5.77,0.04-8.39c3.3-6.94,14.11-10.33,14.22-10.37
				c0.79-0.24,1.24-1.08,0.99-1.87c-0.24-0.79-1.07-1.24-1.87-0.99c-0.5,0.15-12.17,3.8-16.05,11.94c-0.15,0.31-0.26,0.62-0.39,0.93
				c-1.93-3.19-4.35-9.6-0.81-18.6c4.51-11.44,20.92-14.34,25.16-14.91c4.37,8.47,8.95,9,10.02,9c0.06,0,0.11,0,0.15,0
				c0.81-0.04,1.41-0.72,1.39-1.53c-0.02-0.81-0.7-1.46-1.51-1.46c-0.07,0-6.69-0.26-11.37-18.38c-4.31-16.72-3.25-35.75-2.86-40.88
				c1.78,0,3.72-0.1,5.85-0.33c8.2-0.86,13.88-3.42,16.89-7.59c1.99-2.77,2.27-5.54,2.22-7.15c3.94,0.82,8,1.21,12.01,1.21
				c10.85,0,21.4-2.74,28.6-6.79c17.37-9.76,15.99-28.86,15.35-33.55c0.67-0.43,1.32-0.89,1.94-1.41c1.05-0.89,1.96-1.86,2.75-2.89
				l43.48,24.7c-0.03,1.08-0.22,3.16-1.24,5.33c-1.94,4.13-5.88,6.47-11.71,6.95c-4.44,0.37-8.86,0.16-13.15-0.05
				c-10.62-0.5-20.65-0.98-28.54,7.38c-4.49,4.75-5.9,10.7-3.89,16.31c2.96,8.26,12.63,14.38,25.24,15.98
				c10.54,1.34,20.97,0.97,31.07,0.63c10.63-0.37,20.66-0.71,28.23,1.26c14.63,3.82,25.62,13.88,45.23,41.42
				c7.76,10.9,17.03,22.28,28.23,30.41C360.58,481.31,356.38,481.72,351.53,480.71z" style="fill:#f8920d"></path>
      </g>
      <g>
        <path d="M465.91,409.92c-4.11,15.7-20.34,67.67-56.37,77.36c-25.88,6.96-48.12-4.95-72.1-38.64
				c-20.09-28.21-31.49-38.56-46.91-42.58c-7.99-2.08-18.24-1.73-29.09-1.36c-9.97,0.34-20.29,0.7-30.58-0.61
				c-11.48-1.45-20.21-6.82-22.79-14.01c-1.64-4.58-0.49-9.28,3.25-13.24c6.94-7.36,15.87-6.93,26.21-6.44
				c4.38,0.21,8.91,0.43,13.54,0.04c8.68-0.72,12.5-5.11,14.17-8.66c0.86-1.82,1.24-3.59,1.41-4.97l30.48,17.32
				c0.03,0.02,0.07,0.03,0.11,0.04c0.16,18.65,14.94,33.77,33.1,33.77c15.43,0,28.78-10.99,32.24-26.32
				c2.1-0.18,4.65-0.89,7.61-2.59c8.19-4.71,8.23-16.24,8.08-19.33c1.05-1.04,1.93-2.32,2.64-3.79c2.1-1.47,12.45-9.27,17.2-22.94
				c4.1,0.32,33.8,2.98,49.11,13.83C458.31,354.68,475.5,373.34,465.91,409.92z" style="fill:#bbfffd"></path>
      </g>
      <g>
        <path d="M260.07,210.08c0.75,0,1.54-0.05,2.39-0.14c0.43-0.05,0.85-0.13,1.25-0.21c0.51,3.37,2.78,13.94,11.22,13.94
				c2.59,0,4.8-1.05,6.37-3.03c3.39-4.26,3.13-11.93,2.63-14.44c5.37-0.91,7.4-6,7.7-8.95c0.08-0.82-0.51-1.56-1.34-1.65
				c-0.83-0.08-1.56,0.52-1.65,1.34c-0.03,0.28-0.78,6.9-7.17,6.37c-6.62-0.54-7.72-6.23-7.76-6.47c-0.13-0.75-0.8-1.3-1.55-1.25
				c-0.76,0.03-1.37,0.63-1.43,1.39c-0.03,0.37-0.79,9.07-8.63,9.98c-7.75,0.9-9.47-3.49-9.55-3.71c-0.27-0.78-1.11-1.19-1.89-0.93
				c-0.79,0.26-1.21,1.11-0.95,1.9C249.82,204.47,251.79,210.08,260.07,210.08z" style="fill:#894e0e"></path>
      </g>
      <g>
        <path d="M272.68,201.68c1.57,2.16,4.2,4.16,8.26,4.58c0,0.13,0,0.25,0.03,0.38c0.49,2.12,0.61,8.83-2.01,12.12
				c-1.01,1.28-2.33,1.9-4.02,1.9c-6.51,0-8.1-10.16-8.33-11.95C269.74,207.12,271.64,204.34,272.68,201.68z" style="fill:#894e0e"></path>
      </g>
      <g>
        <path d="M420.86,369.24c-0.28-0.45-0.77-0.75-1.31-0.72c-0.53,0.01-1.02,0.3-1.28,0.76l-40.07,71.14
				c-0.27,0.48-0.26,1.06,0.03,1.52c0.27,0.44,0.76,0.71,1.28,0.71c0.02,0,0.05,0,0.07,0l32.36-1.5c0.52-0.02,0.99-0.32,1.25-0.78
				l23.79-43.29c0.26-0.47,0.25-1.04-0.03-1.5L420.86,369.24z" style="fill:#ffc0c0"></path>
      </g>
      <g>
        <polygon points="410.96 438.2 382.15 439.54 419.63 372.98 433.92 396.41" style="fill:#ffc0c0"></polygon>
      </g>
    </g>
    <g id="white_00000168094601667247097010000008464137943931450557_">
      <path d="M290.15,53.77c0,0,4.14-11.29,18.78-19s16.9-5.14,19.47-3.54c2.57,1.61,14.46,17.36,16.07,36
			s-7.06,26.55-7.06,26.55s-11.67-18.9-24.96-27.87s-17.15-8.97-17.15-8.97 M176.69,76.87c-8.68-4.18-31.18-7.71-40.82-5.14
			c-9.64,2.57-13.18,21.21-10.29,44.04c2.89,22.82,12.54,34.07,17.68,34.71c5.14,0.64,2.57-6.11,10.61-24.75
			c8.04-18.64,26.04-40.5,26.04-40.5S185.37,81.05,176.69,76.87z M210.92,121.23c-9.5,0-17.2,6.98-17.2,15.59s7.7,15.59,17.2,15.59
			c9.5,0,17.2-6.98,17.2-15.59S220.42,121.23,210.92,121.23z M315.71,105.64c-9.5,0-17.2,6.98-17.2,15.59s7.7,15.59,17.2,15.59
			c9.5,0,17.2-6.98,17.2-15.59S325.2,105.64,315.71,105.64z M140.69,214.23l3.15,9.22c0,0,3.92,11.89,11.62,18.75
			c7.7,6.86,16.73,13.71,42.7,17.94c25.98,4.23,62.42,2.52,100.35-7.03c37.93-9.55,62.68-27.73,68.28-51.34
			c5.6-23.61-3-34.71-3-34.71s-1.31,11.07-18.34,17.82c-17.04,6.75-36.64-0.33-55.29-8.36c-18.64-8.04-34.39-1.61-49.38,11.45
			c-14.99,13.06-20.05,24.55-48.66,28.4c-28.61,3.86-51.43-7.8-51.43-7.8 M276.27,327.1c0,0,0,0,4.18,1.04
			c4.18,1.04,10.68-7.49,10.68-7.49c-26.11-20.78-48.89-11.7-48.89-11.7 M177.01,372.83c0,0-16.07,19.04-10.61,54.4
			c5.46,35.36,21.59,46.34,21.59,46.34s27.69,9.7,63.8,8.52s59.19-13.39,65.49-15.64s12.4-19.26,11.44-27.15
			c0,0-13.76-19.46-21.34-25.25c-7.58-5.79-19.63-6.21-23.09-7.61s-34.68-1.61-42.05-0.86c-7.37,0.75-24.01-0.75-30.48-7.71
			c-6.47-6.96-8.18-14.01-1.54-22.06c6.64-8.05,9.77-4.85,20.44-5.8c10.67-0.95,24.47-0.83,27.52-3c3.04-2.16,6.95-9.99,7.01-10.72
			c0.06-0.72-1.72-1.39-1.72-1.39l-40.16-24.44l-3.46-1.97l-6.85,6.02c0,0,8.48,14.28-7.17,26.17s-24.18,12.13-24.18,12.13
			 M87.68,356.31c0,0,28.96-15.66,44.04-7.4l-2.89-14.38c0,0-5.67-1.61-9.29-0.79c-3.62,0.81-13.42,4.56-15.75,6.11
			c-2.33,1.55-10.03,5.74-10.03,5.74 M117.44,379.07c-2.68,19.02,15.86,34.14,15.86,34.14s-1.93,0.51-1.58-6.77
			c0.35-7.29,1.58-18.96,1.58-18.96s0,0-7.37-1.04c-7.37-1.04-7.92-5.17-7.92-5.17 M128.83,443.05c-1.8,0.58-13.53,0.58-17.6,16.81
			c-4.07,16.23,3.92,19.24,3.92,19.24s-1.13,6.32,4.38,11.6c5.52,5.29,13.77,3.62,13.77,3.62s1.07-0.37,3.94,2.92
			c2.86,3.3,11.15,1.66,23.63,0c12.47-1.66,26.8-7.84,26.8-7.84s1.24-6.57-7.97-18.21c-9.22-11.64-25.18-19.22-30.75-21.47
			s-9.21-8.57-9.21-8.57" style="fill:#fdeac0"></path>
    </g>
    <g id="mouth_00000105392350116555253650000002199696418903155602_">
      <path d="M265.08,208.58c0,0,6.77-3.68,7.08-10.8c0,0,2.56,7.13,10.27,8.52c0,0,2.36,15.21-7.5,15.86
			c-9.86,0.64-9-9.29-9-9.29" style="fill:#ff4553"></path>
    </g>
    <g>
      <g id="outline_00000059296657027871158920000014789053237166152621_">
        <g>
          <g>
            <path d="M203.69,338c-1.54,0-3.15-0.12-4.82-0.36c-21.32-3.05-34.55-12.91-40.42-30.14
						c-4.39-12.89-0.66-25.83,4.3-33.64c3.83-6.03,8.81-9.79,13.67-10.33c12.09-1.34,17.64,3.38,17.87,3.58
						c0.62,0.55,0.69,1.49,0.14,2.12c-0.55,0.62-1.49,0.69-2.12,0.14c-0.04-0.03-4.9-4.04-15.56-2.85
						c-3.95,0.44-8.13,3.7-11.47,8.96c-4.38,6.89-8.05,19.17-3.99,31.07c5.55,16.29,17.63,25.23,38.01,28.14
						c6.83,0.98,12.32-0.23,16.31-3.6c4.25-3.58,5.88-8.93,5.98-12.74c0.02-0.6,0.03-1.15,0.04-1.66c0.13-6.4,0.39-6.68,6.97-13.82
						l0.46-0.5c2.96-3.21,3.49-7.63,1.36-11.24c-1.74-2.95-5.56-5.63-11.04-4.28c-8.64,2.12-9.13,13.55-8.94,18.37
						c0.01,0.15,0.01,0.26,0.01,0.31c0,0.83-0.67,1.5-1.5,1.5c-0.83,0-1.5-0.67-1.5-1.5l-0.01-0.2c-0.22-5.55,0.43-18.76,11.22-21.4
						c5.83-1.43,11.46,0.8,14.34,5.67c2.83,4.78,2.14,10.59-1.73,14.8l-0.46,0.5c-6.07,6.58-6.07,6.58-6.18,11.85
						c-0.01,0.51-0.02,1.07-0.04,1.68c-0.12,4.46-2.04,10.73-7.05,14.95C213.88,336.45,209.24,338,203.69,338z" style="fill:#894e0e"></path>
          </g>
          <g>
            <path d="M182.15,296.95c-0.66,0-1.26-0.44-1.44-1.1c-0.12-0.45-2.97-11.17,3.19-20.71
						c6.24-9.68,16.33-9.87,21.5-6.92c4.99,2.85,5.62,6.28,5.67,6.66c0.12,0.82-0.45,1.58-1.27,1.7c-0.82,0.11-1.58-0.45-1.7-1.27
						c-0.01-0.07-0.48-2.36-4.19-4.48c-4.15-2.37-12.32-2.09-17.5,5.94c-5.41,8.39-2.84,18.19-2.81,18.29
						c0.22,0.8-0.25,1.62-1.05,1.84C182.41,296.93,182.28,296.95,182.15,296.95z" style="fill:#894e0e"></path>
          </g>
          <g>
            <path d="M196.51,300.16c-0.72,0-1.36-0.52-1.48-1.25c-0.07-0.4-1.53-9.85,6.62-18.22
						c4.32-4.44,9.04-6.76,13.34-6.59c2.67,0.12,4.97,1.2,6.47,3.05c3.35,4.12,1.36,8.35,1.27,8.53c-0.36,0.75-1.26,1.06-2,0.69
						c-0.75-0.36-1.05-1.26-0.69-2c0.04-0.1,1.22-2.72-0.9-5.32c-0.95-1.17-2.47-1.86-4.27-1.94c-3.41-0.14-7.34,1.87-11.06,5.68
						c-7.1,7.3-5.82,15.55-5.81,15.64c0.14,0.82-0.42,1.59-1.23,1.73C196.67,300.15,196.59,300.16,196.51,300.16z" style="fill:#894e0e"></path>
          </g>
        </g>
        <g>
          <g>
            <path d="M361.51,381.67c-3.9,0-6.01-1.85-6.15-1.97c-0.61-0.56-0.66-1.5-0.11-2.12c0.56-0.62,1.5-0.66,2.12-0.11
						c0.14,0.12,3.9,3.22,11.32-1.05c7.62-4.38,6.55-17.08,6.54-17.2c-0.04-0.48,0.15-0.96,0.51-1.27
						c2.95-2.55,4.52-7.77,4.09-13.61c-0.69-9.49-6.08-18.32-14.42-23.64c-15.93-10.16-30.35,2.92-30.96,3.48
						c-0.61,0.56-1.55,0.53-2.12-0.08c-0.56-0.61-0.53-1.55,0.08-2.12c0.17-0.15,16.7-15.23,34.62-3.81
						c9.13,5.82,15.04,15.52,15.8,25.95c0.47,6.51-1.22,12.26-4.56,15.57c0.15,3.09,0.11,14.62-8.08,19.33
						C366.7,381.03,363.8,381.67,361.51,381.67z" style="fill:#894e0e"></path>
          </g>
          <g>
            <path d="M350.33,380.57c-7.91,0-8.73-5.81-8.74-5.87c-0.1-0.82,0.48-1.57,1.3-1.67c0.81-0.09,1.57,0.48,1.67,1.3
						c0.06,0.36,0.78,3.7,6.96,3.19c6.52-0.53,6.97-10.88,6.98-10.99c0.03-0.83,0.71-1.51,1.55-1.44c0.83,0.03,1.47,0.73,1.44,1.55
						c-0.02,0.54-0.58,13.13-9.73,13.87C351.27,380.55,350.79,380.57,350.33,380.57z" style="fill:#894e0e"></path>
          </g>
          <g>
            <path d="M337.99,377.32c-7.93,0-10.52-6.89-10.77-10.63c-0.05-0.83,0.57-1.54,1.4-1.6c0.82-0.05,1.54,0.57,1.6,1.4
						c0.06,0.83,0.81,8.14,8.29,7.82c7.72-0.36,8-12.12,8-12.24c0.01-0.83,0.68-1.45,1.52-1.48c0.83,0.01,1.49,0.7,1.48,1.52
						c-0.08,5.08-2.46,14.8-10.86,15.19C338.43,377.31,338.21,377.32,337.99,377.32z" style="fill:#894e0e"></path>
          </g>
          <g>
            <path d="M325.66,368.52c-1.01,0-2.06-0.15-3.17-0.49c-3.38-1.04-5.78-3.08-7.14-6.06c-2.01-4.4-1.11-9.74,0-12.26
						c1.72-3.93,5.14-5.43,5.28-5.49c0.76-0.32,1.64,0.03,1.97,0.79c0.33,0.76-0.03,1.64-0.79,1.97c-0.02,0.01-2.49,1.13-3.72,3.94
						c-0.85,1.94-1.61,6.33-0.02,9.81c0.99,2.17,2.77,3.66,5.3,4.44c7.58,2.35,11.92-7.52,12.11-7.94c0.33-0.76,1.21-1.11,1.97-0.79
						c0.76,0.33,1.12,1.2,0.79,1.97C336.61,362.23,332.11,368.52,325.66,368.52z" style="fill:#894e0e"></path>
          </g>
          <g>
            <path d="M328.72,348.16c-2.75,0-12-0.81-15.56-11.17c-1.8-5.24-0.19-8.83,1.47-10.93c3.24-4.08,8.88-5.5,12.74-5.1
						c6.51,0.67,13.66,5.4,13.96,5.6c0.69,0.46,0.88,1.39,0.42,2.08c-0.46,0.69-1.39,0.88-2.08,0.42
						c-0.07-0.04-6.84-4.52-12.61-5.11c-3.17-0.33-7.66,0.93-10.08,3.99c-1.74,2.19-2.08,4.92-0.99,8.09
						c2.83,8.26,9.84,9.15,12.72,9.15c0.83,0,1.5,0.67,1.5,1.5S329.55,348.16,328.72,348.16z" style="fill:#894e0e"></path>
          </g>
        </g>
        <g>
          <path d="M379.51,442.66c-0.52,0-1-0.27-1.28-0.71c-0.29-0.46-0.3-1.05-0.03-1.52l40.07-71.14
					c0.26-0.46,0.75-0.75,1.28-0.76c0.54,0,1.03,0.26,1.31,0.72l16.07,26.36c0.28,0.46,0.29,1.03,0.03,1.5l-23.79,43.29
					c-0.25,0.46-0.72,0.75-1.25,0.78l-32.36,1.5C379.55,442.66,379.53,442.66,379.51,442.66z M419.63,372.98l-37.49,66.55
					l28.81-1.33l22.96-41.79L419.63,372.98z" style="fill:#894e0e"></path>
        </g>
        <g>
          <path d="M330.33,407.95c-18.26,0-33.11-15.28-33.11-34.07c0-13.72,7.93-26.04,20.2-31.39
					c0.76-0.33,1.64,0.01,1.97,0.78c0.33,0.76-0.02,1.64-0.78,1.97c-11.18,4.87-18.4,16.11-18.4,28.64
					c0,17.13,13.51,31.07,30.11,31.07c14.41,0,26.85-10.58,29.56-25.17c0.15-0.82,0.94-1.35,1.75-1.2c0.81,0.15,1.35,0.93,1.2,1.75
					C359.86,396.33,346.19,407.95,330.33,407.95z" style="fill:#894e0e"></path>
        </g>
        <g>
          <g>
            <path d="M312.96,348.16c-0.24,0-0.48-0.06-0.71-0.18l-82.29-43.89c-0.73-0.39-1.01-1.3-0.62-2.03
						c0.39-0.73,1.3-1.01,2.03-0.62l82.29,43.89c0.73,0.39,1.01,1.3,0.62,2.03C314.01,347.87,313.49,348.16,312.96,348.16z" style="fill:#894e0e"></path>
          </g>
          <g>
            <path d="M297.87,374.33c-0.25,0-0.51-0.06-0.74-0.2l-78.02-44.32c-0.72-0.41-0.97-1.33-0.56-2.05
						c0.41-0.72,1.33-0.97,2.05-0.56l78.02,44.32c0.72,0.41,0.97,1.33,0.56,2.05C298.89,374.06,298.39,374.33,297.87,374.33z" style="fill:#894e0e"></path>
          </g>
          <g>
            <path d="M147.65,332.52c-0.26,0-0.52-0.07-0.76-0.21c-0.71-0.42-0.96-1.34-0.54-2.05
						c0.36-0.61,8.89-15.09,15.26-18.62c0.72-0.4,1.64-0.14,2.04,0.59c0.4,0.72,0.14,1.64-0.59,2.04
						c-4.7,2.6-11.79,13.52-14.13,17.51C148.67,332.25,148.17,332.52,147.65,332.52z" style="fill:#894e0e"></path>
          </g>
          <g>
            <path d="M158.02,294.38c-0.27,0-0.54-0.07-0.78-0.22c-19.69-11.98-20.29-12.99-20.52-13.37
						c-0.41-0.68-0.24-1.45-0.04-2.12c0.95-3.26,7.96-17.68,10.3-18.85c0.73-0.36,2.42-1.21,19.62,8.39
						c0.72,0.4,0.98,1.32,0.58,2.04s-1.32,0.98-2.04,0.58c-6.71-3.75-14.8-7.79-16.89-8.19c-1.79,2.05-7.79,13.7-8.67,16.77
						c2.16,1.63,11.14,7.27,19.23,12.19c0.71,0.43,0.93,1.35,0.5,2.06C159.02,294.12,158.53,294.38,158.02,294.38z M139.16,279.07
						L139.16,279.07z" style="fill:#894e0e"></path>
          </g>
        </g>
        <g>
          <g>
            <path d="M99.44,273.59c-5.67,0-10.29-4.28-10.29-9.54s4.61-9.54,10.29-9.54c5.67,0,10.29,4.28,10.29,9.54
						S105.11,273.59,99.44,273.59z M99.44,257.52c-4.02,0-7.29,2.93-7.29,6.54c0,3.6,3.27,6.54,7.29,6.54
						c4.02,0,7.29-2.93,7.29-6.54C106.72,260.45,103.46,257.52,99.44,257.52z" style="fill:#894e0e"></path>
          </g>
          <g>
            <path d="M79.69,256.14c-5.67,0-10.29-4.28-10.29-9.54s4.61-9.54,10.29-9.54c5.67,0,10.29,4.28,10.29,9.54
						S85.37,256.14,79.69,256.14z M79.69,240.07c-4.02,0-7.29,2.93-7.29,6.54c0,3.6,3.27,6.54,7.29,6.54c4.02,0,7.29-2.93,7.29-6.54
						C86.98,243,83.71,240.07,79.69,240.07z" style="fill:#894e0e"></path>
          </g>
          <g>
            <path d="M62.12,240.07c-5.67,0-10.29-4.28-10.29-9.54S56.45,221,62.12,221c5.67,0,10.29,4.28,10.29,9.54
						S67.79,240.07,62.12,240.07z M62.12,224c-4.02,0-7.29,2.93-7.29,6.54c0,3.6,3.27,6.54,7.29,6.54c4.02,0,7.29-2.93,7.29-6.54
						C69.41,226.93,66.14,224,62.12,224z" style="fill:#894e0e"></path>
          </g>
          <g>
            <path d="M90.65,262.6c-0.83,0-1.5-0.67-1.5-1.5c0-1.29-3.08-4.3-5.95-6.3c-0.68-0.47-0.85-1.41-0.38-2.09
						c0.47-0.68,1.41-0.85,2.09-0.38c1.7,1.18,7.24,5.3,7.24,8.76C92.15,261.93,91.48,262.6,90.65,262.6z" style="fill:#894e0e"></path>
          </g>
          <g>
            <path d="M71.31,245.71c-0.39,0-0.78-0.15-1.07-0.45l-5.51-5.64c-0.58-0.59-0.57-1.54,0.03-2.12
						c0.59-0.58,1.54-0.57,2.12,0.03l5.51,5.64c0.58,0.59,0.57,1.54-0.03,2.12C72.06,245.57,71.68,245.71,71.31,245.71z" style="fill:#894e0e"></path>
          </g>
          <g>
            <path d="M149.37,262.6c-0.01,0-0.01,0-0.02,0c-0.83-0.01-1.49-0.69-1.48-1.52c0-0.14,0.09-13.66-8.01-20.18
						c-5.73-4.62-9.57-4.2-14.41-3.66c-2.05,0.23-4.38,0.48-7.01,0.35c-6.1-0.3-6.58-3.4-7-6.13c-0.31-2.01-0.63-4.08-2.79-6.32
						c-4.28-4.44-11.18-4.33-16.72-4.25c-1.26,0.02-2.44,0.04-3.5,0c-6.29-0.24-11.54-7.84-17.26-16.99
						c-5.16-8.25-8.85-13.45-16.68-16.09c-2.92-0.98-5.66-0.5-7.72,1.36c-3.23,2.93-4.22,8.73-2.65,15.52
						c3.04,13.19,11.67,19.94,11.76,20.01c0.66,0.5,0.78,1.45,0.28,2.1c-0.5,0.66-1.44,0.78-2.1,0.28
						c-0.39-0.3-9.57-7.43-12.86-21.72c-1.84-7.99-0.54-14.7,3.56-18.42c2.85-2.59,6.75-3.31,10.69-1.98
						c8.76,2.95,12.92,8.78,18.27,17.34c5.07,8.11,10.01,15.4,14.83,15.58c0.97,0.04,2.12,0.02,3.34,0
						c5.79-0.09,13.74-0.21,18.93,5.17c2.82,2.93,3.27,5.83,3.59,7.95c0.39,2.55,0.53,3.41,4.19,3.6c2.39,0.12,4.49-0.11,6.53-0.33
						c5.1-0.56,9.92-1.09,16.62,4.31c9.25,7.45,9.14,21.95,9.13,22.56C150.85,261.95,150.18,262.6,149.37,262.6z" style="fill:#894e0e"></path>
          </g>
          <g>
            <path d="M119.12,283.94c-3.13,0-6.46-0.2-9.84-0.73c-5.86-0.92-9.81-2.91-11.74-5.92
						c-1.81-2.83-1.08-5.5-1.04-5.61c0.23-0.8,1.06-1.26,1.85-1.03c0.79,0.23,1.25,1.05,1.04,1.84c-0.02,0.1-0.37,1.59,0.73,3.26
						c1.45,2.19,4.78,3.75,9.63,4.51c13.23,2.07,26.26-1.22,26.39-1.25c0.8-0.21,1.62,0.28,1.83,1.08c0.21,0.8-0.28,1.62-1.08,1.83
						C136.46,282.01,128.82,283.94,119.12,283.94z" style="fill:#894e0e"></path>
          </g>
          <g>
            <path d="M278.92,330.01c-0.72,0-1.36-0.52-1.48-1.25c-0.14-0.82,0.42-1.59,1.23-1.73
						c0.47-0.08,10.92-1.99,13.23-11.98c1.72-7.46-2.99-12.09-9.51-18.5c-2.33-2.29-4.74-4.66-7.1-7.41
						c-4.79-5.58-5.9-12.65-2.91-18.45c2.62-5.09,7.96-7.93,13.89-7.4c11.12,1,20.89,11.01,30.73,31.5
						c7.46,15.54,17.41,24.76,18.72,25.66c0.66,0.34,0.98,1.14,0.71,1.86c-0.29,0.78-1.16,1.17-1.93,0.88
						c-1.2-0.45-12.2-10.44-20.2-27.1c-9.34-19.45-18.33-28.92-28.29-29.82c-4.78-0.43-8.88,1.73-10.96,5.78
						c-1.89,3.68-2.23,9.58,2.53,15.12c2.28,2.66,4.64,4.98,6.92,7.23c6.67,6.55,12.42,12.22,10.33,21.31
						c-2.77,11.99-15.13,14.18-15.66,14.27C279.09,330,279,330.01,278.92,330.01z M335.76,320.48L335.76,320.48L335.76,320.48z
						 M335.56,320.38C335.56,320.39,335.56,320.39,335.56,320.38C335.56,320.39,335.56,320.39,335.56,320.38z" style="fill:#894e0e"></path>
          </g>
          <g>
            <path d="M395.82,492.17c-27.17,0-46.53-21.72-60.82-41.78c-19.61-27.54-30.6-37.6-45.23-41.42
						c-7.57-1.98-17.61-1.63-28.23-1.26c-10.09,0.35-20.53,0.71-31.07-0.63c-12.61-1.6-22.28-7.72-25.24-15.97
						c-2.01-5.61-0.59-11.56,3.89-16.31c7.89-8.36,17.92-7.89,28.54-7.38c4.28,0.2,8.71,0.42,13.15,0.05
						c5.83-0.48,9.76-2.82,11.71-6.95c1.46-3.1,1.23-6.05,1.23-6.08c-0.07-0.83,0.54-1.55,1.37-1.62c0.81-0.05,1.55,0.54,1.62,1.37
						c0.01,0.15,0.29,3.79-1.51,7.61c-1.67,3.55-5.49,7.94-14.17,8.66c-4.63,0.38-9.16,0.17-13.54-0.04
						c-10.34-0.49-19.27-0.92-26.21,6.44c-3.74,3.96-4.89,8.67-3.25,13.24c2.58,7.19,11.31,12.56,22.79,14.01
						c10.3,1.31,20.62,0.95,30.59,0.61c10.85-0.37,21.1-0.73,29.09,1.36c15.43,4.02,26.83,14.37,46.91,42.58
						c23.99,33.68,46.23,45.59,72.1,38.64c36.03-9.69,52.25-61.66,56.37-77.36c9.59-36.58-7.6-55.24-18.7-63.11
						c-16.38-11.61-49.26-13.85-49.59-13.87c-0.83-0.05-1.45-0.77-1.4-1.59c0.05-0.83,0.77-1.45,1.59-1.4
						c1.38,0.09,34.05,2.31,51.13,14.42c19.96,14.15,27.21,38.32,19.87,66.32c-5.41,20.63-21.92,69.66-58.49,79.5
						C405.26,491.54,400.43,492.17,395.82,492.17z" style="fill:#894e0e"></path>
          </g>
          <g>
            <path d="M379.72,356.41c-0.49,0-0.97-0.24-1.25-0.67c-0.46-0.69-0.26-1.62,0.43-2.08
						c0.16-0.1,15.55-10.46,18.2-29.15c2.9-20.43-18.17-65.88-68.77-79.9c-0.8-0.22-1.27-1.05-1.04-1.85
						c0.22-0.8,1.05-1.27,1.85-1.04c30.09,8.34,47.5,26.11,56.81,39.55c12.45,17.97,15.39,34.75,14.13,43.66
						c-2.85,20.07-18.84,30.79-19.52,31.24C380.29,356.33,380.01,356.41,379.72,356.41z" style="fill:#894e0e"></path>
          </g>
          <g>
            <path d="M260.08,210.08c-8.29,0-10.26-5.62-10.35-5.88c-0.26-0.79,0.16-1.64,0.95-1.9
						c0.78-0.26,1.62,0.16,1.89,0.93c0.08,0.22,1.8,4.62,9.55,3.71c7.84-0.91,8.6-9.61,8.63-9.98c0.06-0.76,0.67-1.35,1.43-1.39
						c0.74-0.04,1.42,0.5,1.55,1.25c0.04,0.23,1.14,5.93,7.76,6.47c6.25,0.5,7.1-5.67,7.17-6.38c0.09-0.82,0.83-1.41,1.65-1.33
						c0.82,0.09,1.42,0.82,1.33,1.64c-0.35,3.39-2.97,9.66-10.4,9.06c-4.23-0.34-6.95-2.4-8.56-4.62
						c-1.45,3.67-4.51,7.59-10.22,8.26C261.62,210.04,260.82,210.08,260.08,210.08z" style="fill:#894e0e"></path>
          </g>
          <g>
            <path d="M274.94,223.66c-9.82,0-11.29-14.33-11.35-14.94c-0.08-0.82,0.53-1.56,1.35-1.63
						c0.83-0.08,1.56,0.53,1.64,1.35c0.01,0.12,1.26,12.22,8.36,12.22c1.69,0,3.01-0.62,4.02-1.9c2.62-3.3,2.5-10.01,2.01-12.12
						c-0.19-0.81,0.32-1.61,1.12-1.8c0.82-0.18,1.61,0.32,1.8,1.12c0.52,2.27,0.9,10.28-2.59,14.67
						C279.73,222.61,277.53,223.66,274.94,223.66z" style="fill:#894e0e"></path>
          </g>
          <g>
            <path d="M228.85,263.9c-25.53,0-47.98-4.18-63.67-12.34c-24.47-12.73-31.01-51.6-32.73-73.64
						c-0.63-8.09-0.95-10.59-1.08-11.35c0,0,0-0.01,0-0.01c-0.13-0.22-12.83-22.14-18.17-47.16c-5.55-25.99,6.01-63.95,12.01-67.79
						c5.48-3.5,44.23-9.12,75.99,8.94c5.21-3.2,35.03-19.92,77.47-11.5c48.64,9.64,67.94,56.34,72.7,70.42
						c4.69,13.89,5.49,30.24,5.62,34.68c0.03,0.01,0.06,0.03,0.09,0.05c0.62,0.33,15.2,8.55,12.36,40.67
						c-2.66,30.08-31.6,51.81-83.68,62.84C266.11,261.86,246.72,263.9,228.85,263.9z M133.67,164.56c0.55,0.49,0.67,1.51,0.84,2.92
						c0.24,2.02,0.55,5.46,0.92,10.2c1.67,21.42,7.94,59.15,31.13,71.21c26.09,13.58,71.53,15.82,118.57,5.86
						c35.33-7.48,78.12-23.99,81.32-60.16c2.67-30.17-10.65-37.69-10.79-37.76c-0.02-0.01-0.04-0.03-0.07-0.04
						c-0.03,0-0.06,0-0.08,0c-0.82,0-1.49-0.66-1.5-1.48c0-0.19-0.28-19.45-5.49-34.89c-4.63-13.7-23.38-59.11-70.44-68.44
						c-45.35-8.99-75.7,11.35-76,11.55c-0.48,0.33-1.1,0.35-1.6,0.06c-30.73-17.93-69.02-12.42-73.65-9.46
						c-4.56,2.92-16.04,39.65-10.7,64.64C120.93,141.28,131.8,161.23,133.67,164.56z" style="fill:#894e0e"></path>
          </g>
          <g>
            <path d="M344.22,107.59c-0.29,0-0.58-0.08-0.84-0.26c-0.68-0.46-0.86-1.4-0.4-2.08
						c0.11-0.16,10.53-15.81,8.46-38.53c-2.08-22.9-20.16-48.9-25.47-51.26c-4.82-2.14-8.81-0.35-28.01,8.28l-3.98,1.79
						c-22.03,9.88-27.89,23.11-27.95,23.24c-0.33,0.76-1.21,1.12-1.97,0.79c-0.76-0.32-1.12-1.2-0.8-1.96
						c0.25-0.58,6.28-14.4,29.48-24.81l3.98-1.79c19.73-8.87,24.41-10.97,30.46-8.29c6.38,2.84,25.09,30.06,27.24,53.74
						c2.17,23.83-8.52,39.82-8.97,40.49C345.17,107.36,344.7,107.59,344.22,107.59z" style="fill:#894e0e"></path>
          </g>
          <g>
            <path d="M155.47,265.6c-0.05,0-0.09,0-0.14-0.01c-0.83-0.07-1.43-0.84-1.36-1.67c0.2-2.29,6.41-10.2,12.43-14.24
						c0.69-0.46,1.62-0.28,2.08,0.41c0.46,0.69,0.28,1.62-0.41,2.08c-5.89,3.96-10.83,10.98-11.13,12.11
						C156.87,265.06,156.23,265.6,155.47,265.6z" style="fill:#894e0e"></path>
          </g>
          <g>
            <path d="M171.65,375.12c-7.65,0-15.45-1.36-22.33-4.59c-11.21-5.27-18.38-14.83-20.72-27.66
						c-6.71-36.79,15.45-58.72,15.67-58.94c0.6-0.58,1.54-0.56,2.12,0.04c0.58,0.59,0.56,1.54-0.03,2.12
						c-0.21,0.21-21.22,21.09-14.81,56.24c2.19,12,8.6,20.58,19.04,25.49c15.73,7.39,36.56,4.44,48.18-2.09
						c17.86-10.04,13.9-30.52,13.72-31.39c-0.17-0.81,0.36-1.6,1.17-1.77c0.81-0.17,1.6,0.35,1.77,1.16
						c0.05,0.23,4.62,23.49-15.19,34.61C193.05,372.37,182.5,375.12,171.65,375.12z" style="fill:#894e0e"></path>
          </g>
          <g>
            <path d="M134.59,388.98c-16.03,0-18.49-8.11-18.6-8.49c-0.22-0.8,0.24-1.62,1.04-1.85
						c0.79-0.23,1.62,0.24,1.85,1.04c0.02,0.06,2.72,7.95,21.33,5.98c7.17-0.75,12.27-2.94,14.73-6.31
						c2.24-3.06,1.64-6.09,1.62-6.21c-0.17-0.81,0.35-1.6,1.15-1.78c0.81-0.18,1.6,0.33,1.78,1.14c0.04,0.18,0.92,4.38-2.08,8.55
						c-3.01,4.18-8.69,6.73-16.89,7.59C138.36,388.88,136.39,388.98,134.59,388.98z" style="fill:#894e0e"></path>
          </g>
          <g>
            <path d="M148.87,451.23c-1.44,0-9.16-0.95-14.24-20.63c-5.15-19.96-2.92-42.33-2.83-43.28
						c0.08-0.82,0.82-1.41,1.65-1.34c0.82,0.08,1.42,0.82,1.34,1.65c-0.02,0.23-2.27,22.79,2.75,42.22
						c4.67,18.12,11.3,18.38,11.37,18.38c0.81,0.01,1.49,0.65,1.51,1.46c0.02,0.81-0.58,1.49-1.39,1.53
						C148.98,451.23,148.93,451.23,148.87,451.23z" style="fill:#894e0e"></path>
          </g>
          <g>
            <path d="M245.01,483.67c-46.94,0-65.68-12.44-66.49-12.99c-0.68-0.47-0.86-1.4-0.39-2.08
						c0.47-0.68,1.4-0.86,2.08-0.39c0.28,0.19,20.82,13.65,71.55,12.38c50.73-1.25,67.68-15.14,67.85-15.28
						c0.63-0.53,1.58-0.46,2.11,0.17c0.54,0.63,0.47,1.57-0.16,2.11c-0.7,0.6-17.72,14.72-69.73,16
						C249.5,483.65,247.22,483.67,245.01,483.67z" style="fill:#894e0e"></path>
          </g>
          <g>
            <path d="M357.66,484.34c-2.04,0-4.32-0.19-6.75-0.7c-4.59-0.96-6.89-0.78-11.08-0.46
						c-3.48,0.27-8.25,0.64-16.5,0.49c-18.55-0.36-23.5-7.17-23.71-7.46c-0.47-0.68-0.3-1.62,0.38-2.09
						c0.67-0.47,1.6-0.31,2.08,0.36c0.1,0.13,4.63,5.87,21.31,6.19c8.1,0.16,12.79-0.21,16.21-0.48c4.32-0.34,6.92-0.54,11.93,0.51
						c8.2,1.72,14.6-0.65,14.66-0.67c0.77-0.29,1.64,0.09,1.93,0.87c0.3,0.77-0.09,1.64-0.86,1.94
						C367.05,482.92,363.26,484.34,357.66,484.34z" style="fill:#894e0e"></path>
          </g>
          <g>
            <path d="M147.19,500.42c-3.2,0-6.1-0.34-8.7-1.02c-5.05-1.32-7.89-7.63-6.62-14.68
						c1.41-7.81,8.4-16.37,23.44-14.83c0.82,0.08,1.42,0.82,1.34,1.65c-0.08,0.82-0.82,1.41-1.65,1.34
						c-13-1.34-18.94,5.52-20.18,12.38c-0.96,5.31,1.03,10.36,4.43,11.25c8.53,2.22,20.64,0.47,37.05-5.35
						c10.98-3.9,11.94-3.87,18.9-2.3c2.27,0.51,5.1,1.14,9.28,1.84c15.29,2.54,20.24-8.62,20.44-9.09c0.33-0.76,1.2-1.12,1.97-0.79
						c0.76,0.32,1.12,1.2,0.8,1.96c-0.06,0.14-6.01,13.84-23.7,10.89c-4.27-0.71-7.26-1.38-9.44-1.87
						c-6.37-1.43-6.76-1.52-17.24,2.2C165.16,498.28,155.21,500.42,147.19,500.42z" style="fill:#894e0e"></path>
          </g>
          <g>
            <path d="M128.96,496.46c-1.64,0-3.49-0.26-5.36-1.02c-3.87-1.58-6.84-4.88-8.83-9.82
						c-1.53-3.79-1.49-7.43,0.12-10.81c3.88-8.13,15.55-11.79,16.05-11.94c0.8-0.24,1.63,0.21,1.87,1c0.24,0.79-0.2,1.63-0.99,1.87
						c-0.11,0.03-10.92,3.43-14.22,10.37c-1.25,2.62-1.26,5.37-0.04,8.39c1.67,4.14,4.08,6.89,7.16,8.15
						c4.49,1.85,9.02-0.06,9.07-0.08c0.76-0.33,1.64,0.02,1.97,0.78c0.33,0.76-0.02,1.64-0.77,1.97
						C134.81,495.39,132.3,496.46,128.96,496.46z" style="fill:#894e0e"></path>
          </g>
          <g>
            <path d="M115.14,480.59c-0.38,0-0.76-0.14-1.05-0.43c-0.37-0.37-9.05-9.23-3.19-24.12
						c5.85-14.84,27.77-16.84,28.7-16.92c0.83-0.04,1.55,0.54,1.62,1.37c0.07,0.83-0.54,1.55-1.37,1.62
						c-0.21,0.02-21,1.93-26.16,15.03c-5.12,12.99,2.2,20.58,2.51,20.89c0.58,0.59,0.58,1.54,0,2.12
						C115.91,480.45,115.52,480.59,115.14,480.59z" style="fill:#894e0e"></path>
          </g>
          <g>
            <path d="M118.83,449.71c-0.12,0-0.23-0.01-0.35-0.04c-1.13-0.27-27.85-7.01-38.48-42.36
						c-5.79-19.26-2.21-40.77,9.36-56.13c9.59-12.74,23.38-19.74,38.88-19.74c0.2,0,0.4,0,0.61,0c0.83,0.01,1.49,0.69,1.48,1.52
						c-0.01,0.82-0.68,1.48-1.5,1.48c-0.01,0-0.01,0-0.02,0c-0.19,0-0.38,0-0.57,0c-14.54,0-27.48,6.57-36.49,18.54
						c-11,14.61-14.4,35.09-8.88,53.46c10.11,33.62,36.04,40.24,36.3,40.31c0.8,0.19,1.3,1,1.11,1.81
						C120.12,449.25,119.51,449.71,118.83,449.71z" style="fill:#894e0e"></path>
          </g>
        </g>
      </g>
      <g id="garis_00000069367159147011913460000015648150843339308169_">
        <g>
          <path d="M401.79,399.38c-0.23,0-0.47-0.05-0.69-0.17l-34.08-17.71c-0.74-0.38-1.02-1.29-0.64-2.02
					c0.38-0.74,1.29-1.02,2.02-0.64l34.08,17.71c0.74,0.38,1.02,1.29,0.64,2.02C402.86,399.08,402.34,399.38,401.79,399.38z" style="fill:#894e0e"></path>
        </g>
        <g>
          <path d="M314.32,353.93c-0.23,0-0.47-0.05-0.69-0.17l-87.47-45.44c-0.74-0.38-1.02-1.29-0.64-2.02
					s1.29-1.02,2.02-0.64l87.47,45.44c0.74,0.38,1.02,1.29,0.64,2.02C315.39,353.64,314.86,353.93,314.32,353.93z" style="fill:#894e0e"></path>
        </g>
        <g>
          <path d="M397.62,410.51c-0.25,0-0.5-0.06-0.74-0.19c-0.12-0.07-0.22-0.15-0.31-0.24
					c-1.34-0.92-12.85-7.45-58.92-32.75c-0.73-0.4-0.99-1.31-0.59-2.04c0.4-0.73,1.31-0.99,2.04-0.59
					c17.89,9.82,31.94,17.57,41.76,23.03c17.96,9.98,17.98,10.03,18.21,10.86c0.11,0.38,0.06,0.8-0.14,1.15
					C398.65,410.24,398.14,410.51,397.62,410.51z M396.64,410.14L396.64,410.14L396.64,410.14z M396.31,408.28
					c-0.2,0.36-0.23,0.72-0.16,1.04C396.08,408.97,396.12,408.6,396.31,408.28z" style="fill:#894e0e"></path>
        </g>
        <g>
          <path d="M317.28,365.96c-0.24,0-0.49-0.06-0.72-0.18c-45.2-24.78-93.49-51.11-93.97-51.37
					c-0.73-0.4-1-1.31-0.6-2.04c0.4-0.73,1.31-1,2.04-0.6c0.48,0.26,48.77,26.6,93.98,51.37c0.73,0.4,0.99,1.31,0.59,2.04
					C318.33,365.67,317.81,365.96,317.28,365.96z" style="fill:#894e0e"></path>
        </g>
        <g>
          <path d="M391.45,421.47c-0.26,0-0.51-0.07-0.75-0.2l-168.14-97.58c-0.72-0.42-0.96-1.33-0.54-2.05
					c0.42-0.72,1.33-0.96,2.05-0.54l168.14,97.58c0.72,0.42,0.96,1.33,0.54,2.05C392.47,421.2,391.96,421.47,391.45,421.47z" style="fill:#894e0e"></path>
        </g>
        <g>
          <path d="M162.35,276.16c-0.24,0-0.48-0.06-0.7-0.18l-95.08-50.63c-0.73-0.39-1.01-1.3-0.62-2.03
					c0.39-0.73,1.3-1.01,2.03-0.62l95.08,50.63c0.73,0.39,1.01,1.3,0.62,2.03C163.4,275.87,162.88,276.16,162.35,276.16z" style="fill:#894e0e"></path>
        </g>
        <g>
          <path d="M161.08,281.84c-0.22,0-0.45-0.05-0.67-0.16l-72.6-36.13c-0.74-0.37-1.04-1.27-0.67-2.01
					c0.37-0.74,1.27-1.04,2.01-0.67l72.6,36.13c0.74,0.37,1.04,1.27,0.67,2.01C162.17,281.53,161.63,281.84,161.08,281.84z" style="fill:#894e0e"></path>
        </g>
        <g>
          <path d="M158.02,286.5c-0.19,0-0.39-0.04-0.58-0.12l-49.8-20.94c-0.76-0.32-1.12-1.2-0.8-1.96
					c0.32-0.76,1.2-1.12,1.96-0.8l49.8,20.94c0.76,0.32,1.12,1.2,0.8,1.96C159.17,286.15,158.61,286.5,158.02,286.5z" style="fill:#894e0e"></path>
        </g>
      </g>
    </g>
    <g id="mata_00000156570718836688477620000017661241025329038517_">
      <path d="M334.3,174.38c-1.34,2.54-3.91,4.19-6.57,5.06c-1.46,0.46-2.92,0.52-4.39,0.2c-1.46-0.07-2.83-0.5-4.09-1.31
			c-1.28-0.69-2.31-1.64-3.09-2.83c-0.97-1.06-1.63-2.31-1.97-3.74c-0.43-1.18-0.86-2.35-1.29-3.53c-1.01-2.75-0.21-5.98,1.11-8.48
			c1.34-2.54,3.91-4.19,6.57-5.06c1.46-0.46,2.92-0.52,4.39-0.2c1.46,0.07,2.83,0.5,4.09,1.31c1.28,0.69,2.31,1.64,3.09,2.83
			c0.97,1.06,1.63,2.31,1.97,3.74c0.43,1.18,0.86,2.35,1.29,3.53C336.42,168.65,335.62,171.88,334.3,174.38z M224.45,181.48
			c-0.07-1.46-0.5-2.83-1.31-4.09c-0.69-1.28-1.64-2.31-2.83-3.09c-1.06-0.97-2.31-1.63-3.74-1.97c-2.82-0.64-5.98-0.5-8.48,1.11
			c-0.74,0.57-1.48,1.15-2.23,1.72c-1.36,1.37-2.31,2.99-2.83,4.85c-0.19,1.29-0.39,2.58-0.58,3.87c-0.46,1.46-0.52,2.92-0.2,4.39
			c0.07,1.46,0.5,2.83,1.31,4.09c0.69,1.28,1.64,2.31,2.83,3.09c1.06,0.97,2.31,1.63,3.74,1.97c2.82,0.64,5.98,0.5,8.48-1.11
			c0.74-0.57,1.48-1.15,2.23-1.72c1.36-1.37,2.31-2.99,2.83-4.85c0.19-1.29,0.39-2.58,0.58-3.87
			C224.72,184.41,224.78,182.95,224.45,181.48z M275.05,178.17c-3.23,0.2-6.45,0.7-9.47,1.87c-2.25,0.87-4.12,1.98-5.38,4.14
			c-1.13,1.93-1.61,4.77-0.91,6.94c0.7,2.18,2.05,4.28,4.14,5.38c2.02,1.07,4.71,1.77,6.94,0.91c1.3-0.5,2.62-0.88,3.98-1.15
			c0.23-0.02,0.47-0.05,0.7-0.07c2.39-0.15,4.63-0.9,6.36-2.64c1.56-1.56,2.74-4.12,2.64-6.36
			C283.84,182.54,280.08,177.87,275.05,178.17z"></path>
    </g>
  </g>
</svg>
