<svg xmlns="http://www.w3.org/2000/svg" viewBox="0 0 512 512" id="pill-reminder">
  <circle cx="345.5" cy="118.5" r="68" fill="#79ed97"></circle>
  <path fill="#4fe777" d="M345.5 50.5a68.169 68.169 0 0 0-15 1.68 67.993 67.993 0 0 1 0 132.64 67.998 67.998 0 1 0 15-134.32Z"></path>
  <circle cx="75.5" cy="118.5" r="68" fill="#79ed97"></circle>
  <path fill="#4fe777" d="M75.5 50.5a68.17 68.17 0 0 0-15 1.68 67.993 67.993 0 0 1 0 132.64 67.998 67.998 0 1 0 15-134.32Z"></path>
  <circle cx="210.5" cy="262.5" r="197" fill="#63ea86"></circle>
  <path fill="#3ce568" d="M407.5 262.5q0 7.35-.53 14.56A196.835 196.835 0 0 1 210.5 459.5q-7.575 0-15-.56a196.962 196.962 0 0 0 181.27-179.37q.72-8.445.73-17.07c0-103.75-80.21-188.77-182-196.44q7.425-.555 15-.56c108.8 0 197 88.2 197 197Z"></path>
  <circle cx="210.5" cy="262.5" r="167" fill="#fff"></circle>
  <path fill="#fff" d="M377.5 262.5a166.613 166.613 0 0 1-.87 17.1c-6.21 60.82-45.21 112.09-98.98 135.8a166.133 166.133 0 0 1-67.15 14.1c-92.08 0-167-74.92-167-167s74.92-167 167-167 167 74.92 167 167Z"></path>
  <path fill="#f2f2f2" d="M210.5 95.5c-5.056 0-10.057.239-15 .681 85.081 7.61 152 79.291 152 166.319s-66.919 158.708-152 166.319c4.943.442 9.944.681 15 .681 92.084 0 167-74.916 167-167s-74.916-167-167-167Z"></path>
  <path fill="#3ce568" d="M406.97 277.06a197.121 197.121 0 0 1-122.48 168.07 124.237 124.237 0 0 1-3.92-12.91 125.703 125.703 0 0 1-2.92-16.82c53.77-23.71 92.77-74.98 98.98-135.8l.14-.03a126.157 126.157 0 0 1 25.52-2.6q2.355 0 4.68.09Z"></path>
  <path fill="#f2f2f2" d="M376.63 279.6c-6.21 60.82-45.21 112.09-98.98 135.8a125.432 125.432 0 0 1 98.98-135.8Z"></path>
  <circle cx="402.29" cy="402.29" r="102.21" fill="#ffe966"></circle>
  <path fill="#ffe236" d="M402.29 300.08a103.013 103.013 0 0 0-15 1.099 102.22 102.22 0 0 1 0 202.222 102.213 102.213 0 1 0 15-203.32Z"></path>
  <path fill="#f66" d="m383.336 383.336 25.778-25.778a26.805 26.805 0 0 1 37.908 0 26.805 26.805 0 0 1 0 37.909l-25.777 25.778Z"></path>
  <path fill="#ff4e4e" d="m421.245 421.245 25.777-25.778a26.805 26.805 0 0 0 0-37.909 26.796 26.796 0 0 0-26.454-6.783 26.68 26.68 0 0 1 11.454 6.783 26.805 26.805 0 0 1 0 37.909l-18.277 18.278Z"></path>
  <path fill="#fbfbfb" d="M357.558 409.114a26.805 26.805 0 0 0 0 37.908 26.805 26.805 0 0 0 37.909 0l25.778-25.777-37.91-37.91Z"></path>
  <path fill="#eee" d="m413.745 413.745-33.278 33.277a26.682 26.682 0 0 1-11.455 6.783 26.535 26.535 0 0 0 1.867.466c.501.107 1.005.202 1.51.28l.1.017q.834.126 1.673.199l.181.013q.727.058 1.456.077c.104.002.207.006.31.007a26.953 26.953 0 0 0 3.265-.148c.103-.01.206-.025.308-.037q.673-.08 1.343-.194c.108-.018.217-.035.326-.055.538-.098 1.074-.209 1.606-.34l.02-.006a26.61 26.61 0 0 0 1.518-.428c.129-.04.257-.082.385-.124q.627-.205 1.245-.442c.102-.04.205-.075.307-.116q.75-.298 1.487-.643c.09-.043.178-.09.268-.133q.6-.29 1.19-.613.201-.11.402-.225.603-.344 1.193-.721c.072-.046.145-.089.217-.136.455-.298.902-.615 1.342-.944.114-.085.226-.175.339-.262q.506-.39.997-.81a27.163 27.163 0 0 0 1.6-1.465l25.778-25.777Z"></path>
  <circle cx="210.5" cy="260.5" r="15" fill="#3ce568"></circle>
  <path fill="#313440" d="m403.81 352.254-51.555 51.557a34.306 34.306 0 0 0 48.515 48.515l51.556-51.556a34.306 34.306 0 1 0-48.515-48.516Zm-13.646 89.465a19.305 19.305 0 1 1-27.303-27.301l20.475-20.475 27.302 27.301Zm51.555-51.556-20.474 20.474-27.302-27.301 20.474-20.475a19.305 19.305 0 1 1 27.302 27.302ZM210.5 155a7.5 7.5 0 0 0 7.5-7.5v-22a7.5 7.5 0 0 0-15 0v22a7.5 7.5 0 0 0 7.5 7.5Zm202.214 138.078A206.78 206.78 0 0 0 415 262.5a203.27 203.27 0 0 0-19.613-87.332 75.409 75.409 0 0 0 14.219-96.486l8.762-7.476a7.5 7.5 0 0 0-9.736-11.412l-8.197 6.994a75.416 75.416 0 0 0-114.684 5.559A203.2 203.2 0 0 0 218 58.152V15h19.5a7.5 7.5 0 0 0 0-15h-54a7.5 7.5 0 0 0 0 15H203v43.152a203.201 203.201 0 0 0-67.751 14.195 75.416 75.416 0 0 0-114.684-5.559l-8.197-6.994a7.5 7.5 0 0 0-9.736 11.412l8.762 7.476A75.03 75.03 0 0 0 0 118.5a75.916 75.916 0 0 0 25.616 56.662A203.27 203.27 0 0 0 6 262.5c0 86.502 53.988 160.627 130.037 190.463l-34.474 47.107a7.5 7.5 0 1 0 12.104 8.86l37.185-50.812a204.546 204.546 0 0 0 119.287-.013l37.194 50.825a7.5 7.5 0 1 0 12.104-8.86l-34.459-47.087q8.431-3.288 16.544-7.332a109.706 109.706 0 1 0 111.192-152.573ZM345.5 58a60.493 60.493 0 0 1 42.688 103.362 205.911 205.911 0 0 0-88.207-82.717A60.29 60.29 0 0 1 345.5 58ZM15 118.5a60.501 60.501 0 0 1 106.019-39.855 205.91 205.91 0 0 0-88.206 82.715A59.895 59.895 0 0 1 15 118.5ZM210.5 452C106.01 452 21 366.99 21 262.5S106.01 73 210.5 73 400 158.01 400 262.5a191.6 191.6 0 0 1-2.398 30.187 109.565 109.565 0 0 0-15.54 1.77A175.13 175.13 0 0 0 385 262.5C385 166.28 306.72 88 210.5 88S36 166.28 36 262.5 114.28 437 210.5 437a173.855 173.855 0 0 0 82.934-21.019 108.876 108.876 0 0 0 3.073 15.415A189.854 189.854 0 0 1 210.5 452Zm82.128-52.842A158.827 158.827 0 0 1 210.5 422C122.551 422 51 350.448 51 262.5 51 174.551 122.551 103 210.5 103S370 174.551 370 262.5a159.721 159.721 0 0 1-4.19 36.324 109.915 109.915 0 0 0-73.182 100.334ZM402.29 497A94.71 94.71 0 1 1 497 402.29 94.817 94.817 0 0 1 402.29 497ZM267.373 253H231.71a22.497 22.497 0 0 0-28.886-13.65l-46.53-56.612a7.5 7.5 0 0 0-11.588 9.524l46.535 56.617A22.496 22.496 0 1 0 231.71 268h35.663a7.5 7.5 0 0 0 0-15ZM210.5 268a7.5 7.5 0 1 1 7.5-7.5 7.508 7.508 0 0 1-7.5 7.5Zm137 2a7.5 7.5 0 0 0 0-15h-22a7.5 7.5 0 0 0 0 15Zm-137 100a7.5 7.5 0 0 0-7.5 7.5v22a7.5 7.5 0 0 0 15 0v-22a7.5 7.5 0 0 0-7.5-7.5Zm-115-115h-22a7.5 7.5 0 0 0 0 15h22a7.5 7.5 0 0 0 0-15Z"></path>
</svg>
