<svg xmlns="http://www.w3.org/2000/svg" enable-background="new 0 0 512 512" viewBox="0 0 512 512" id="safe-box">
  <g>
    <g>
      <linearGradient id="a" x1="284.966" x2="226.578" y1="-205.851" y2="880.166" gradientUnits="userSpaceOnUse">
        <stop offset="0" stop-color="#eae9fe"></stop>
        <stop offset=".424" stop-color="#eeeefe"></stop>
        <stop offset=".897" stop-color="#fbfbff"></stop>
        <stop offset="1" stop-color="#fff"></stop>
      </linearGradient>
      <path fill="url(#a)" d="M468.836,264.275c-9.502-7.393-20.977-13.763-25.396-24.961
			c-6.009-15.229,3.597-31.571,9.261-46.931c17.296-46.9-4.903-102.439-44.732-132.645
			c-75.982-57.623-224.302-37.425-245.028,42.219c-8.768,33.692,6.94,72.131-9.131,103.013
			c-20.278,38.966-74.073,41.594-108.719,58.921C2.169,285.358-6.419,332.1,24.365,367.686
			c11.304,13.068,25.769,22.07,36.136,36.348c15.001,20.659,23.415,43.504,43.486,60.545c28.263,23.996,75.517,29.946,100.538,2.586
			c14.09-15.407,18.675-38.106,34.054-52.225c20.245-18.586,52.242-16.086,78.004-6.514c25.762,9.571,49.655,25.026,76.789,29.381
			c42.426,6.81,87.917-18.085,105.053-57.489C515.561,340.912,502.748,290.664,468.836,264.275z"></path>
      <g>
        <path fill="#386e93" d="M442.36,104.16v281.013c0,13.07-10.595,23.665-23.665,23.665H93.305
				c-13.07,0-23.665-10.595-23.665-23.665V104.16c0-13.07,10.595-23.665,23.665-23.665h325.391
				C431.765,80.495,442.36,91.091,442.36,104.16z"></path>
        <path fill="#f9bb40" d="M109.409,354.219V135.115c0-9.802,7.946-17.749,17.749-17.749h257.686
				c9.802,0,17.749,7.946,17.749,17.749v219.104c0,9.802-7.946,17.749-17.749,17.749H127.157
				C117.355,371.967,109.409,364.021,109.409,354.219z"></path>
        <path fill="#ededed" d="M400.013 408.844v10.826c0 6.535-5.298 11.832-11.832 11.832h-24.049c-6.535 0-11.832-5.298-11.832-11.832v-10.826H400.013zM119.521 301.78v37.896c0 3.602-2.92 6.522-6.522 6.522h-7.355c-3.602 0-6.522-2.92-6.522-6.522V301.78c0-3.602 2.92-6.522 6.522-6.522h7.355C116.601 295.257 119.521 298.177 119.521 301.78zM120.003 157.953v37.896c0 3.602-2.92 6.522-6.522 6.522h-7.355c-3.602 0-6.522-2.92-6.522-6.522v-37.896c0-3.602 2.92-6.522 6.522-6.522h7.355C117.083 151.431 120.003 154.351 120.003 157.953zM256.374 180.276c-39.934 0-72.297 32.363-72.297 72.237 0 39.995 32.363 72.355 72.297 72.355 39.874 0 72.294-32.36 72.294-72.355C328.668 212.639 296.247 180.276 256.374 180.276zM256.374 306.171c-29.581 0-53.601-24.017-53.601-53.598s24.02-53.601 53.601-53.601c29.581 0 53.54 24.02 53.54 53.601S285.955 306.171 256.374 306.171z"></path>
        <path fill="#ff5859" d="M256.403,306.168c-29.581,0-53.601-24.017-53.601-53.598s24.02-53.601,53.601-53.601
				s53.54,24.02,53.54,53.601S285.984,306.168,256.403,306.168z"></path>
        <path fill="#ededed" d="M328.412 196l-59.821 59.822-15.824-15.824 59.821-59.822c4.367-4.367 11.41-4.367 15.824.047C332.779 184.59 332.779 191.633 328.412 196zM183.962 309.136l59.822-59.82 15.824 15.824-59.822 59.82c-4.367 4.367-11.41 4.367-15.824-.047C179.595 320.546 179.595 313.503 183.962 309.136z"></path>
        <path fill="#ededed" d="M199.454 180.177l59.822 59.821-15.824 15.824-59.822-59.821c-4.367-4.367-4.367-11.41.047-15.824C188.044 175.81 195.087 175.81 199.454 180.177zM312.59 324.958l-59.82-59.822 15.824-15.824 59.82 59.822c4.367 4.367 4.367 11.41-.047 15.824C324 329.326 316.957 329.326 312.59 324.958z"></path>
        <path fill="#386e93" d="M282.022,252.556c0,14.196-11.496,25.692-25.669,25.692c-14.173,0-25.669-11.496-25.669-25.692
				c0-14.172,11.496-25.668,25.669-25.668C270.526,226.888,282.022,238.384,282.022,252.556z"></path>
        <path fill="#ededed" d="M267.398 252.563c0 6.108-4.947 11.055-11.045 11.055-6.098 0-11.045-4.947-11.045-11.055 0-6.098 4.947-11.044 11.045-11.044C262.451 241.518 267.398 246.465 267.398 252.563zM157.449 408.844v10.826c0 6.535-5.298 11.832-11.832 11.832h-24.049c-6.535 0-11.832-5.298-11.832-11.832v-10.826H157.449z"></path>
        <path fill="#332e8e" d="M418.695,76.746H93.305c-15.116,0-27.415,12.297-27.415,27.415v281.013
				c0,15.117,12.299,27.415,27.415,27.415h12.681v7.083c0,8.594,6.99,15.583,15.582,15.583h24.049
				c8.593,0,15.582-6.99,15.582-15.583v-7.083H348.55v7.083c0,8.594,6.99,15.583,15.582,15.583h24.048
				c8.593,0,15.583-6.99,15.583-15.583v-7.083h14.932c15.116,0,27.415-12.297,27.415-27.415V104.16
				C446.11,89.043,433.811,76.746,418.695,76.746z M153.699,419.671c0,4.458-3.625,8.083-8.082,8.083h-24.049
				c-4.457,0-8.082-3.625-8.082-8.083v-7.078h40.214V419.671z M396.264,419.671c0,4.458-3.627,8.083-8.083,8.083h-24.048
				c-4.457,0-8.082-3.625-8.082-8.083v-7.078h40.214V419.671z M438.61,385.174c0,10.981-8.933,19.915-19.915,19.915H93.305
				c-10.981,0-19.915-8.933-19.915-19.915V104.16c0-10.981,8.933-19.915,19.915-19.915h325.391c10.981,0,19.915,8.933,19.915,19.915
				V385.174z"></path>
        <path fill="#332e8e" d="M384.843,113.616H127.157c-11.854,0-21.499,9.644-21.499,21.499v12.613
				c-5.443,0.251-9.805,4.722-9.805,10.226v37.896c0,5.504,4.362,9.973,9.805,10.224v85.433h-0.015
				c-5.664,0-10.272,4.609-10.272,10.273v37.896c0,5.664,4.608,10.273,10.272,10.273h0.015v4.27
				c0,11.855,9.645,21.499,21.499,21.499h257.686c11.854,0,21.499-9.644,21.499-21.499V135.115
				C406.342,123.26,396.697,113.616,384.843,113.616z M103.354,195.85v-37.896c0-1.528,1.244-2.773,2.772-2.773h7.355
				c1.528,0,2.772,1.245,2.772,2.773v37.896c0,1.528-1.244,2.771-2.772,2.771h-7.355
				C104.597,198.621,103.354,197.378,103.354,195.85z M102.871,339.676V301.78c0-1.528,1.244-2.773,2.772-2.773h7.355
				c1.528,0,2.772,1.245,2.772,2.773v37.896c0,1.528-1.244,2.773-2.772,2.773h-7.355
				C104.115,342.449,102.871,341.204,102.871,339.676z M398.842,354.219c0,7.72-6.281,13.999-13.999,13.999H127.157
				c-7.719,0-13.999-6.279-13.999-13.999v-4.286c5.589-0.088,10.112-4.648,10.112-10.257V301.78c0-5.609-4.524-10.169-10.112-10.257
				v-85.402h0.322c5.664,0,10.272-4.607,10.272-10.271v-37.896c0-5.664-4.608-10.273-10.272-10.273h-0.322v-12.566
				c0-7.72,6.281-13.999,13.999-13.999h257.686c7.719,0,13.999,6.279,13.999,13.999V354.219z"></path>
        <path fill="#332e8e" d="M319.442,294.861c8.156-12.121,12.976-26.668,12.976-42.349c0-15.647-4.789-30.181-12.935-42.28
				l11.58-11.58c5.813-5.813,5.813-15.269,0.001-21.082c-5.786-5.786-15.206-5.968-21.128-0.046l-11.676,11.676
				c-12.026-7.974-26.404-12.675-41.887-12.675c-15.666,0-30.208,4.802-42.319,12.947l-11.948-11.948
				c-5.827-5.827-15.233-5.847-21.08,0c-5.839,5.837-5.859,15.315-0.046,21.128l12.005,12.005
				c-7.975,12.014-12.658,26.389-12.658,41.855c0,15.587,4.748,30.064,12.815,42.143l-11.83,11.83
				c-5.836,5.833-5.838,15.243-0.001,21.079c5.871,5.873,15.289,5.885,21.128,0.046l11.834-11.833
				c12.07,8.073,26.526,12.839,42.101,12.839c15.481,0,29.87-4.691,41.896-12.675l11.669,11.669c5.827,5.827,15.233,5.847,21.08,0
				c5.876-5.876,5.889-15.288,0.046-21.125L319.442,294.861z M324.918,252.512c0,13.608-4.013,26.279-10.868,36.957l-8.163-8.163
				c4.921-8.458,7.777-18.259,7.777-28.732c0-10.479-2.829-20.306-7.753-28.769l8.142-8.142
				C320.897,226.314,324.918,238.941,324.918,252.512z M256.353,281.997c2.444,0,4.805-0.333,7.077-0.897l15.721,15.722
				c-6.833,3.551-14.561,5.6-22.777,5.6c-8.317,0-16.139-2.087-23.036-5.71l15.679-15.678
				C251.367,281.64,253.816,281.997,256.353,281.997z M256.353,274.497c-12.085,0-21.918-9.844-21.918-21.941
				c0-12.085,9.833-21.919,21.918-21.919c12.086,0,21.919,9.834,21.919,21.919C278.272,264.654,268.439,274.497,256.353,274.497z
				 M212.219,275.578c-3.62-6.886-5.697-14.698-5.697-23.004c0-8.219,2.043-15.952,5.589-22.789l15.715,15.715
				c-0.561,2.265-0.891,4.62-0.891,7.057c0,2.539,0.357,4.991,0.964,7.343L212.219,275.578z M256.353,223.137
				c-2.632,0-5.172,0.38-7.602,1.032l-15.618-15.618c6.945-3.696,14.838-5.829,23.241-5.829c8.213,0,15.938,2.048,22.771,5.594
				l-15.717,15.717C261.157,223.47,258.796,223.137,256.353,223.137z M284.744,244.972l15.612-15.612
				c3.682,6.94,5.809,14.822,5.809,23.214c0,8.388-2.122,16.271-5.8,23.209l-15.623-15.624c0.651-2.43,1.03-4.969,1.03-7.601
				C285.772,249.93,285.393,247.396,284.744,244.972z M315.24,182.827c2.886-2.886,7.555-2.92,10.521,0.046
				c2.903,2.903,2.905,7.571,0,10.476l-44.169,44.169c-2.585-4.322-6.234-7.926-10.6-10.444L315.24,182.827z M256.374,184.026
				c13.408,0,25.9,3.91,36.476,10.587l-8.165,8.165c-8.36-4.784-18.01-7.556-28.31-7.556c-10.489,0-20.323,2.841-28.79,7.78
				l-8.111-8.111C230.138,188.047,242.783,184.026,256.374,184.026z M186.33,182.827c2.904-2.906,7.569-2.905,10.474,0
				l44.499,44.499c-4.32,2.587-7.922,6.238-10.438,10.606l-44.582-44.582C183.389,190.457,183.367,185.788,186.33,182.827z
				 M187.826,252.512c0-13.39,3.912-25.862,10.588-36.425l8.148,8.148c-4.78,8.367-7.54,18.03-7.54,28.337
				c0,10.391,2.807,20.126,7.661,28.539l-8.117,8.117C191.799,278.6,187.826,266.024,187.826,252.512z M197.135,322.307
				c-2.935,2.937-7.556,2.917-10.522-0.046c-2.905-2.905-2.904-7.569,0.001-10.474l44.381-44.379
				c2.551,4.344,6.175,7.971,10.516,10.525L197.135,322.307z M256.374,321.116c-13.502,0-26.081-3.963-36.704-10.737l8.143-8.142
				c8.42,4.863,18.159,7.685,28.561,7.685c10.303,0,19.956-2.773,28.318-7.56l8.152,8.152
				C282.27,317.202,269.78,321.116,256.374,321.116z M325.714,322.307c-2.808,2.808-7.668,2.805-10.474,0l-44.249-44.251
				c4.364-2.519,8.011-6.124,10.596-10.446l44.173,44.177C328.655,314.681,328.677,319.347,325.714,322.307z"></path>
        <path fill="#332e8e" d="M256.353,237.769c-8.157,0-14.794,6.638-14.794,14.795c0,8.164,6.637,14.805,14.794,14.805
				c8.158,0,14.795-6.641,14.795-14.805C271.148,244.407,264.511,237.769,256.353,237.769z M256.353,259.868
				c-4.022,0-7.294-3.276-7.294-7.305c0-4.023,3.271-7.295,7.294-7.295s7.295,3.271,7.295,7.295
				C263.648,256.592,260.375,259.868,256.353,259.868z"></path>
      </g>
    </g>
  </g>
</svg>
