<svg xmlns="http://www.w3.org/2000/svg" id="shopping" viewBox="0 0 100 100">
  <circle cx="41.34" cy="39.89" r="33.89" style="fill:#00a964"></circle>
  <path d="M75.52,82.49c-.65-4.71-.55-9.68,2.47-13.35-1.3-6.38,4.68-13.78,14.01-14.26,1.28-.1,1.46,1.93.1,2-7.6.4-12.48,6-12.32,10.56,3.06-2.16,6.07-.39,5.94,2.32-.16,3.54-4.8,5.6-6.93,1.68-1.89,2.97-1.78,7.29-1.3,10.78.18,1.31-1.8,1.58-1.98.27ZM80.21,69.68c1.52,4.35,4.89-.11,2.95-1.07-.99-.49-2.15.3-2.95,1.07Z"></path>
  <g>
    <path d="M67.47 21.54h-4.25c-1.32 0-1.32-2 0-2h4.25c1.32 0 1.32 2 0 2ZM68.34 18.21c-.49 0-.28.07-4.31-3.33-1.01-.85.28-2.38 1.29-1.53l3.66 3.09c.71.6.28 1.76-.65 1.76ZM71.63 16.36c-.98 0-.94-.66-2.18-4.65-.39-1.26 1.52-1.86 1.91-.59l1.22 3.94c.2.64-.28 1.3-.96 1.3Z"></path>
  </g>
  <path d="M14.25 44.68c-.18-.34-1.75-3.42-.69-5.62.75-1.57 3.48-2.71 3.8-1.07.1.54-.25 1.07-.79 1.17-.82.16-1.08.51-1.2.76-.53 1.1.32 3.18.66 3.82.61 1.17-1.15 2.09-1.77.93ZM77.39 27.22c.4-3 3.19-5.53 7.88-4.56 1.29.27.9 2.22-.4 1.96-3.33-.68-5.08.73-5.5 2.87-.19 1.31-2.15 1.03-1.98-.27ZM65.11 65.52c.32-.08 3-.9 2.26-4.97-.23-1.3 1.73-1.66 1.97-.36.88 4.85-2.08 6.88-3.76 7.27-1.3.31-1.73-1.64-.47-1.95Z" style="fill:#fff"></path>
  <g>
    <g>
      <path d="M27.77,51.57c-4.21.03-7.56-3.54-7.27-7.74l3.47-22.72c.12-1.74,1.45-3.08,3.05-3.08h28.79c1.61,0,2.94,1.36,3.05,3.11l3.32,22.6c.26,4.15-3.02,7.67-7.19,7.7l-27.23.14Z" style="fill:#6055a3"></path>
      <path d="M27.73,52.57c-4.77,0-8.55-4.05-8.23-8.81l3.48-22.8c.14-2.17,1.92-3.93,4.04-3.93h28.79c2.13,0,3.91,1.78,4.05,4.04l3.32,22.52c.32,5-3.59,8.81-8.17,8.84-9.08.05-27.26.14-27.28.14ZM27.02,19.02c-1.07,0-1.97.95-2.05,2.15l-3.48,22.8c-.22,3.38,2.48,6.59,6.28,6.59l27.23-.14c3.59-.02,6.42-3.05,6.19-6.63l-3.32-22.52c-.09-1.3-.99-2.25-2.06-2.25h-28.79Z"></path>
    </g>
    <path d="M48.78,22.17v-6.21c0-6.82-7.86-10.17-12.61-5.66-1.46,1.39-2.32,3.28-2.32,5.41v6.46c0,1.32-2,1.32-2,0v-6.35c-.2-1.86.78-4.91,2.94-6.97,6.03-5.74,15.99-1.45,15.99,7.1v6.21c0,1.32-2,1.32-2,0Z"></path>
  </g>
  <g>
    <g>
      <path d="M71.23,63.56l-4.51,18.67c-.52,2.15-2.44,3.66-4.64,3.66H22.42c-1.98,0-3.59-1.61-3.59-3.59s1.61-3.59,3.59-3.59h37.64l3.82-15.15h7.35Z" style="fill:#6055a3"></path>
      <path d="M62.07,86.89H22.42c-2.53,0-4.59-2.06-4.59-4.59s2.06-4.59,4.59-4.59h36.86l3.63-14.4c.11-.44.51-.76.97-.76,8.06,0,7.73-.14,8.14.38.47.59.37.08-4.32,19.53-.63,2.6-2.94,4.42-5.62,4.42ZM22.42,79.71c-1.43,0-2.59,1.16-2.59,2.59s1.16,2.59,2.59,2.59h39.66c1.75,0,3.26-1.19,3.67-2.89l4.21-17.44h-5.3l-3.63,14.4c-.11.44-.51.76-.97.76H22.42Z"></path>
    </g>
    <g>
      <path d="M75.45,45.05l4.46-18.98h9.8c1.7,0,3.07-1.38,3.07-3.07s-1.38-3.07-3.07-3.07h-11.05c-2.78,0-5.18,1.92-5.8,4.62l-4.71,20.51h7.3Z" style="fill:#6055a3"></path>
      <path d="M75.45,46.05c-7.99,0-7.68.14-8.08-.38-.47-.59-.37-.09,4.52-21.35.73-3.18,3.52-5.4,6.78-5.4h11.05c2.25,0,4.07,1.83,4.07,4.07s-1.83,4.07-4.07,4.07h-9.01l-4.28,18.21c-.11.45-.51.77-.97.77ZM69.41,44.05h5.25l4.28-18.21c.11-.45.51-.77.97-.77h9.8c1.14,0,2.07-.93,2.07-2.07s-.93-2.07-2.07-2.07h-11.05c-2.32,0-4.31,1.58-4.83,3.85l-4.43,19.28Z"></path>
    </g>
    <g>
      <path d="M67.85,71.72H17.56c-.88,0-1.65-.6-1.87-1.45L7.27,37.1c-.31-1.22.61-2.4,1.87-2.4h66.16c1.23,0,2.15,1.14,1.88,2.35l-7.45,33.17c-.2.88-.98,1.5-1.88,1.5Z" style="fill:#f16622"></path>
      <path d="M67.85,72.72H17.56c-1.34,0-2.51-.91-2.83-2.21L6.3,37.35c-.47-1.85.93-3.65,2.83-3.65h66.16c1.87,0,3.27,1.74,2.85,3.57l-7.45,33.17c-.3,1.35-1.48,2.28-2.85,2.28ZM9.14,35.7c-.6,0-1.05.57-.9,1.15l8.42,33.17c.1.41.47.7.9.7h50.29c.44,0,.81-.3.9-.72l7.45-33.17c.37-1.67,1.92-1.13-67.06-1.13Z"></path>
    </g>
    <path d="M29.61 64.66c-2.05.48-4.11-.8-4.58-2.86l-3.72-16.07c-.48-2.05.8-4.11 2.86-4.58 2.05-.48 4.11.8 4.58 2.86l3.72 16.07c.48 2.05-.8 4.11-2.86 4.58ZM44.5 64.66c-2.05.48-4.11-.8-4.58-2.86l-3.72-16.07c-.48-2.05.8-4.11 2.86-4.58 2.05-.48 4.11.8 4.58 2.86l3.72 16.07c.48 2.05-.8 4.11-2.86 4.58ZM59.38 64.66c-2.05.48-4.11-.8-4.58-2.86l-3.72-16.07c-.48-2.05.8-4.11 2.86-4.58 2.05-.48 4.11.8 4.58 2.86l3.72 16.07c.48 2.05-.8 4.11-2.86 4.58Z" style="fill:#fff"></path>
    <g>
      <circle cx="62.02" cy="86.36" r="7.64" style="fill:#fff"></circle>
      <path d="M62.02,95c-4.76,0-8.64-3.88-8.64-8.64s3.88-8.64,8.64-8.64,8.64,3.88,8.64,8.64-3.88,8.64-8.64,8.64ZM62.02,79.72c-3.66,0-6.64,2.98-6.64,6.64s2.98,6.64,6.64,6.64,6.64-2.98,6.64-6.64-2.98-6.64-6.64-6.64Z"></path>
    </g>
    <g>
      <circle cx="33.96" cy="86.36" r="7.64" style="fill:#fff"></circle>
      <path d="M33.96,95c-4.76,0-8.64-3.88-8.64-8.64s3.88-8.64,8.64-8.64,8.64,3.88,8.64,8.64-3.88,8.64-8.64,8.64ZM33.96,79.72c-3.66,0-6.64,2.98-6.64,6.64s2.98,6.64,6.64,6.64,6.64-2.98,6.64-6.64-2.98-6.64-6.64-6.64Z"></path>
    </g>
  </g>
  <path d="m70.04 50.02 1.64-8.42c.25-1.3 2.21-.91 1.96.38l-1.64 8.42c-.25 1.3-2.22.92-1.96-.38ZM53.03 32.89c-3.44 0-5.28-3.08-5.77-4.74-.38-1.26 1.53-1.85 1.92-.58.04.14 1.05 3.31 3.86 3.31 1.52 0 1.51 2 0 2ZM22.74 69.4c-3.77 0-5.61-5.29-5.69-5.52-.43-1.25 1.46-1.9 1.89-.65.4 1.16 1.86 4.16 3.8 4.16 1.32 0 1.32 2 0 2Z" style="fill:#fff"></path>
</svg>
